<mxfile host="app.diagrams.net" modified="2023-07-31T12:31:37.346Z" agent="Mozilla/5.0 (Windows NT 10.0; Win64; x64) AppleWebKit/537.36 (KHTML, like Gecko) Chrome/115.0.0.0 Safari/537.36" version="21.6.6" etag="251MtVZPISBKmkYh8dI4">
  <diagram name="Page-1" id="Page-1">
    <mxGraphModel dx="1434" dy="838" grid="1" gridSize="10" guides="1" tooltips="1" connect="1" arrows="1" fold="1" page="1" pageScale="1" pageWidth="827" pageHeight="1169" math="0" shadow="0">
      <root>
        <mxCell id="0" />
        <mxCell id="1" parent="0" />
        <UserObject label="" tags="Background" id="2">
          <mxCell style="vsdxID=110000;fillColor=none;gradientColor=none;strokeColor=none;spacingTop=-3;spacingBottom=-3;spacingLeft=-3;spacingRight=-3;points=[];labelBackgroundColor=none;rounded=0;html=1;whiteSpace=wrap;" parent="1" vertex="1">
            <mxGeometry x="917" y="70" width="60" height="241" as="geometry" />
          </mxCell>
        </UserObject>
        <mxCell id="4" style="vsdxID=2;rotation=270;fillColor=#ffffff;gradientColor=none;shape=stencil(nZBRDoQgDERP03+WHsHFe5iISyOCQdT19kIaIxq//Jtp3zTpAFaTaUYNUkwx+F6v1EYD+AUpyRkdKCYFqACrzgf9C352LfuxyWRWg1/yhT/nRE5IsZWuZtCSK8CPeI0e/hF+jV7AJM4PO7KWCyr390bSiNtEtQM=);strokeColor=#000000;spacingTop=-3;spacingBottom=-3;spacingLeft=-3;spacingRight=-3;points=[];labelBackgroundColor=none;rounded=0;html=1;whiteSpace=wrap;" parent="2" vertex="1">
          <mxGeometry x="-71" y="110" width="221" height="40" as="geometry" />
        </mxCell>
        <mxCell id="5" style="vsdxID=3;rotation=270;fillColor=#ffffff;gradientColor=none;shape=stencil(nZBRDoQgDERP03+WHsHFe5iISyOCQdT19kIaIxq//Jtp3zTpAFaTaUYNUkwx+F6v1EYD+AUpyRkdKCYFqACrzgf9C352LfuxyWRWg1/yhT/nRE5IsZWuZtCSK8CPeI0e/hF+jV7AJM4PO7KWCyr390bSiNtEtQM=);strokeColor=#000000;spacingTop=-3;spacingBottom=-3;spacingLeft=-3;spacingRight=-3;points=[];labelBackgroundColor=none;rounded=0;html=1;whiteSpace=wrap;" parent="2" vertex="1">
          <mxGeometry x="-81" y="100" width="221" height="40" as="geometry" />
        </mxCell>
        <mxCell id="6" value="&lt;div style=&quot;font-size: 1px&quot;&gt;&lt;font style=&quot;font-size:11.64px;font-family:Helvetica;color:#000000;direction:ltr;letter-spacing:0px;line-height:120%;opacity:1&quot;&gt;1D CNN&lt;/font&gt;&lt;/div&gt;" style="verticalAlign=middle;align=center;overflow=width;vsdxID=4;rotation=270;fillColor=#ffffff;gradientColor=none;shape=stencil(nZBRDoQgDERP03+WHsHFe5iISyOCQdT19kIaIxq//Jtp3zTpAFaTaUYNUkwx+F6v1EYD+AUpyRkdKCYFqACrzgf9C352LfuxyWRWg1/yhT/nRE5IsZWuZtCSK8CPeI0e/hF+jV7AJM4PO7KWCyr390bSiNtEtQM=);strokeColor=#000000;spacingTop=-3;spacingBottom=-3;spacingLeft=-3;spacingRight=-3;points=[];labelBackgroundColor=none;rounded=0;html=1;whiteSpace=wrap;" parent="2" vertex="1">
          <mxGeometry x="-91" y="90" width="221" height="40" as="geometry" />
        </mxCell>
        <UserObject label="" tags="Background" id="12">
          <mxCell style="vsdxID=1110000;fillColor=none;gradientColor=none;strokeColor=none;spacingTop=-3;spacingBottom=-3;spacingLeft=-3;spacingRight=-3;points=[];labelBackgroundColor=none;rounded=0;html=1;whiteSpace=wrap;" parent="1" vertex="1">
            <mxGeometry x="1027" y="100" width="39" height="200" as="geometry" />
          </mxCell>
        </UserObject>
        <mxCell id="14" style="vsdxID=12;rotation=270;fillColor=#ffffff;gradientColor=none;shape=stencil(nZBRDoQgDERP03+WHsHFe5iISyOCQdT19kIaIxq//Jtp3zTpAFaTaUYNUkwx+F6v1EYD+AUpyRkdKCYFqACrzgf9C352LfuxyWRWg1/yhT/nRE5IsZWuZtCSK8CPeI0e/hF+jV7AJM4PO7KWCyr390bSiNtEtQM=);strokeColor=#000000;spacingTop=-3;spacingBottom=-3;spacingLeft=-3;spacingRight=-3;points=[];labelBackgroundColor=none;rounded=0;html=1;whiteSpace=wrap;" parent="12" vertex="1">
          <mxGeometry x="-47" y="91" width="145" height="33" as="geometry" />
        </mxCell>
        <mxCell id="15" style="vsdxID=13;rotation=270;fillColor=#ffffff;gradientColor=none;shape=stencil(nZBRDoQgDERP03+WHsHFe5iISyOCQdT19kIaIxq//Jtp3zTpAFaTaUYNUkwx+F6v1EYD+AUpyRkdKCYFqACrzgf9C352LfuxyWRWg1/yhT/nRE5IsZWuZtCSK8CPeI0e/hF+jV7AJM4PO7KWCyr390bSiNtEtQM=);strokeColor=#000000;spacingTop=-3;spacingBottom=-3;spacingLeft=-3;spacingRight=-3;points=[];labelBackgroundColor=none;rounded=0;html=1;whiteSpace=wrap;" parent="12" vertex="1">
          <mxGeometry x="-53" y="83" width="145" height="33" as="geometry" />
        </mxCell>
        <mxCell id="16" value="&lt;div style=&quot;font-size: 1px&quot;&gt;&lt;font style=&quot;font-size:11.64px;font-family:Helvetica;color:#000000;direction:ltr;letter-spacing:0px;line-height:120%;opacity:1&quot;&gt;1D Max Pooling&lt;/font&gt;&lt;/div&gt;" style="verticalAlign=middle;align=center;overflow=width;vsdxID=14;rotation=270;fillColor=#ffffff;gradientColor=none;shape=stencil(nZBRDoQgDERP03+WHsHFe5iISyOCQdT19kIaIxq//Jtp3zTpAFaTaUYNUkwx+F6v1EYD+AUpyRkdKCYFqACrzgf9C352LfuxyWRWg1/yhT/nRE5IsZWuZtCSK8CPeI0e/hF+jV7AJM4PO7KWCyr390bSiNtEtQM=);strokeColor=#000000;spacingTop=-3;spacingBottom=-3;spacingLeft=-3;spacingRight=-3;points=[];labelBackgroundColor=none;rounded=0;html=1;whiteSpace=wrap;" parent="12" vertex="1">
          <mxGeometry x="-60" y="75" width="145" height="33" as="geometry" />
        </mxCell>
        <UserObject label="" tags="Background" id="17">
          <mxCell style="vsdxID=1510000;fillColor=none;gradientColor=none;strokeColor=none;spacingTop=-3;spacingBottom=-3;spacingLeft=-3;spacingRight=-3;points=[];labelBackgroundColor=none;rounded=0;html=1;whiteSpace=wrap;" parent="1" vertex="1">
            <mxGeometry x="1127" y="80" width="146" height="240" as="geometry" />
          </mxCell>
        </UserObject>
        <mxCell id="19" style="vsdxID=16;fillColor=#ffffff;gradientColor=none;shape=stencil(nZDBDsIgEES/Zq8GlpPnWn/ALyCyykaEhqJVv17ajQkaT73tzLzJJgOmG70dCFCNJacLTeyKB7MDRI6eMpd6genBdKeU6ZzTLTrRg60kqsUhJx0906hsPh74ReKh3mzFlt413ed/D0mVRM9W7QUMHBtQq9XoR/+FV6NfYD2WPWQpDkHmbPPf/aol25v+DQ==);strokeColor=#000000;spacingTop=-3;spacingBottom=-3;spacingLeft=-3;spacingRight=-3;points=[];labelBackgroundColor=none;rounded=1;html=1;whiteSpace=wrap;" parent="17" vertex="1">
          <mxGeometry width="146" height="240" as="geometry" />
        </mxCell>
        <mxCell id="20" style="vsdxID=1710000;fillColor=none;gradientColor=none;strokeColor=none;spacingTop=-3;spacingBottom=-3;spacingLeft=-3;spacingRight=-3;points=[];labelBackgroundColor=none;rounded=0;html=1;whiteSpace=wrap;" parent="17" vertex="1">
          <mxGeometry x="7" y="60" width="50" height="30" as="geometry" />
        </mxCell>
        <mxCell id="22" value="&lt;div style=&quot;font-size: 1px&quot;&gt;&lt;font style=&quot;font-size:11.64px;font-family:Helvetica;color:#000000;direction:ltr;letter-spacing:0px;line-height:120%;opacity:1&quot;&gt;LSTM&lt;/font&gt;&lt;/div&gt;" style="verticalAlign=middle;align=center;overflow=width;vsdxID=18;fillColor=#ffffff;gradientColor=none;shape=stencil(nZBRDoQgDERP03+WHsHFe5iISyOCQdT19kIaIxq//Jtp3zTpAFaTaUYNUkwx+F6v1EYD+AUpyRkdKCYFqACrzgf9C352LfuxyWRWg1/yhT/nRE5IsZWuZtCSK8CPeI0e/hF+jV7AJM4PO7KWCyr390bSiNtEtQM=);strokeColor=#000000;spacingTop=-3;spacingBottom=-3;spacingLeft=-3;spacingRight=-3;points=[];labelBackgroundColor=none;rounded=0;html=1;whiteSpace=wrap;" parent="20" vertex="1">
          <mxGeometry width="50" height="30" as="geometry" />
        </mxCell>
        <UserObject label="" tags="Background" id="167">
          <mxCell style="vsdxID=19;edgeStyle=none;startArrow=none;endArrow=classic;startSize=5;endSize=5;strokeColor=#000000;spacingTop=0;spacingBottom=0;spacingLeft=0;spacingRight=0;verticalAlign=middle;html=1;labelBackgroundColor=#ffffff;rounded=0;" parent="20" edge="1">
            <mxGeometry relative="1" as="geometry">
              <mxPoint x="-20" y="102" as="offset" />
              <Array as="points" />
              <mxPoint x="5" y="6" as="sourcePoint" />
              <mxPoint x="44" y="6" as="targetPoint" />
            </mxGeometry>
          </mxCell>
        </UserObject>
        <mxCell id="23" style="vsdxID=2010000;fillColor=none;gradientColor=none;strokeColor=none;spacingTop=-3;spacingBottom=-3;spacingLeft=-3;spacingRight=-3;points=[];labelBackgroundColor=none;rounded=0;html=1;whiteSpace=wrap;" parent="17" vertex="1">
          <mxGeometry x="7" y="140" width="50" height="30" as="geometry" />
        </mxCell>
        <mxCell id="25" value="&lt;div style=&quot;font-size: 1px&quot;&gt;&lt;font style=&quot;font-size:11.64px;font-family:Helvetica;color:#000000;direction:ltr;letter-spacing:0px;line-height:120%;opacity:1&quot;&gt;LSTM&lt;/font&gt;&lt;/div&gt;" style="verticalAlign=middle;align=center;overflow=width;vsdxID=21;fillColor=#ffffff;gradientColor=none;shape=stencil(nZBRDoQgDERP03+WHsHFe5iISyOCQdT19kIaIxq//Jtp3zTpAFaTaUYNUkwx+F6v1EYD+AUpyRkdKCYFqACrzgf9C352LfuxyWRWg1/yhT/nRE5IsZWuZtCSK8CPeI0e/hF+jV7AJM4PO7KWCyr390bSiNtEtQM=);strokeColor=#000000;spacingTop=-3;spacingBottom=-3;spacingLeft=-3;spacingRight=-3;points=[];labelBackgroundColor=none;rounded=0;html=1;whiteSpace=wrap;" parent="23" vertex="1">
          <mxGeometry width="50" height="30" as="geometry" />
        </mxCell>
        <UserObject label="" tags="Background" id="168">
          <mxCell style="vsdxID=22;edgeStyle=none;startArrow=none;endArrow=classic;startSize=5;endSize=5;strokeColor=#000000;spacingTop=0;spacingBottom=0;spacingLeft=0;spacingRight=0;verticalAlign=middle;html=1;labelBackgroundColor=#ffffff;rounded=0;" parent="23" edge="1">
            <mxGeometry relative="1" as="geometry">
              <mxPoint x="-20" y="102" as="offset" />
              <Array as="points" />
              <mxPoint x="5" y="6" as="sourcePoint" />
              <mxPoint x="44" y="6" as="targetPoint" />
            </mxGeometry>
          </mxCell>
        </UserObject>
        <mxCell id="26" style="vsdxID=2310000;fillColor=none;gradientColor=none;strokeColor=none;spacingTop=-3;spacingBottom=-3;spacingLeft=-3;spacingRight=-3;points=[];labelBackgroundColor=none;rounded=0;html=1;whiteSpace=wrap;" parent="17" vertex="1">
          <mxGeometry x="7" y="190" width="50" height="30" as="geometry" />
        </mxCell>
        <mxCell id="28" value="&lt;div style=&quot;font-size: 1px&quot;&gt;&lt;font style=&quot;font-size:11.64px;font-family:Helvetica;color:#000000;direction:ltr;letter-spacing:0px;line-height:120%;opacity:1&quot;&gt;LSTM&lt;/font&gt;&lt;/div&gt;" style="verticalAlign=middle;align=center;overflow=width;vsdxID=24;fillColor=#ffffff;gradientColor=none;shape=stencil(nZBRDoQgDERP03+WHsHFe5iISyOCQdT19kIaIxq//Jtp3zTpAFaTaUYNUkwx+F6v1EYD+AUpyRkdKCYFqACrzgf9C352LfuxyWRWg1/yhT/nRE5IsZWuZtCSK8CPeI0e/hF+jV7AJM4PO7KWCyr390bSiNtEtQM=);strokeColor=#000000;spacingTop=-3;spacingBottom=-3;spacingLeft=-3;spacingRight=-3;points=[];labelBackgroundColor=none;rounded=0;html=1;whiteSpace=wrap;" parent="26" vertex="1">
          <mxGeometry width="50" height="30" as="geometry" />
        </mxCell>
        <UserObject label="" tags="Background" id="169">
          <mxCell style="vsdxID=25;edgeStyle=none;startArrow=none;endArrow=classic;startSize=5;endSize=5;strokeColor=#000000;spacingTop=0;spacingBottom=0;spacingLeft=0;spacingRight=0;verticalAlign=middle;html=1;labelBackgroundColor=#ffffff;rounded=0;" parent="26" edge="1">
            <mxGeometry relative="1" as="geometry">
              <mxPoint x="-20" y="102" as="offset" />
              <Array as="points" />
              <mxPoint x="5" y="6" as="sourcePoint" />
              <mxPoint x="44" y="6" as="targetPoint" />
            </mxGeometry>
          </mxCell>
        </UserObject>
        <mxCell id="29" style="vsdxID=2610000;fillColor=none;gradientColor=none;strokeColor=none;spacingTop=-3;spacingBottom=-3;spacingLeft=-3;spacingRight=-3;points=[];labelBackgroundColor=none;rounded=0;html=1;whiteSpace=wrap;" parent="17" vertex="1">
          <mxGeometry x="83" y="20" width="50" height="30" as="geometry" />
        </mxCell>
        <mxCell id="31" value="&lt;div style=&quot;font-size: 1px&quot;&gt;&lt;font style=&quot;font-size:11.64px;font-family:Helvetica;color:#000000;direction:ltr;letter-spacing:0px;line-height:120%;opacity:1&quot;&gt;LSTM&lt;/font&gt;&lt;/div&gt;" style="verticalAlign=middle;align=center;overflow=width;vsdxID=27;fillColor=#ffffff;gradientColor=none;shape=stencil(nZBRDoQgDERP03+WHsHFe5iISyOCQdT19kIaIxq//Jtp3zTpAFaTaUYNUkwx+F6v1EYD+AUpyRkdKCYFqACrzgf9C352LfuxyWRWg1/yhT/nRE5IsZWuZtCSK8CPeI0e/hF+jV7AJM4PO7KWCyr390bSiNtEtQM=);strokeColor=#000000;spacingTop=-3;spacingBottom=-3;spacingLeft=-3;spacingRight=-3;points=[];labelBackgroundColor=none;rounded=0;html=1;whiteSpace=wrap;" parent="29" vertex="1">
          <mxGeometry width="50" height="30" as="geometry" />
        </mxCell>
        <UserObject label="" tags="Background" id="170">
          <mxCell style="vsdxID=28;edgeStyle=none;startArrow=none;endArrow=classic;startSize=5;endSize=5;strokeColor=#000000;spacingTop=0;spacingBottom=0;spacingLeft=0;spacingRight=0;verticalAlign=middle;html=1;labelBackgroundColor=#ffffff;rounded=0;" parent="29" edge="1">
            <mxGeometry relative="1" as="geometry">
              <mxPoint x="16" y="102" as="offset" />
              <Array as="points" />
              <mxPoint x="39" y="6" as="sourcePoint" />
              <mxPoint x="8" y="6" as="targetPoint" />
            </mxGeometry>
          </mxCell>
        </UserObject>
        <mxCell id="32" style="vsdxID=2910000;fillColor=none;gradientColor=none;strokeColor=none;spacingTop=-3;spacingBottom=-3;spacingLeft=-3;spacingRight=-3;points=[];labelBackgroundColor=none;rounded=0;html=1;whiteSpace=wrap;" parent="17" vertex="1">
          <mxGeometry x="83" y="70" width="50" height="30" as="geometry" />
        </mxCell>
        <mxCell id="34" value="&lt;div style=&quot;font-size: 1px&quot;&gt;&lt;font style=&quot;font-size:11.64px;font-family:Helvetica;color:#000000;direction:ltr;letter-spacing:0px;line-height:120%;opacity:1&quot;&gt;LSTM&lt;/font&gt;&lt;/div&gt;" style="verticalAlign=middle;align=center;overflow=width;vsdxID=30;fillColor=#ffffff;gradientColor=none;shape=stencil(nZBRDoQgDERP03+WHsHFe5iISyOCQdT19kIaIxq//Jtp3zTpAFaTaUYNUkwx+F6v1EYD+AUpyRkdKCYFqACrzgf9C352LfuxyWRWg1/yhT/nRE5IsZWuZtCSK8CPeI0e/hF+jV7AJM4PO7KWCyr390bSiNtEtQM=);strokeColor=#000000;spacingTop=-3;spacingBottom=-3;spacingLeft=-3;spacingRight=-3;points=[];labelBackgroundColor=none;rounded=0;html=1;whiteSpace=wrap;" parent="32" vertex="1">
          <mxGeometry width="50" height="30" as="geometry" />
        </mxCell>
        <UserObject label="" tags="Background" id="171">
          <mxCell style="vsdxID=31;edgeStyle=none;startArrow=none;endArrow=classic;startSize=5;endSize=5;strokeColor=#000000;spacingTop=0;spacingBottom=0;spacingLeft=0;spacingRight=0;verticalAlign=middle;html=1;labelBackgroundColor=#ffffff;rounded=0;" parent="32" edge="1">
            <mxGeometry relative="1" as="geometry">
              <mxPoint x="16" y="102" as="offset" />
              <Array as="points" />
              <mxPoint x="39" y="6" as="sourcePoint" />
              <mxPoint x="8" y="6" as="targetPoint" />
            </mxGeometry>
          </mxCell>
        </UserObject>
        <mxCell id="35" style="vsdxID=3210000;fillColor=none;gradientColor=none;strokeColor=none;spacingTop=-3;spacingBottom=-3;spacingLeft=-3;spacingRight=-3;points=[];labelBackgroundColor=none;rounded=0;html=1;whiteSpace=wrap;" parent="17" vertex="1">
          <mxGeometry x="83" y="150" width="50" height="30" as="geometry" />
        </mxCell>
        <mxCell id="37" value="&lt;div style=&quot;font-size: 1px&quot;&gt;&lt;font style=&quot;font-size:11.64px;font-family:Helvetica;color:#000000;direction:ltr;letter-spacing:0px;line-height:120%;opacity:1&quot;&gt;LSTM&lt;/font&gt;&lt;/div&gt;" style="verticalAlign=middle;align=center;overflow=width;vsdxID=33;fillColor=#ffffff;gradientColor=none;shape=stencil(nZBRDoQgDERP03+WHsHFe5iISyOCQdT19kIaIxq//Jtp3zTpAFaTaUYNUkwx+F6v1EYD+AUpyRkdKCYFqACrzgf9C352LfuxyWRWg1/yhT/nRE5IsZWuZtCSK8CPeI0e/hF+jV7AJM4PO7KWCyr390bSiNtEtQM=);strokeColor=#000000;spacingTop=-3;spacingBottom=-3;spacingLeft=-3;spacingRight=-3;points=[];labelBackgroundColor=none;rounded=0;html=1;whiteSpace=wrap;" parent="35" vertex="1">
          <mxGeometry width="50" height="30" as="geometry" />
        </mxCell>
        <UserObject label="" tags="Background" id="172">
          <mxCell style="vsdxID=34;edgeStyle=none;startArrow=none;endArrow=classic;startSize=5;endSize=5;strokeColor=#000000;spacingTop=0;spacingBottom=0;spacingLeft=0;spacingRight=0;verticalAlign=middle;html=1;labelBackgroundColor=#ffffff;rounded=0;" parent="35" edge="1">
            <mxGeometry relative="1" as="geometry">
              <mxPoint x="16" y="102" as="offset" />
              <Array as="points" />
              <mxPoint x="39" y="6" as="sourcePoint" />
              <mxPoint x="8" y="6" as="targetPoint" />
            </mxGeometry>
          </mxCell>
        </UserObject>
        <mxCell id="38" style="vsdxID=3510000;fillColor=none;gradientColor=none;strokeColor=none;spacingTop=-3;spacingBottom=-3;spacingLeft=-3;spacingRight=-3;points=[];labelBackgroundColor=none;rounded=0;html=1;whiteSpace=wrap;" parent="17" vertex="1">
          <mxGeometry x="83" y="200" width="50" height="30" as="geometry" />
        </mxCell>
        <mxCell id="40" value="&lt;div style=&quot;font-size: 1px&quot;&gt;&lt;font style=&quot;font-size:11.64px;font-family:Helvetica;color:#000000;direction:ltr;letter-spacing:0px;line-height:120%;opacity:1&quot;&gt;LSTM&lt;/font&gt;&lt;/div&gt;" style="verticalAlign=middle;align=center;overflow=width;vsdxID=36;fillColor=#ffffff;gradientColor=none;shape=stencil(nZBRDoQgDERP03+WHsHFe5iISyOCQdT19kIaIxq//Jtp3zTpAFaTaUYNUkwx+F6v1EYD+AUpyRkdKCYFqACrzgf9C352LfuxyWRWg1/yhT/nRE5IsZWuZtCSK8CPeI0e/hF+jV7AJM4PO7KWCyr390bSiNtEtQM=);strokeColor=#000000;spacingTop=-3;spacingBottom=-3;spacingLeft=-3;spacingRight=-3;points=[];labelBackgroundColor=none;rounded=0;html=1;whiteSpace=wrap;" parent="38" vertex="1">
          <mxGeometry width="50" height="30" as="geometry" />
        </mxCell>
        <UserObject label="" tags="Background" id="173">
          <mxCell style="vsdxID=37;edgeStyle=none;startArrow=none;endArrow=classic;startSize=5;endSize=5;strokeColor=#000000;spacingTop=0;spacingBottom=0;spacingLeft=0;spacingRight=0;verticalAlign=middle;html=1;labelBackgroundColor=#ffffff;rounded=0;" parent="38" edge="1">
            <mxGeometry relative="1" as="geometry">
              <mxPoint x="16" y="102" as="offset" />
              <Array as="points" />
              <mxPoint x="39" y="6" as="sourcePoint" />
              <mxPoint x="8" y="6" as="targetPoint" />
            </mxGeometry>
          </mxCell>
        </UserObject>
        <mxCell id="41" style="vsdxID=3810000;fillColor=none;gradientColor=none;strokeColor=none;spacingTop=-3;spacingBottom=-3;spacingLeft=-3;spacingRight=-3;points=[];labelBackgroundColor=none;rounded=0;html=1;whiteSpace=wrap;" parent="17" vertex="1">
          <mxGeometry x="7" y="10" width="50" height="30" as="geometry" />
        </mxCell>
        <mxCell id="43" value="&lt;div style=&quot;font-size: 1px&quot;&gt;&lt;font style=&quot;font-size:11.64px;font-family:Helvetica;color:#000000;direction:ltr;letter-spacing:0px;line-height:120%;opacity:1&quot;&gt;LSTM&lt;/font&gt;&lt;/div&gt;" style="verticalAlign=middle;align=center;overflow=width;vsdxID=39;fillColor=#ffffff;gradientColor=none;shape=stencil(nZBRDoQgDERP03+WHsHFe5iISyOCQdT19kIaIxq//Jtp3zTpAFaTaUYNUkwx+F6v1EYD+AUpyRkdKCYFqACrzgf9C352LfuxyWRWg1/yhT/nRE5IsZWuZtCSK8CPeI0e/hF+jV7AJM4PO7KWCyr390bSiNtEtQM=);strokeColor=#000000;spacingTop=-3;spacingBottom=-3;spacingLeft=-3;spacingRight=-3;points=[];labelBackgroundColor=none;rounded=0;html=1;whiteSpace=wrap;" parent="41" vertex="1">
          <mxGeometry width="50" height="30" as="geometry" />
        </mxCell>
        <UserObject label="" tags="Background" id="174">
          <mxCell style="vsdxID=40;edgeStyle=none;startArrow=none;endArrow=classic;startSize=5;endSize=5;strokeColor=#000000;spacingTop=0;spacingBottom=0;spacingLeft=0;spacingRight=0;verticalAlign=middle;html=1;labelBackgroundColor=#ffffff;rounded=0;" parent="41" edge="1">
            <mxGeometry relative="1" as="geometry">
              <mxPoint x="-20" y="102" as="offset" />
              <Array as="points" />
              <mxPoint x="7" y="6" as="sourcePoint" />
              <mxPoint x="46" y="6" as="targetPoint" />
            </mxGeometry>
          </mxCell>
        </UserObject>
        <mxCell id="44" value="&lt;div style=&quot;font-size: 1px&quot;&gt;&lt;font style=&quot;font-size:11.64px;font-family:Helvetica;color:#000000;direction:ltr;letter-spacing:0px;line-height:120%;opacity:1&quot;&gt;...&lt;/font&gt;&lt;/div&gt;" style="verticalAlign=middle;align=center;overflow=width;vsdxID=41;fillColor=none;gradientColor=none;shape=stencil(nZBRDoQgDERP03+WHsHFe5iISyOCQdT19kIaIxq//Jtp3zTpAFaTaUYNUkwx+F6v1EYD+AUpyRkdKCYFqACrzgf9C352LfuxyWRWg1/yhT/nRE5IsZWuZtCSK8CPeI0e/hF+jV7AJM4PO7KWCyr390bSiNtEtQM=);strokeColor=none;spacingTop=-3;spacingBottom=-3;spacingLeft=-3;spacingRight=-3;points=[];labelBackgroundColor=none;rounded=0;html=1;whiteSpace=wrap;" parent="17" vertex="1">
          <mxGeometry x="93" y="108" width="30" height="30" as="geometry" />
        </mxCell>
        <mxCell id="45" value="&lt;div style=&quot;font-size: 1px&quot;&gt;&lt;font style=&quot;font-size:11.64px;font-family:Helvetica;color:#000000;direction:ltr;letter-spacing:0px;line-height:120%;opacity:1&quot;&gt;...&lt;/font&gt;&lt;/div&gt;" style="verticalAlign=middle;align=center;overflow=width;vsdxID=42;fillColor=none;gradientColor=none;shape=stencil(nZBRDoQgDERP03+WHsHFe5iISyOCQdT19kIaIxq//Jtp3zTpAFaTaUYNUkwx+F6v1EYD+AUpyRkdKCYFqACrzgf9C352LfuxyWRWg1/yhT/nRE5IsZWuZtCSK8CPeI0e/hF+jV7AJM4PO7KWCyr390bSiNtEtQM=);strokeColor=none;spacingTop=-3;spacingBottom=-3;spacingLeft=-3;spacingRight=-3;points=[];labelBackgroundColor=none;rounded=0;html=1;whiteSpace=wrap;" parent="17" vertex="1">
          <mxGeometry x="17" y="97" width="30" height="30" as="geometry" />
        </mxCell>
        <UserObject label="" tags="Background" id="111">
          <mxCell style="vsdxID=43;edgeStyle=none;startArrow=none;endArrow=classic;startSize=5;endSize=5;strokeColor=#000000;spacingTop=0;spacingBottom=0;spacingLeft=0;spacingRight=0;verticalAlign=middle;html=1;labelBackgroundColor=#ffffff;rounded=0;exitX=0.5;exitY=1;exitDx=0;exitDy=0;exitPerimeter=0;entryX=0.5;entryY=0;entryDx=0;entryDy=0;entryPerimeter=0;" parent="17" source="43" target="22" edge="1">
            <mxGeometry relative="1" as="geometry">
              <mxPoint y="111" as="offset" />
              <Array as="points" />
            </mxGeometry>
          </mxCell>
        </UserObject>
        <UserObject label="" tags="Background" id="112">
          <mxCell style="vsdxID=47;edgeStyle=none;startArrow=none;endArrow=classic;startSize=5;endSize=5;strokeColor=#000000;spacingTop=0;spacingBottom=0;spacingLeft=0;spacingRight=0;verticalAlign=middle;html=1;labelBackgroundColor=#ffffff;rounded=0;exitX=0.5;exitY=1;exitDx=0;exitDy=0;exitPerimeter=0;entryX=0.2191780821917808;entryY=0.7916666666666666;entryDx=0;entryDy=0;entryPerimeter=0;" parent="17" source="25" target="19" edge="1">
            <mxGeometry relative="1" as="geometry">
              <mxPoint x="-1" y="111" as="offset" />
              <Array as="points" />
            </mxGeometry>
          </mxCell>
        </UserObject>
        <UserObject label="" tags="Background" id="113">
          <mxCell style="vsdxID=48;edgeStyle=none;startArrow=none;endArrow=classic;startSize=5;endSize=5;strokeColor=#000000;spacingTop=0;spacingBottom=0;spacingLeft=0;spacingRight=0;verticalAlign=middle;html=1;labelBackgroundColor=#ffffff;rounded=0;exitX=0.5;exitY=0;exitDx=0;exitDy=0;exitPerimeter=0;entryX=0.5;entryY=1;entryDx=0;entryDy=0;entryPerimeter=0;" parent="17" source="34" target="31" edge="1">
            <mxGeometry relative="1" as="geometry">
              <mxPoint y="111" as="offset" />
              <Array as="points" />
            </mxGeometry>
          </mxCell>
        </UserObject>
        <UserObject label="" tags="Background" id="114">
          <mxCell style="vsdxID=49;edgeStyle=none;startArrow=none;endArrow=classic;startSize=5;endSize=5;strokeColor=#000000;spacingTop=0;spacingBottom=0;spacingLeft=0;spacingRight=0;verticalAlign=middle;html=1;labelBackgroundColor=#ffffff;rounded=0;exitX=0.5;exitY=0;exitDx=0;exitDy=0;exitPerimeter=0;entryX=0.5;entryY=1;entryDx=0;entryDy=0;entryPerimeter=0;" parent="17" source="40" target="37" edge="1">
            <mxGeometry relative="1" as="geometry">
              <mxPoint y="111" as="offset" />
              <Array as="points" />
            </mxGeometry>
          </mxCell>
        </UserObject>
        <UserObject label="" tags="Background" id="175">
          <mxCell style="vsdxID=44;edgeStyle=none;startArrow=none;endArrow=classic;startSize=5;endSize=5;strokeColor=#000000;spacingTop=0;spacingBottom=0;spacingLeft=0;spacingRight=0;verticalAlign=middle;html=1;labelBackgroundColor=#ffffff;rounded=0;" parent="17" edge="1">
            <mxGeometry relative="1" as="geometry">
              <mxPoint y="111" as="offset" />
              <Array as="points" />
              <mxPoint x="31" y="120" as="sourcePoint" />
              <mxPoint x="31" y="140" as="targetPoint" />
            </mxGeometry>
          </mxCell>
        </UserObject>
        <UserObject label="" tags="Background" id="176">
          <mxCell style="vsdxID=45;edgeStyle=none;startArrow=none;endArrow=classic;startSize=5;endSize=5;strokeColor=#000000;spacingTop=0;spacingBottom=0;spacingLeft=0;spacingRight=0;verticalAlign=middle;html=1;labelBackgroundColor=#ffffff;rounded=0;" parent="17" edge="1">
            <mxGeometry relative="1" as="geometry">
              <mxPoint y="111" as="offset" />
              <Array as="points" />
              <mxPoint x="31" y="90" as="sourcePoint" />
              <mxPoint x="31" y="109" as="targetPoint" />
            </mxGeometry>
          </mxCell>
        </UserObject>
        <UserObject label="" tags="Background" id="177">
          <mxCell style="vsdxID=46;edgeStyle=none;startArrow=none;endArrow=classic;startSize=5;endSize=5;strokeColor=#000000;spacingTop=0;spacingBottom=0;spacingLeft=0;spacingRight=0;verticalAlign=middle;html=1;labelBackgroundColor=#ffffff;rounded=0;" parent="17" edge="1">
            <mxGeometry relative="1" as="geometry">
              <mxPoint y="111" as="offset" />
              <Array as="points" />
              <mxPoint x="107" y="120" as="sourcePoint" />
              <mxPoint x="107" y="100" as="targetPoint" />
            </mxGeometry>
          </mxCell>
        </UserObject>
        <UserObject label="" tags="Background" id="178">
          <mxCell style="vsdxID=50;edgeStyle=none;startArrow=none;endArrow=classic;startSize=5;endSize=5;strokeColor=#000000;spacingTop=0;spacingBottom=0;spacingLeft=0;spacingRight=0;verticalAlign=middle;html=1;labelBackgroundColor=#ffffff;rounded=0;" parent="17" edge="1">
            <mxGeometry relative="1" as="geometry">
              <mxPoint y="111" as="offset" />
              <Array as="points" />
              <mxPoint x="107" y="150" as="sourcePoint" />
              <mxPoint x="107" y="129" as="targetPoint" />
            </mxGeometry>
          </mxCell>
        </UserObject>
        <UserObject label="" tags="Background" id="179">
          <mxCell style="vsdxID=52;edgeStyle=none;startArrow=none;endArrow=classic;startSize=5;endSize=5;strokeColor=#000000;spacingTop=0;spacingBottom=0;spacingLeft=0;spacingRight=0;verticalAlign=middle;html=1;labelBackgroundColor=#ffffff;rounded=0;" parent="1" edge="1">
            <mxGeometry relative="1" as="geometry">
              <mxPoint x="-34" y="102" as="offset" />
              <Array as="points" />
              <mxPoint x="1060" y="133" as="sourcePoint" />
              <mxPoint x="1127" y="133" as="targetPoint" />
            </mxGeometry>
          </mxCell>
        </UserObject>
        <UserObject label="" tags="Background" id="180">
          <mxCell style="vsdxID=53;edgeStyle=none;startArrow=none;endArrow=classic;startSize=5;endSize=5;strokeColor=#000000;spacingTop=0;spacingBottom=0;spacingLeft=0;spacingRight=0;verticalAlign=middle;html=1;labelBackgroundColor=#ffffff;rounded=0;" parent="1" edge="1">
            <mxGeometry relative="1" as="geometry">
              <mxPoint x="-31" y="102" as="offset" />
              <Array as="points" />
              <mxPoint x="1067" y="180" as="sourcePoint" />
              <mxPoint x="1128" y="179" as="targetPoint" />
            </mxGeometry>
          </mxCell>
        </UserObject>
        <UserObject label="" tags="Background" id="181">
          <mxCell style="vsdxID=54;edgeStyle=none;startArrow=none;endArrow=classic;startSize=5;endSize=5;strokeColor=#000000;spacingTop=0;spacingBottom=0;spacingLeft=0;spacingRight=0;verticalAlign=middle;html=1;labelBackgroundColor=#ffffff;rounded=0;" parent="1" edge="1">
            <mxGeometry relative="1" as="geometry">
              <mxPoint x="-30" y="102" as="offset" />
              <Array as="points" />
              <mxPoint x="1069" y="220" as="sourcePoint" />
              <mxPoint x="1129" y="220" as="targetPoint" />
            </mxGeometry>
          </mxCell>
        </UserObject>
        <UserObject label="&lt;div style=&quot;font-size: 1px&quot;&gt;&lt;font style=&quot;font-size:11.64px;font-family:Helvetica;color:#000000;direction:ltr;letter-spacing:0px;line-height:120%;opacity:1&quot;&gt;Reshape&lt;/font&gt;&lt;/div&gt;" tags="Background" id="46">
          <mxCell style="verticalAlign=middle;align=center;overflow=width;vsdxID=56;rotation=270;fillColor=#ffffff;gradientColor=none;shape=stencil(nZBRDoQgDERP03+WHsHFe5iISyOCQdT19kIaIxq//Jtp3zTpAFaTaUYNUkwx+F6v1EYD+AUpyRkdKCYFqACrzgf9C352LfuxyWRWg1/yhT/nRE5IsZWuZtCSK8CPeI0e/hF+jV7AJM4PO7KWCyr390bSiNtEtQM=);strokeColor=#000000;spacingTop=-3;spacingBottom=-3;spacingLeft=-3;spacingRight=-3;points=[];labelBackgroundColor=none;rounded=0;html=1;whiteSpace=wrap;" parent="1" vertex="1">
            <mxGeometry x="1257" y="185" width="121" height="28" as="geometry" />
          </mxCell>
        </UserObject>
        <UserObject label="" tags="Background" id="47">
          <mxCell style="vsdxID=5810000;fillColor=none;gradientColor=none;strokeColor=none;spacingTop=-3;spacingBottom=-3;spacingLeft=-3;spacingRight=-3;points=[];labelBackgroundColor=none;rounded=0;html=1;whiteSpace=wrap;" parent="1" vertex="1">
            <mxGeometry x="1377" y="80" width="60" height="241" as="geometry" />
          </mxCell>
        </UserObject>
        <mxCell id="49" style="vsdxID=59;rotation=270;fillColor=#ffffff;gradientColor=none;shape=stencil(nZBRDoQgDERP03+WHsHFe5iISyOCQdT19kIaIxq//Jtp3zTpAFaTaUYNUkwx+F6v1EYD+AUpyRkdKCYFqACrzgf9C352LfuxyWRWg1/yhT/nRE5IsZWuZtCSK8CPeI0e/hF+jV7AJM4PO7KWCyr390bSiNtEtQM=);strokeColor=#000000;spacingTop=-3;spacingBottom=-3;spacingLeft=-3;spacingRight=-3;points=[];labelBackgroundColor=none;rounded=0;html=1;whiteSpace=wrap;" parent="47" vertex="1">
          <mxGeometry x="-71" y="110" width="221" height="40" as="geometry" />
        </mxCell>
        <mxCell id="50" style="vsdxID=60;rotation=270;fillColor=#ffffff;gradientColor=none;shape=stencil(nZBRDoQgDERP03+WHsHFe5iISyOCQdT19kIaIxq//Jtp3zTpAFaTaUYNUkwx+F6v1EYD+AUpyRkdKCYFqACrzgf9C352LfuxyWRWg1/yhT/nRE5IsZWuZtCSK8CPeI0e/hF+jV7AJM4PO7KWCyr390bSiNtEtQM=);strokeColor=#000000;spacingTop=-3;spacingBottom=-3;spacingLeft=-3;spacingRight=-3;points=[];labelBackgroundColor=none;rounded=0;html=1;whiteSpace=wrap;" parent="47" vertex="1">
          <mxGeometry x="-81" y="100" width="221" height="40" as="geometry" />
        </mxCell>
        <mxCell id="51" value="&lt;div style=&quot;font-size: 1px&quot;&gt;&lt;font style=&quot;font-size:11.64px;font-family:Helvetica;color:#000000;direction:ltr;letter-spacing:0px;line-height:120%;opacity:1&quot;&gt;1D CNN&lt;/font&gt;&lt;/div&gt;" style="verticalAlign=middle;align=center;overflow=width;vsdxID=61;rotation=270;fillColor=#ffffff;gradientColor=none;shape=stencil(nZBRDoQgDERP03+WHsHFe5iISyOCQdT19kIaIxq//Jtp3zTpAFaTaUYNUkwx+F6v1EYD+AUpyRkdKCYFqACrzgf9C352LfuxyWRWg1/yhT/nRE5IsZWuZtCSK8CPeI0e/hF+jV7AJM4PO7KWCyr390bSiNtEtQM=);strokeColor=#000000;spacingTop=-3;spacingBottom=-3;spacingLeft=-3;spacingRight=-3;points=[];labelBackgroundColor=none;rounded=0;html=1;whiteSpace=wrap;" parent="47" vertex="1">
          <mxGeometry x="-91" y="90" width="221" height="40" as="geometry" />
        </mxCell>
        <UserObject label="" tags="Background" id="52">
          <mxCell style="vsdxID=6210000;fillColor=none;gradientColor=none;strokeColor=none;spacingTop=-3;spacingBottom=-3;spacingLeft=-3;spacingRight=-3;points=[];labelBackgroundColor=none;rounded=0;html=1;whiteSpace=wrap;" parent="1" vertex="1">
            <mxGeometry x="1487" y="110" width="39" height="200" as="geometry" />
          </mxCell>
        </UserObject>
        <mxCell id="54" style="vsdxID=63;rotation=270;fillColor=#ffffff;gradientColor=none;shape=stencil(nZBRDoQgDERP03+WHsHFe5iISyOCQdT19kIaIxq//Jtp3zTpAFaTaUYNUkwx+F6v1EYD+AUpyRkdKCYFqACrzgf9C352LfuxyWRWg1/yhT/nRE5IsZWuZtCSK8CPeI0e/hF+jV7AJM4PO7KWCyr390bSiNtEtQM=);strokeColor=#000000;spacingTop=-3;spacingBottom=-3;spacingLeft=-3;spacingRight=-3;points=[];labelBackgroundColor=none;rounded=0;html=1;whiteSpace=wrap;" parent="52" vertex="1">
          <mxGeometry x="-47" y="91" width="145" height="33" as="geometry" />
        </mxCell>
        <mxCell id="55" style="vsdxID=64;rotation=270;fillColor=#ffffff;gradientColor=none;shape=stencil(nZBRDoQgDERP03+WHsHFe5iISyOCQdT19kIaIxq//Jtp3zTpAFaTaUYNUkwx+F6v1EYD+AUpyRkdKCYFqACrzgf9C352LfuxyWRWg1/yhT/nRE5IsZWuZtCSK8CPeI0e/hF+jV7AJM4PO7KWCyr390bSiNtEtQM=);strokeColor=#000000;spacingTop=-3;spacingBottom=-3;spacingLeft=-3;spacingRight=-3;points=[];labelBackgroundColor=none;rounded=0;html=1;whiteSpace=wrap;" parent="52" vertex="1">
          <mxGeometry x="-53" y="83" width="145" height="33" as="geometry" />
        </mxCell>
        <mxCell id="56" value="&lt;div style=&quot;font-size: 1px&quot;&gt;&lt;font style=&quot;font-size:11.64px;font-family:Helvetica;color:#000000;direction:ltr;letter-spacing:0px;line-height:120%;opacity:1&quot;&gt;1D Max Pooling&lt;/font&gt;&lt;/div&gt;" style="verticalAlign=middle;align=center;overflow=width;vsdxID=65;rotation=270;fillColor=#ffffff;gradientColor=none;shape=stencil(nZBRDoQgDERP03+WHsHFe5iISyOCQdT19kIaIxq//Jtp3zTpAFaTaUYNUkwx+F6v1EYD+AUpyRkdKCYFqACrzgf9C352LfuxyWRWg1/yhT/nRE5IsZWuZtCSK8CPeI0e/hF+jV7AJM4PO7KWCyr390bSiNtEtQM=);strokeColor=#000000;spacingTop=-3;spacingBottom=-3;spacingLeft=-3;spacingRight=-3;points=[];labelBackgroundColor=none;rounded=0;html=1;whiteSpace=wrap;" parent="52" vertex="1">
          <mxGeometry x="-60" y="75" width="145" height="33" as="geometry" />
        </mxCell>
        <UserObject label="" tags="Background" id="57">
          <mxCell style="vsdxID=6910000;fillColor=none;gradientColor=none;strokeColor=none;spacingTop=-3;spacingBottom=-3;spacingLeft=-3;spacingRight=-3;points=[];labelBackgroundColor=none;rounded=0;html=1;whiteSpace=wrap;" parent="1" vertex="1">
            <mxGeometry x="1589" y="89" width="146" height="240" as="geometry" />
          </mxCell>
        </UserObject>
        <mxCell id="59" style="vsdxID=70;fillColor=#ffffff;gradientColor=none;shape=stencil(nZDBDsIgEES/Zq8GlpPnWn/ALyCyykaEhqJVv17ajQkaT73tzLzJJgOmG70dCFCNJacLTeyKB7MDRI6eMpd6genBdKeU6ZzTLTrRg60kqsUhJx0906hsPh74ReKh3mzFlt413ed/D0mVRM9W7QUMHBtQq9XoR/+FV6NfYD2WPWQpDkHmbPPf/aol25v+DQ==);strokeColor=#000000;spacingTop=-3;spacingBottom=-3;spacingLeft=-3;spacingRight=-3;points=[];labelBackgroundColor=none;rounded=1;html=1;whiteSpace=wrap;" parent="57" vertex="1">
          <mxGeometry width="146" height="240" as="geometry" />
        </mxCell>
        <mxCell id="60" style="vsdxID=7110000;fillColor=none;gradientColor=none;strokeColor=none;spacingTop=-3;spacingBottom=-3;spacingLeft=-3;spacingRight=-3;points=[];labelBackgroundColor=none;rounded=0;html=1;whiteSpace=wrap;" parent="57" vertex="1">
          <mxGeometry x="7" y="60" width="50" height="30" as="geometry" />
        </mxCell>
        <mxCell id="62" value="&lt;div style=&quot;font-size: 1px&quot;&gt;&lt;font style=&quot;font-size:11.64px;font-family:Helvetica;color:#000000;direction:ltr;letter-spacing:0px;line-height:120%;opacity:1&quot;&gt;LSTM&lt;/font&gt;&lt;/div&gt;" style="verticalAlign=middle;align=center;overflow=width;vsdxID=72;fillColor=#ffffff;gradientColor=none;shape=stencil(nZBRDoQgDERP03+WHsHFe5iISyOCQdT19kIaIxq//Jtp3zTpAFaTaUYNUkwx+F6v1EYD+AUpyRkdKCYFqACrzgf9C352LfuxyWRWg1/yhT/nRE5IsZWuZtCSK8CPeI0e/hF+jV7AJM4PO7KWCyr390bSiNtEtQM=);strokeColor=#000000;spacingTop=-3;spacingBottom=-3;spacingLeft=-3;spacingRight=-3;points=[];labelBackgroundColor=none;rounded=0;html=1;whiteSpace=wrap;" parent="60" vertex="1">
          <mxGeometry width="50" height="30" as="geometry" />
        </mxCell>
        <UserObject label="" tags="Background" id="182">
          <mxCell style="vsdxID=73;edgeStyle=none;startArrow=none;endArrow=classic;startSize=5;endSize=5;strokeColor=#000000;spacingTop=0;spacingBottom=0;spacingLeft=0;spacingRight=0;verticalAlign=middle;html=1;labelBackgroundColor=#ffffff;rounded=0;" parent="60" edge="1">
            <mxGeometry relative="1" as="geometry">
              <mxPoint x="-20" y="102" as="offset" />
              <Array as="points" />
              <mxPoint x="5" y="6" as="sourcePoint" />
              <mxPoint x="44" y="6" as="targetPoint" />
            </mxGeometry>
          </mxCell>
        </UserObject>
        <mxCell id="63" style="vsdxID=7410000;fillColor=none;gradientColor=none;strokeColor=none;spacingTop=-3;spacingBottom=-3;spacingLeft=-3;spacingRight=-3;points=[];labelBackgroundColor=none;rounded=0;html=1;whiteSpace=wrap;" parent="57" vertex="1">
          <mxGeometry x="7" y="140" width="50" height="30" as="geometry" />
        </mxCell>
        <mxCell id="65" value="&lt;div style=&quot;font-size: 1px&quot;&gt;&lt;font style=&quot;font-size:11.64px;font-family:Helvetica;color:#000000;direction:ltr;letter-spacing:0px;line-height:120%;opacity:1&quot;&gt;LSTM&lt;/font&gt;&lt;/div&gt;" style="verticalAlign=middle;align=center;overflow=width;vsdxID=75;fillColor=#ffffff;gradientColor=none;shape=stencil(nZBRDoQgDERP03+WHsHFe5iISyOCQdT19kIaIxq//Jtp3zTpAFaTaUYNUkwx+F6v1EYD+AUpyRkdKCYFqACrzgf9C352LfuxyWRWg1/yhT/nRE5IsZWuZtCSK8CPeI0e/hF+jV7AJM4PO7KWCyr390bSiNtEtQM=);strokeColor=#000000;spacingTop=-3;spacingBottom=-3;spacingLeft=-3;spacingRight=-3;points=[];labelBackgroundColor=none;rounded=0;html=1;whiteSpace=wrap;" parent="63" vertex="1">
          <mxGeometry width="50" height="30" as="geometry" />
        </mxCell>
        <UserObject label="" tags="Background" id="183">
          <mxCell style="vsdxID=76;edgeStyle=none;startArrow=none;endArrow=classic;startSize=5;endSize=5;strokeColor=#000000;spacingTop=0;spacingBottom=0;spacingLeft=0;spacingRight=0;verticalAlign=middle;html=1;labelBackgroundColor=#ffffff;rounded=0;" parent="63" edge="1">
            <mxGeometry relative="1" as="geometry">
              <mxPoint x="-20" y="102" as="offset" />
              <Array as="points" />
              <mxPoint x="5" y="6" as="sourcePoint" />
              <mxPoint x="44" y="6" as="targetPoint" />
            </mxGeometry>
          </mxCell>
        </UserObject>
        <mxCell id="66" style="vsdxID=7710000;fillColor=none;gradientColor=none;strokeColor=none;spacingTop=-3;spacingBottom=-3;spacingLeft=-3;spacingRight=-3;points=[];labelBackgroundColor=none;rounded=0;html=1;whiteSpace=wrap;" parent="57" vertex="1">
          <mxGeometry x="7" y="190" width="50" height="30" as="geometry" />
        </mxCell>
        <mxCell id="68" value="&lt;div style=&quot;font-size: 1px&quot;&gt;&lt;font style=&quot;font-size:11.64px;font-family:Helvetica;color:#000000;direction:ltr;letter-spacing:0px;line-height:120%;opacity:1&quot;&gt;LSTM&lt;/font&gt;&lt;/div&gt;" style="verticalAlign=middle;align=center;overflow=width;vsdxID=78;fillColor=#ffffff;gradientColor=none;shape=stencil(nZBRDoQgDERP03+WHsHFe5iISyOCQdT19kIaIxq//Jtp3zTpAFaTaUYNUkwx+F6v1EYD+AUpyRkdKCYFqACrzgf9C352LfuxyWRWg1/yhT/nRE5IsZWuZtCSK8CPeI0e/hF+jV7AJM4PO7KWCyr390bSiNtEtQM=);strokeColor=#000000;spacingTop=-3;spacingBottom=-3;spacingLeft=-3;spacingRight=-3;points=[];labelBackgroundColor=none;rounded=0;html=1;whiteSpace=wrap;" parent="66" vertex="1">
          <mxGeometry width="50" height="30" as="geometry" />
        </mxCell>
        <UserObject label="" tags="Background" id="184">
          <mxCell style="vsdxID=79;edgeStyle=none;startArrow=none;endArrow=classic;startSize=5;endSize=5;strokeColor=#000000;spacingTop=0;spacingBottom=0;spacingLeft=0;spacingRight=0;verticalAlign=middle;html=1;labelBackgroundColor=#ffffff;rounded=0;" parent="66" edge="1">
            <mxGeometry relative="1" as="geometry">
              <mxPoint x="-20" y="102" as="offset" />
              <Array as="points" />
              <mxPoint x="5" y="6" as="sourcePoint" />
              <mxPoint x="44" y="6" as="targetPoint" />
            </mxGeometry>
          </mxCell>
        </UserObject>
        <mxCell id="69" style="vsdxID=8010000;fillColor=none;gradientColor=none;strokeColor=none;spacingTop=-3;spacingBottom=-3;spacingLeft=-3;spacingRight=-3;points=[];labelBackgroundColor=none;rounded=0;html=1;whiteSpace=wrap;" parent="57" vertex="1">
          <mxGeometry x="83" y="20" width="50" height="30" as="geometry" />
        </mxCell>
        <mxCell id="71" value="&lt;div style=&quot;font-size: 1px&quot;&gt;&lt;font style=&quot;font-size:11.64px;font-family:Helvetica;color:#000000;direction:ltr;letter-spacing:0px;line-height:120%;opacity:1&quot;&gt;LSTM&lt;/font&gt;&lt;/div&gt;" style="verticalAlign=middle;align=center;overflow=width;vsdxID=81;fillColor=#ffffff;gradientColor=none;shape=stencil(nZBRDoQgDERP03+WHsHFe5iISyOCQdT19kIaIxq//Jtp3zTpAFaTaUYNUkwx+F6v1EYD+AUpyRkdKCYFqACrzgf9C352LfuxyWRWg1/yhT/nRE5IsZWuZtCSK8CPeI0e/hF+jV7AJM4PO7KWCyr390bSiNtEtQM=);strokeColor=#000000;spacingTop=-3;spacingBottom=-3;spacingLeft=-3;spacingRight=-3;points=[];labelBackgroundColor=none;rounded=0;html=1;whiteSpace=wrap;" parent="69" vertex="1">
          <mxGeometry width="50" height="30" as="geometry" />
        </mxCell>
        <UserObject label="" tags="Background" id="185">
          <mxCell style="vsdxID=82;edgeStyle=none;startArrow=none;endArrow=classic;startSize=5;endSize=5;strokeColor=#000000;spacingTop=0;spacingBottom=0;spacingLeft=0;spacingRight=0;verticalAlign=middle;html=1;labelBackgroundColor=#ffffff;rounded=0;" parent="69" edge="1">
            <mxGeometry relative="1" as="geometry">
              <mxPoint x="16" y="102" as="offset" />
              <Array as="points" />
              <mxPoint x="39" y="6" as="sourcePoint" />
              <mxPoint x="8" y="6" as="targetPoint" />
            </mxGeometry>
          </mxCell>
        </UserObject>
        <mxCell id="72" style="vsdxID=8310000;fillColor=none;gradientColor=none;strokeColor=none;spacingTop=-3;spacingBottom=-3;spacingLeft=-3;spacingRight=-3;points=[];labelBackgroundColor=none;rounded=0;html=1;whiteSpace=wrap;" parent="57" vertex="1">
          <mxGeometry x="83" y="70" width="50" height="30" as="geometry" />
        </mxCell>
        <mxCell id="74" value="&lt;div style=&quot;font-size: 1px&quot;&gt;&lt;font style=&quot;font-size:11.64px;font-family:Helvetica;color:#000000;direction:ltr;letter-spacing:0px;line-height:120%;opacity:1&quot;&gt;LSTM&lt;/font&gt;&lt;/div&gt;" style="verticalAlign=middle;align=center;overflow=width;vsdxID=84;fillColor=#ffffff;gradientColor=none;shape=stencil(nZBRDoQgDERP03+WHsHFe5iISyOCQdT19kIaIxq//Jtp3zTpAFaTaUYNUkwx+F6v1EYD+AUpyRkdKCYFqACrzgf9C352LfuxyWRWg1/yhT/nRE5IsZWuZtCSK8CPeI0e/hF+jV7AJM4PO7KWCyr390bSiNtEtQM=);strokeColor=#000000;spacingTop=-3;spacingBottom=-3;spacingLeft=-3;spacingRight=-3;points=[];labelBackgroundColor=none;rounded=0;html=1;whiteSpace=wrap;" parent="72" vertex="1">
          <mxGeometry width="50" height="30" as="geometry" />
        </mxCell>
        <UserObject label="" tags="Background" id="186">
          <mxCell style="vsdxID=85;edgeStyle=none;startArrow=none;endArrow=classic;startSize=5;endSize=5;strokeColor=#000000;spacingTop=0;spacingBottom=0;spacingLeft=0;spacingRight=0;verticalAlign=middle;html=1;labelBackgroundColor=#ffffff;rounded=0;" parent="72" edge="1">
            <mxGeometry relative="1" as="geometry">
              <mxPoint x="16" y="102" as="offset" />
              <Array as="points" />
              <mxPoint x="39" y="6" as="sourcePoint" />
              <mxPoint x="8" y="6" as="targetPoint" />
            </mxGeometry>
          </mxCell>
        </UserObject>
        <mxCell id="75" style="vsdxID=8610000;fillColor=none;gradientColor=none;strokeColor=none;spacingTop=-3;spacingBottom=-3;spacingLeft=-3;spacingRight=-3;points=[];labelBackgroundColor=none;rounded=0;html=1;whiteSpace=wrap;" parent="57" vertex="1">
          <mxGeometry x="83" y="150" width="50" height="30" as="geometry" />
        </mxCell>
        <mxCell id="77" value="&lt;div style=&quot;font-size: 1px&quot;&gt;&lt;font style=&quot;font-size:11.64px;font-family:Helvetica;color:#000000;direction:ltr;letter-spacing:0px;line-height:120%;opacity:1&quot;&gt;LSTM&lt;/font&gt;&lt;/div&gt;" style="verticalAlign=middle;align=center;overflow=width;vsdxID=87;fillColor=#ffffff;gradientColor=none;shape=stencil(nZBRDoQgDERP03+WHsHFe5iISyOCQdT19kIaIxq//Jtp3zTpAFaTaUYNUkwx+F6v1EYD+AUpyRkdKCYFqACrzgf9C352LfuxyWRWg1/yhT/nRE5IsZWuZtCSK8CPeI0e/hF+jV7AJM4PO7KWCyr390bSiNtEtQM=);strokeColor=#000000;spacingTop=-3;spacingBottom=-3;spacingLeft=-3;spacingRight=-3;points=[];labelBackgroundColor=none;rounded=0;html=1;whiteSpace=wrap;" parent="75" vertex="1">
          <mxGeometry width="50" height="30" as="geometry" />
        </mxCell>
        <UserObject label="" tags="Background" id="187">
          <mxCell style="vsdxID=88;edgeStyle=none;startArrow=none;endArrow=classic;startSize=5;endSize=5;strokeColor=#000000;spacingTop=0;spacingBottom=0;spacingLeft=0;spacingRight=0;verticalAlign=middle;html=1;labelBackgroundColor=#ffffff;rounded=0;" parent="75" edge="1">
            <mxGeometry relative="1" as="geometry">
              <mxPoint x="16" y="102" as="offset" />
              <Array as="points" />
              <mxPoint x="39" y="6" as="sourcePoint" />
              <mxPoint x="8" y="6" as="targetPoint" />
            </mxGeometry>
          </mxCell>
        </UserObject>
        <mxCell id="78" style="vsdxID=8910000;fillColor=none;gradientColor=none;strokeColor=none;spacingTop=-3;spacingBottom=-3;spacingLeft=-3;spacingRight=-3;points=[];labelBackgroundColor=none;rounded=0;html=1;whiteSpace=wrap;" parent="57" vertex="1">
          <mxGeometry x="83" y="200" width="50" height="30" as="geometry" />
        </mxCell>
        <mxCell id="80" value="&lt;div style=&quot;font-size: 1px&quot;&gt;&lt;font style=&quot;font-size:11.64px;font-family:Helvetica;color:#000000;direction:ltr;letter-spacing:0px;line-height:120%;opacity:1&quot;&gt;LSTM&lt;/font&gt;&lt;/div&gt;" style="verticalAlign=middle;align=center;overflow=width;vsdxID=90;fillColor=#ffffff;gradientColor=none;shape=stencil(nZBRDoQgDERP03+WHsHFe5iISyOCQdT19kIaIxq//Jtp3zTpAFaTaUYNUkwx+F6v1EYD+AUpyRkdKCYFqACrzgf9C352LfuxyWRWg1/yhT/nRE5IsZWuZtCSK8CPeI0e/hF+jV7AJM4PO7KWCyr390bSiNtEtQM=);strokeColor=#000000;spacingTop=-3;spacingBottom=-3;spacingLeft=-3;spacingRight=-3;points=[];labelBackgroundColor=none;rounded=0;html=1;whiteSpace=wrap;" parent="78" vertex="1">
          <mxGeometry width="50" height="30" as="geometry" />
        </mxCell>
        <UserObject label="" tags="Background" id="188">
          <mxCell style="vsdxID=91;edgeStyle=none;startArrow=none;endArrow=classic;startSize=5;endSize=5;strokeColor=#000000;spacingTop=0;spacingBottom=0;spacingLeft=0;spacingRight=0;verticalAlign=middle;html=1;labelBackgroundColor=#ffffff;rounded=0;" parent="78" edge="1">
            <mxGeometry relative="1" as="geometry">
              <mxPoint x="16" y="102" as="offset" />
              <Array as="points" />
              <mxPoint x="39" y="6" as="sourcePoint" />
              <mxPoint x="8" y="6" as="targetPoint" />
            </mxGeometry>
          </mxCell>
        </UserObject>
        <mxCell id="81" style="vsdxID=9210000;fillColor=none;gradientColor=none;strokeColor=none;spacingTop=-3;spacingBottom=-3;spacingLeft=-3;spacingRight=-3;points=[];labelBackgroundColor=none;rounded=0;html=1;whiteSpace=wrap;" parent="57" vertex="1">
          <mxGeometry x="7" y="10" width="50" height="30" as="geometry" />
        </mxCell>
        <mxCell id="83" value="&lt;div style=&quot;font-size: 1px&quot;&gt;&lt;font style=&quot;font-size:11.64px;font-family:Helvetica;color:#000000;direction:ltr;letter-spacing:0px;line-height:120%;opacity:1&quot;&gt;LSTM&lt;/font&gt;&lt;/div&gt;" style="verticalAlign=middle;align=center;overflow=width;vsdxID=93;fillColor=#ffffff;gradientColor=none;shape=stencil(nZBRDoQgDERP03+WHsHFe5iISyOCQdT19kIaIxq//Jtp3zTpAFaTaUYNUkwx+F6v1EYD+AUpyRkdKCYFqACrzgf9C352LfuxyWRWg1/yhT/nRE5IsZWuZtCSK8CPeI0e/hF+jV7AJM4PO7KWCyr390bSiNtEtQM=);strokeColor=#000000;spacingTop=-3;spacingBottom=-3;spacingLeft=-3;spacingRight=-3;points=[];labelBackgroundColor=none;rounded=0;html=1;whiteSpace=wrap;" parent="81" vertex="1">
          <mxGeometry width="50" height="30" as="geometry" />
        </mxCell>
        <UserObject label="" tags="Background" id="189">
          <mxCell style="vsdxID=94;edgeStyle=none;startArrow=none;endArrow=classic;startSize=5;endSize=5;strokeColor=#000000;spacingTop=0;spacingBottom=0;spacingLeft=0;spacingRight=0;verticalAlign=middle;html=1;labelBackgroundColor=#ffffff;rounded=0;" parent="81" edge="1">
            <mxGeometry relative="1" as="geometry">
              <mxPoint x="-20" y="102" as="offset" />
              <Array as="points" />
              <mxPoint x="7" y="6" as="sourcePoint" />
              <mxPoint x="46" y="6" as="targetPoint" />
            </mxGeometry>
          </mxCell>
        </UserObject>
        <mxCell id="84" value="&lt;div style=&quot;font-size: 1px&quot;&gt;&lt;font style=&quot;font-size:11.64px;font-family:Helvetica;color:#000000;direction:ltr;letter-spacing:0px;line-height:120%;opacity:1&quot;&gt;...&lt;/font&gt;&lt;/div&gt;" style="verticalAlign=middle;align=center;overflow=width;vsdxID=95;fillColor=none;gradientColor=none;shape=stencil(nZBRDoQgDERP03+WHsHFe5iISyOCQdT19kIaIxq//Jtp3zTpAFaTaUYNUkwx+F6v1EYD+AUpyRkdKCYFqACrzgf9C352LfuxyWRWg1/yhT/nRE5IsZWuZtCSK8CPeI0e/hF+jV7AJM4PO7KWCyr390bSiNtEtQM=);strokeColor=none;spacingTop=-3;spacingBottom=-3;spacingLeft=-3;spacingRight=-3;points=[];labelBackgroundColor=none;rounded=0;html=1;whiteSpace=wrap;" parent="57" vertex="1">
          <mxGeometry x="93" y="108" width="30" height="30" as="geometry" />
        </mxCell>
        <mxCell id="85" value="&lt;div style=&quot;font-size: 1px&quot;&gt;&lt;font style=&quot;font-size:11.64px;font-family:Helvetica;color:#000000;direction:ltr;letter-spacing:0px;line-height:120%;opacity:1&quot;&gt;...&lt;/font&gt;&lt;/div&gt;" style="verticalAlign=middle;align=center;overflow=width;vsdxID=96;fillColor=none;gradientColor=none;shape=stencil(nZBRDoQgDERP03+WHsHFe5iISyOCQdT19kIaIxq//Jtp3zTpAFaTaUYNUkwx+F6v1EYD+AUpyRkdKCYFqACrzgf9C352LfuxyWRWg1/yhT/nRE5IsZWuZtCSK8CPeI0e/hF+jV7AJM4PO7KWCyr390bSiNtEtQM=);strokeColor=none;spacingTop=-3;spacingBottom=-3;spacingLeft=-3;spacingRight=-3;points=[];labelBackgroundColor=none;rounded=0;html=1;whiteSpace=wrap;" parent="57" vertex="1">
          <mxGeometry x="17" y="97" width="30" height="30" as="geometry" />
        </mxCell>
        <mxCell id="86" style="vsdxID=10110000;fillColor=none;gradientColor=none;strokeColor=none;spacingTop=-3;spacingBottom=-3;spacingLeft=-3;spacingRight=-3;points=[];labelBackgroundColor=none;rounded=0;html=1;whiteSpace=wrap;" parent="57" vertex="1">
          <mxGeometry x="107" y="100" width="1" height="50" as="geometry" />
        </mxCell>
        <UserObject label="" tags="Background" id="126">
          <mxCell style="vsdxID=103;edgeStyle=none;startArrow=none;endArrow=classic;startSize=5;endSize=5;strokeColor=#000000;spacingTop=0;spacingBottom=0;spacingLeft=0;spacingRight=0;verticalAlign=middle;html=1;labelBackgroundColor=#ffffff;rounded=0;exitX=0.48;exitY=-0.03333333333333333;exitDx=0;exitDy=0;exitPerimeter=0;entryX=0.48;entryY=0.9666666666666667;entryDx=0;entryDy=0;entryPerimeter=0;" parent="86" source="74" target="71" edge="1">
            <mxGeometry relative="1" as="geometry">
              <mxPoint y="111" as="offset" />
              <Array as="points" />
            </mxGeometry>
          </mxCell>
        </UserObject>
        <UserObject label="" tags="Background" id="127">
          <mxCell style="vsdxID=104;edgeStyle=none;startArrow=none;endArrow=classic;startSize=5;endSize=5;strokeColor=#000000;spacingTop=0;spacingBottom=0;spacingLeft=0;spacingRight=0;verticalAlign=middle;html=1;labelBackgroundColor=#ffffff;rounded=0;exitX=0.48;exitY=-0.03333333333333333;exitDx=0;exitDy=0;exitPerimeter=0;entryX=0.48;entryY=0.9666666666666667;entryDx=0;entryDy=0;entryPerimeter=0;" parent="86" source="80" target="77" edge="1">
            <mxGeometry relative="1" as="geometry">
              <mxPoint y="111" as="offset" />
              <Array as="points" />
            </mxGeometry>
          </mxCell>
        </UserObject>
        <UserObject label="" tags="Background" id="192">
          <mxCell style="vsdxID=102;edgeStyle=none;startArrow=none;endArrow=classic;startSize=5;endSize=5;strokeColor=#000000;spacingTop=0;spacingBottom=0;spacingLeft=0;spacingRight=0;verticalAlign=middle;html=1;labelBackgroundColor=#ffffff;rounded=0;" parent="86" edge="1">
            <mxGeometry relative="1" as="geometry">
              <mxPoint y="111" as="offset" />
              <Array as="points" />
              <mxPoint y="20" as="sourcePoint" />
              <mxPoint y="-1" as="targetPoint" />
            </mxGeometry>
          </mxCell>
        </UserObject>
        <UserObject label="" tags="Background" id="193">
          <mxCell style="vsdxID=105;edgeStyle=none;startArrow=none;endArrow=classic;startSize=5;endSize=5;strokeColor=#000000;spacingTop=0;spacingBottom=0;spacingLeft=0;spacingRight=0;verticalAlign=middle;html=1;labelBackgroundColor=#ffffff;rounded=0;" parent="86" edge="1">
            <mxGeometry relative="1" as="geometry">
              <mxPoint y="111" as="offset" />
              <Array as="points" />
              <mxPoint y="50" as="sourcePoint" />
              <mxPoint y="29" as="targetPoint" />
            </mxGeometry>
          </mxCell>
        </UserObject>
        <UserObject label="" tags="Background" id="124">
          <mxCell style="vsdxID=97;edgeStyle=none;startArrow=none;endArrow=classic;startSize=5;endSize=5;strokeColor=#000000;spacingTop=0;spacingBottom=0;spacingLeft=0;spacingRight=0;verticalAlign=middle;html=1;labelBackgroundColor=#ffffff;rounded=0;exitX=0.5;exitY=1;exitDx=0;exitDy=0;exitPerimeter=0;entryX=0.5;entryY=0;entryDx=0;entryDy=0;entryPerimeter=0;" parent="57" source="83" target="62" edge="1">
            <mxGeometry relative="1" as="geometry">
              <mxPoint y="111" as="offset" />
              <Array as="points" />
            </mxGeometry>
          </mxCell>
        </UserObject>
        <UserObject label="" tags="Background" id="125">
          <mxCell style="vsdxID=100;edgeStyle=none;startArrow=none;endArrow=classic;startSize=5;endSize=5;strokeColor=#000000;spacingTop=0;spacingBottom=0;spacingLeft=0;spacingRight=0;verticalAlign=middle;html=1;labelBackgroundColor=#ffffff;rounded=0;exitX=0.5;exitY=1;exitDx=0;exitDy=0;exitPerimeter=0;entryX=0.2191780821917808;entryY=0.7916666666666666;entryDx=0;entryDy=0;entryPerimeter=0;" parent="57" source="65" target="59" edge="1">
            <mxGeometry relative="1" as="geometry">
              <mxPoint x="-1" y="111" as="offset" />
              <Array as="points" />
            </mxGeometry>
          </mxCell>
        </UserObject>
        <UserObject label="" tags="Background" id="190">
          <mxCell style="vsdxID=98;edgeStyle=none;startArrow=none;endArrow=classic;startSize=5;endSize=5;strokeColor=#000000;spacingTop=0;spacingBottom=0;spacingLeft=0;spacingRight=0;verticalAlign=middle;html=1;labelBackgroundColor=#ffffff;rounded=0;" parent="57" edge="1">
            <mxGeometry relative="1" as="geometry">
              <mxPoint y="111" as="offset" />
              <Array as="points" />
              <mxPoint x="31" y="120" as="sourcePoint" />
              <mxPoint x="31" y="140" as="targetPoint" />
            </mxGeometry>
          </mxCell>
        </UserObject>
        <UserObject label="" tags="Background" id="191">
          <mxCell style="vsdxID=99;edgeStyle=none;startArrow=none;endArrow=classic;startSize=5;endSize=5;strokeColor=#000000;spacingTop=0;spacingBottom=0;spacingLeft=0;spacingRight=0;verticalAlign=middle;html=1;labelBackgroundColor=#ffffff;rounded=0;" parent="57" edge="1">
            <mxGeometry relative="1" as="geometry">
              <mxPoint y="111" as="offset" />
              <Array as="points" />
              <mxPoint x="31" y="90" as="sourcePoint" />
              <mxPoint x="31" y="109" as="targetPoint" />
            </mxGeometry>
          </mxCell>
        </UserObject>
        <UserObject label="" tags="Background" id="194">
          <mxCell style="vsdxID=106;edgeStyle=none;startArrow=none;endArrow=classic;startSize=5;endSize=5;strokeColor=#000000;spacingTop=0;spacingBottom=0;spacingLeft=0;spacingRight=0;verticalAlign=middle;html=1;labelBackgroundColor=#ffffff;rounded=0;" parent="1" edge="1">
            <mxGeometry relative="1" as="geometry">
              <mxPoint x="-34" y="102" as="offset" />
              <Array as="points" />
              <mxPoint x="1522" y="142" as="sourcePoint" />
              <mxPoint x="1589" y="142" as="targetPoint" />
            </mxGeometry>
          </mxCell>
        </UserObject>
        <UserObject label="" tags="Background" id="195">
          <mxCell style="vsdxID=108;edgeStyle=none;startArrow=none;endArrow=classic;startSize=5;endSize=5;strokeColor=#000000;spacingTop=0;spacingBottom=0;spacingLeft=0;spacingRight=0;verticalAlign=middle;html=1;labelBackgroundColor=#ffffff;rounded=0;" parent="1" edge="1">
            <mxGeometry relative="1" as="geometry">
              <mxPoint x="-30" y="102" as="offset" />
              <Array as="points" />
              <mxPoint x="1531" y="229" as="sourcePoint" />
              <mxPoint x="1591" y="229" as="targetPoint" />
            </mxGeometry>
          </mxCell>
        </UserObject>
        <UserObject label="" tags="Background" id="87">
          <mxCell style="vsdxID=11010000;fillColor=none;gradientColor=none;strokeColor=none;spacingTop=-3;spacingBottom=-3;spacingLeft=-3;spacingRight=-3;points=[];labelBackgroundColor=none;rounded=0;html=1;whiteSpace=wrap;" parent="1" vertex="1">
            <mxGeometry x="1795" y="118" width="83" height="181" as="geometry" />
          </mxCell>
        </UserObject>
        <mxCell id="89" value="&lt;div style=&quot;font-size: 1px&quot;&gt;&lt;font style=&quot;font-size:23.28px;font-family:Helvetica;color:#000000;direction:ltr;letter-spacing:0px;line-height:120%;opacity:1&quot;&gt;&lt;br/&gt;&lt;/font&gt;&lt;font style=&quot;font-size:23.28px;font-family:Helvetica;color:#000000;direction:ltr;letter-spacing:0px;line-height:120%;opacity:1&quot;&gt;&lt;br/&gt;&lt;/font&gt;&lt;/div&gt;" style="verticalAlign=middle;align=center;overflow=width;vsdxID=111;rotation=270;fillColor=#CCCCCC;gradientColor=none;fillOpacity=60;strokeOpacity=60;shape=stencil(jZAxDoMwDEVP4xU58RJmSu+BRCBW0wSFtKW3byIPpR0Q2//2s2V/oG51w2JB45pTvNkXj9kBXUBrDs4mzkUB9UDdFJOdU3yEUfwyVLKqe3zWDZvMYZ3Q+BanUPxVUM9hhyrVKPWDH8GIZ1FjGtOeP+Pw4iK+n07svQS17/8nU0qSKvUf);strokeColor=#000000;spacingTop=-3;spacingBottom=-3;spacingLeft=-3;spacingRight=-3;points=[];labelBackgroundColor=none;rounded=0;html=1;whiteSpace=wrap;" parent="87" vertex="1">
          <mxGeometry x="-49" y="48" width="180" height="83" as="geometry" />
        </mxCell>
        <mxCell id="132" parent="87" vertex="1">
          <mxGeometry x="81" y="181" as="geometry" />
        </mxCell>
        <UserObject label="" tags="Background" id="133">
          <mxCell style="vsdxID=112;edgeStyle=none;startArrow=none;endArrow=none;startSize=5;endSize=5;strokeColor=#000000;spacingTop=0;spacingBottom=0;spacingLeft=0;spacingRight=0;verticalAlign=middle;html=1;labelBackgroundColor=#ffffff;rounded=0;" parent="87" source="89" target="132" edge="1">
            <mxGeometry relative="1" as="geometry">
              <mxPoint x="-41" y="192" as="offset" />
              <Array as="points">
                <mxPoint y="-1" />
              </Array>
            </mxGeometry>
          </mxCell>
        </UserObject>
        <UserObject label="" tags="Background" id="134">
          <mxCell style="vsdxID=113;edgeStyle=none;startArrow=none;endArrow=none;startSize=5;endSize=5;strokeColor=#000000;spacingTop=0;spacingBottom=0;spacingLeft=0;spacingRight=0;verticalAlign=middle;html=1;labelBackgroundColor=#ffffff;rounded=0;" parent="87" source="89" target="89" edge="1">
            <mxGeometry relative="1" as="geometry">
              <mxPoint x="-43" y="170" as="offset" />
              <Array as="points">
                <mxPoint x="-2" y="159" />
                <mxPoint x="83.91" y="21.3" />
              </Array>
            </mxGeometry>
          </mxCell>
        </UserObject>
        <UserObject label="" tags="Background" id="196">
          <mxCell style="vsdxID=115;edgeStyle=none;startArrow=none;endArrow=classic;startSize=5;endSize=5;strokeColor=#000000;spacingTop=0;spacingBottom=0;spacingLeft=0;spacingRight=0;verticalAlign=middle;html=1;labelBackgroundColor=#ffffff;rounded=0;" parent="1" edge="1">
            <mxGeometry relative="1" as="geometry">
              <mxPoint x="-34" y="102" as="offset" />
              <Array as="points" />
              <mxPoint x="1878" y="212" as="sourcePoint" />
              <mxPoint x="1947" y="212" as="targetPoint" />
            </mxGeometry>
          </mxCell>
        </UserObject>
        <UserObject label="&lt;div style=&quot;font-size: 1px&quot;&gt;&lt;font style=&quot;font-size:11.64px;font-family:Helvetica;color:#000000;direction:ltr;letter-spacing:0px;line-height:120%;opacity:1&quot;&gt;Dropout&lt;/font&gt;&lt;/div&gt;" tags="Background" id="90">
          <mxCell style="verticalAlign=middle;align=center;overflow=width;vsdxID=116;rotation=15;fillColor=none;gradientColor=none;shape=stencil(nZBRDoQgDERP03+WHsHFe5iISyOCQdT19kIaIxq//Jtp3zTpAFaTaUYNUkwx+F6v1EYD+AUpyRkdKCYFqACrzgf9C352LfuxyWRWg1/yhT/nRE5IsZWuZtCSK8CPeI0e/hF+jV7AJM4PO7KWCyr390bSiNtEtQM=);strokeColor=none;spacingTop=-3;spacingBottom=-3;spacingLeft=-3;spacingRight=-3;points=[];labelBackgroundColor=none;rounded=0;html=1;whiteSpace=wrap;" parent="1" vertex="1">
            <mxGeometry x="1795" y="299" width="70" height="30" as="geometry" />
          </mxCell>
        </UserObject>
        <UserObject label="" tags="Background" id="91">
          <mxCell style="vsdxID=12510000;fillColor=none;gradientColor=none;strokeColor=none;spacingTop=-3;spacingBottom=-3;spacingLeft=-3;spacingRight=-3;points=[];labelBackgroundColor=none;rounded=0;html=1;whiteSpace=wrap;" parent="1" vertex="1">
            <mxGeometry x="1944" y="73" width="293" height="280" as="geometry" />
          </mxCell>
        </UserObject>
        <mxCell id="93" style="vsdxID=118;fillColor=#ffffff;gradientColor=none;shape=stencil(vVHLDsIgEPwajiQI6RfU+h8bu22JCGRB2/69kG1iazx58DazM/vIjjBtmiCi0CplCjecbZ8nYc5Ca+snJJsLEqYTph0C4Ujh4XvmEaqzont41gkL96naodXKrGF6YSfQtUi0OXXDVlqPfJNP6usotUhYbJIUMmQb/GGrAxpRljVycDBuc1hKM2LclX8/7H9nFfB+82Cd45T2+mcspcSRmu4F);strokeColor=#000000;spacingTop=-3;spacingBottom=-3;spacingLeft=-3;spacingRight=-3;points=[];labelBackgroundColor=none;rounded=0;html=1;whiteSpace=wrap;" parent="91" vertex="1">
          <mxGeometry width="40" height="40" as="geometry" />
        </mxCell>
        <mxCell id="94" style="vsdxID=120;fillColor=#ffffff;gradientColor=none;shape=stencil(vVHLDsIgEPwajiQI6RfU+h8bu22JCGRB2/69kG1iazx58DazM/vIjjBtmiCi0CplCjecbZ8nYc5Ca+snJJsLEqYTph0C4Ujh4XvmEaqzont41gkL96naodXKrGF6YSfQtUi0OXXDVlqPfJNP6usotUhYbJIUMmQb/GGrAxpRljVycDBuc1hKM2LclX8/7H9nFfB+82Cd45T2+mcspcSRmu4F);strokeColor=#000000;spacingTop=-3;spacingBottom=-3;spacingLeft=-3;spacingRight=-3;points=[];labelBackgroundColor=none;rounded=0;html=1;whiteSpace=wrap;" parent="91" vertex="1">
          <mxGeometry y="61" width="40" height="40" as="geometry" />
        </mxCell>
        <mxCell id="95" style="vsdxID=127;fillColor=#ffffff;gradientColor=none;shape=stencil(vVHLDsIgEPwajiQI6RfU+h8bu22JCGRB2/69kG1iazx58DazM/vIjjBtmiCi0CplCjecbZ8nYc5Ca+snJJsLEqYTph0C4Ujh4XvmEaqzont41gkL96naodXKrGF6YSfQtUi0OXXDVlqPfJNP6usotUhYbJIUMmQb/GGrAxpRljVycDBuc1hKM2LclX8/7H9nFfB+82Cd45T2+mcspcSRmu4F);strokeColor=#000000;spacingTop=-3;spacingBottom=-3;spacingLeft=-3;spacingRight=-3;points=[];labelBackgroundColor=none;rounded=0;html=1;whiteSpace=wrap;" parent="91" vertex="1">
          <mxGeometry y="120" width="40" height="40" as="geometry" />
        </mxCell>
        <mxCell id="96" style="vsdxID=122;fillColor=#ffffff;gradientColor=none;shape=stencil(vVHLDsIgEPwajiQI6RfU+h8bu22JCGRB2/69kG1iazx58DazM/vIjjBtmiCi0CplCjecbZ8nYc5Ca+snJJsLEqYTph0C4Ujh4XvmEaqzont41gkL96naodXKrGF6YSfQtUi0OXXDVlqPfJNP6usotUhYbJIUMmQb/GGrAxpRljVycDBuc1hKM2LclX8/7H9nFfB+82Cd45T2+mcspcSRmu4F);strokeColor=#000000;spacingTop=-3;spacingBottom=-3;spacingLeft=-3;spacingRight=-3;points=[];labelBackgroundColor=none;rounded=0;html=1;whiteSpace=wrap;" parent="91" vertex="1">
          <mxGeometry y="181" width="40" height="40" as="geometry" />
        </mxCell>
        <mxCell id="97" style="vsdxID=124;fillColor=#ffffff;gradientColor=none;shape=stencil(vVHLDsIgEPwajiQI6RfU+h8bu22JCGRB2/69kG1iazx58DazM/vIjjBtmiCi0CplCjecbZ8nYc5Ca+snJJsLEqYTph0C4Ujh4XvmEaqzont41gkL96naodXKrGF6YSfQtUi0OXXDVlqPfJNP6usotUhYbJIUMmQb/GGrAxpRljVycDBuc1hKM2LclX8/7H9nFfB+82Cd45T2+mcspcSRmu4F);strokeColor=#000000;spacingTop=-3;spacingBottom=-3;spacingLeft=-3;spacingRight=-3;points=[];labelBackgroundColor=none;rounded=0;html=1;whiteSpace=wrap;" parent="91" vertex="1">
          <mxGeometry y="240" width="40" height="40" as="geometry" />
        </mxCell>
        <mxCell id="98" style="vsdxID=128;fillColor=#ffffff;gradientColor=none;shape=stencil(vVHLDsIgEPwajiQI6RfU+h8bu22JCGRB2/69kG1iazx58DazM/vIjjBtmiCi0CplCjecbZ8nYc5Ca+snJJsLEqYTph0C4Ujh4XvmEaqzont41gkL96naodXKrGF6YSfQtUi0OXXDVlqPfJNP6usotUhYbJIUMmQb/GGrAxpRljVycDBuc1hKM2LclX8/7H9nFfB+82Cd45T2+mcspcSRmu4F);strokeColor=#000000;spacingTop=-3;spacingBottom=-3;spacingLeft=-3;spacingRight=-3;points=[];labelBackgroundColor=none;rounded=0;html=1;whiteSpace=wrap;" parent="91" vertex="1">
          <mxGeometry x="90" y="57" width="40" height="40" as="geometry" />
        </mxCell>
        <mxCell id="99" style="vsdxID=133;fillColor=#ffffff;gradientColor=none;shape=stencil(vVHLDsIgEPwajiQI6RfU+h8bu22JCGRB2/69kG1iazx58DazM/vIjjBtmiCi0CplCjecbZ8nYc5Ca+snJJsLEqYTph0C4Ujh4XvmEaqzont41gkL96naodXKrGF6YSfQtUi0OXXDVlqPfJNP6usotUhYbJIUMmQb/GGrAxpRljVycDBuc1hKM2LclX8/7H9nFfB+82Cd45T2+mcspcSRmu4F);strokeColor=#000000;spacingTop=-3;spacingBottom=-3;spacingLeft=-3;spacingRight=-3;points=[];labelBackgroundColor=none;rounded=0;html=1;whiteSpace=wrap;" parent="91" vertex="1">
          <mxGeometry x="90" y="130" width="40" height="40" as="geometry" />
        </mxCell>
        <mxCell id="100" style="vsdxID=139;fillColor=#ffffff;gradientColor=none;shape=stencil(vVHLDsIgEPwajiQI6RfU+h8bu22JCGRB2/69kG1iazx58DazM/vIjjBtmiCi0CplCjecbZ8nYc5Ca+snJJsLEqYTph0C4Ujh4XvmEaqzont41gkL96naodXKrGF6YSfQtUi0OXXDVlqPfJNP6usotUhYbJIUMmQb/GGrAxpRljVycDBuc1hKM2LclX8/7H9nFfB+82Cd45T2+mcspcSRmu4F);strokeColor=#000000;spacingTop=-3;spacingBottom=-3;spacingLeft=-3;spacingRight=-3;points=[];labelBackgroundColor=none;rounded=0;html=1;whiteSpace=wrap;" parent="91" vertex="1">
          <mxGeometry x="90" y="202" width="40" height="40" as="geometry" />
        </mxCell>
        <mxCell id="101" style="vsdxID=145;fillColor=#ffffff;gradientColor=none;shape=stencil(vVHLDsIgEPwajiQI6RfU+h8bu22JCGRB2/69kG1iazx58DazM/vIjjBtmiCi0CplCjecbZ8nYc5Ca+snJJsLEqYTph0C4Ujh4XvmEaqzont41gkL96naodXKrGF6YSfQtUi0OXXDVlqPfJNP6usotUhYbJIUMmQb/GGrAxpRljVycDBuc1hKM2LclX8/7H9nFfB+82Cd45T2+mcspcSRmu4F);strokeColor=#000000;spacingTop=-3;spacingBottom=-3;spacingLeft=-3;spacingRight=-3;points=[];labelBackgroundColor=none;rounded=0;html=1;whiteSpace=wrap;" parent="91" vertex="1">
          <mxGeometry x="164" y="89" width="40" height="40" as="geometry" />
        </mxCell>
        <mxCell id="102" style="vsdxID=149;fillColor=#ffffff;gradientColor=none;shape=stencil(vVHLDsIgEPwajiQI6RfU+h8bu22JCGRB2/69kG1iazx58DazM/vIjjBtmiCi0CplCjecbZ8nYc5Ca+snJJsLEqYTph0C4Ujh4XvmEaqzont41gkL96naodXKrGF6YSfQtUi0OXXDVlqPfJNP6usotUhYbJIUMmQb/GGrAxpRljVycDBuc1hKM2LclX8/7H9nFfB+82Cd45T2+mcspcSRmu4F);strokeColor=#000000;spacingTop=-3;spacingBottom=-3;spacingLeft=-3;spacingRight=-3;points=[];labelBackgroundColor=none;rounded=0;html=1;whiteSpace=wrap;" parent="91" vertex="1">
          <mxGeometry x="164" y="162" width="40" height="40" as="geometry" />
        </mxCell>
        <mxCell id="103" style="vsdxID=153;fillColor=#cdeb8b;gradientColor=none;shape=stencil(vVHLDsIgEPwajiQI6RfU+h8bu22JCGRB2/69kG1iazx58DazM/vIjjBtmiCi0CplCjecbZ8nYc5Ca+snJJsLEqYTph0C4Ujh4XvmEaqzont41gkL96naodXKrGF6YSfQtUi0OXXDVlqPfJNP6usotUhYbJIUMmQb/GGrAxpRljVycDBuc1hKM2LclX8/7H9nFfB+82Cd45T2+mcspcSRmu4F);strokeColor=#36393d;spacingTop=-3;spacingBottom=-3;spacingLeft=-3;spacingRight=-3;points=[];labelBackgroundColor=none;rounded=0;html=1;whiteSpace=wrap;" parent="91" vertex="1">
          <mxGeometry x="223" y="131" width="40" height="40" as="geometry" />
        </mxCell>
        <mxCell id="104" value="&lt;div style=&quot;font-size: 1px&quot;&gt;&lt;font style=&quot;font-size:15.52px;font-family:Helvetica;color:#000000;direction:ltr;letter-spacing:0px;line-height:120%;opacity:1&quot;&gt;Output&lt;/font&gt;&lt;/div&gt;" style="verticalAlign=middle;align=center;overflow=width;vsdxID=156;fillColor=none;gradientColor=none;shape=stencil(nZBRDoQgDERP03+WHsHFe5iISyOCQdT19kIaIxq//Jtp3zTpAFaTaUYNUkwx+F6v1EYD+AUpyRkdKCYFqACrzgf9C352LfuxyWRWg1/yhT/nRE5IsZWuZtCSK8CPeI0e/hF+jV7AJM4PO7KWCyr390bSiNtEtQM=);strokeColor=none;spacingTop=-3;spacingBottom=-3;spacingLeft=-3;spacingRight=-3;points=[];labelBackgroundColor=none;rounded=0;html=1;whiteSpace=wrap;" parent="91" vertex="1">
          <mxGeometry x="205" y="169" width="80" height="30" as="geometry" />
        </mxCell>
        <UserObject label="" tags="Background" id="143">
          <mxCell style="vsdxID=129;edgeStyle=none;startArrow=none;endArrow=classic;startSize=5;endSize=5;strokeColor=#000000;spacingTop=0;spacingBottom=0;spacingLeft=0;spacingRight=0;verticalAlign=middle;html=1;labelBackgroundColor=#ffffff;rounded=0;exitX=1;exitY=0.5;exitDx=0;exitDy=0;exitPerimeter=0;entryX=0;entryY=0.5;entryDx=0;entryDy=0;entryPerimeter=0;" parent="91" source="93" target="98" edge="1">
            <mxGeometry relative="1" as="geometry">
              <mxPoint x="-26" y="130" as="offset" />
              <Array as="points" />
            </mxGeometry>
          </mxCell>
        </UserObject>
        <mxCell id="144" parent="91" vertex="1">
          <mxGeometry x="93" y="77" as="geometry" />
        </mxCell>
        <UserObject label="" tags="Background" id="145">
          <mxCell style="vsdxID=126;edgeStyle=none;startArrow=none;endArrow=classic;startSize=5;endSize=5;strokeColor=#000000;spacingTop=0;spacingBottom=0;spacingLeft=0;spacingRight=0;verticalAlign=middle;html=1;labelBackgroundColor=#ffffff;rounded=0;exitX=1;exitY=0.5;exitDx=0;exitDy=0;exitPerimeter=0;" parent="91" source="94" target="144" edge="1">
            <mxGeometry relative="1" as="geometry">
              <mxPoint x="-27" y="103" as="offset" />
              <Array as="points" />
            </mxGeometry>
          </mxCell>
        </UserObject>
        <UserObject label="" tags="Background" id="146">
          <mxCell style="vsdxID=130;edgeStyle=none;startArrow=none;endArrow=classic;startSize=5;endSize=5;strokeColor=#000000;spacingTop=0;spacingBottom=0;spacingLeft=0;spacingRight=0;verticalAlign=middle;html=1;labelBackgroundColor=#ffffff;rounded=0;exitX=1;exitY=0.5;exitDx=0;exitDy=0;exitPerimeter=0;entryX=0;entryY=0.5;entryDx=0;entryDy=0;entryPerimeter=0;" parent="91" source="95" target="98" edge="1">
            <mxGeometry relative="1" as="geometry">
              <mxPoint x="-25" y="132" as="offset" />
              <Array as="points" />
            </mxGeometry>
          </mxCell>
        </UserObject>
        <UserObject label="" tags="Background" id="147">
          <mxCell style="vsdxID=131;edgeStyle=none;startArrow=none;endArrow=classic;startSize=5;endSize=5;strokeColor=#000000;spacingTop=0;spacingBottom=0;spacingLeft=0;spacingRight=0;verticalAlign=middle;html=1;labelBackgroundColor=#ffffff;rounded=0;exitX=1;exitY=0.5;exitDx=0;exitDy=0;exitPerimeter=0;entryX=0.125;entryY=0.125;entryDx=0;entryDy=0;entryPerimeter=0;" parent="91" source="96" target="98" edge="1">
            <mxGeometry relative="1" as="geometry">
              <mxPoint x="-29" y="171" as="offset" />
              <Array as="points" />
            </mxGeometry>
          </mxCell>
        </UserObject>
        <UserObject label="" tags="Background" id="148">
          <mxCell style="vsdxID=132;edgeStyle=none;startArrow=none;endArrow=classic;startSize=5;endSize=5;strokeColor=#000000;spacingTop=0;spacingBottom=0;spacingLeft=0;spacingRight=0;verticalAlign=middle;html=1;labelBackgroundColor=#ffffff;rounded=0;exitX=1;exitY=0.5;exitDx=0;exitDy=0;exitPerimeter=0;entryX=0;entryY=0.5;entryDx=0;entryDy=0;entryPerimeter=0;" parent="91" source="97" target="98" edge="1">
            <mxGeometry relative="1" as="geometry">
              <mxPoint x="-26" y="193" as="offset" />
              <Array as="points" />
            </mxGeometry>
          </mxCell>
        </UserObject>
        <UserObject label="" tags="Background" id="149">
          <mxCell style="vsdxID=134;edgeStyle=none;startArrow=none;endArrow=classic;startSize=5;endSize=5;strokeColor=#000000;spacingTop=0;spacingBottom=0;spacingLeft=0;spacingRight=0;verticalAlign=middle;html=1;labelBackgroundColor=#ffffff;rounded=0;exitX=1;exitY=0.5;exitDx=0;exitDy=0;exitPerimeter=0;entryX=0;entryY=0.5;entryDx=0;entryDy=0;entryPerimeter=0;" parent="91" source="93" target="99" edge="1">
            <mxGeometry relative="1" as="geometry">
              <mxPoint x="-26" y="166" as="offset" />
              <Array as="points" />
            </mxGeometry>
          </mxCell>
        </UserObject>
        <UserObject label="" tags="Background" id="150">
          <mxCell style="vsdxID=135;edgeStyle=none;startArrow=none;endArrow=classic;startSize=5;endSize=5;strokeColor=#000000;spacingTop=0;spacingBottom=0;spacingLeft=0;spacingRight=0;verticalAlign=middle;html=1;labelBackgroundColor=#ffffff;rounded=0;exitX=1;exitY=0.5;exitDx=0;exitDy=0;exitPerimeter=0;entryX=0;entryY=0.5;entryDx=0;entryDy=0;entryPerimeter=0;" parent="91" source="94" target="99" edge="1">
            <mxGeometry relative="1" as="geometry">
              <mxPoint x="-26" y="135" as="offset" />
              <Array as="points" />
            </mxGeometry>
          </mxCell>
        </UserObject>
        <UserObject label="" tags="Background" id="151">
          <mxCell style="vsdxID=136;edgeStyle=none;startArrow=none;endArrow=classic;startSize=5;endSize=5;strokeColor=#000000;spacingTop=0;spacingBottom=0;spacingLeft=0;spacingRight=0;verticalAlign=middle;html=1;labelBackgroundColor=#ffffff;rounded=0;exitX=1;exitY=0.5;exitDx=0;exitDy=0;exitPerimeter=0;entryX=0;entryY=0.5;entryDx=0;entryDy=0;entryPerimeter=0;" parent="91" source="95" target="99" edge="1">
            <mxGeometry relative="1" as="geometry">
              <mxPoint x="-25" y="106" as="offset" />
              <Array as="points" />
            </mxGeometry>
          </mxCell>
        </UserObject>
        <UserObject label="" tags="Background" id="152">
          <mxCell style="vsdxID=137;edgeStyle=none;startArrow=none;endArrow=classic;startSize=5;endSize=5;strokeColor=#000000;spacingTop=0;spacingBottom=0;spacingLeft=0;spacingRight=0;verticalAlign=middle;html=1;labelBackgroundColor=#ffffff;rounded=0;exitX=1;exitY=0.5;exitDx=0;exitDy=0;exitPerimeter=0;entryX=0;entryY=0.5;entryDx=0;entryDy=0;entryPerimeter=0;" parent="91" source="96" target="99" edge="1">
            <mxGeometry relative="1" as="geometry">
              <mxPoint x="-26" y="127" as="offset" />
              <Array as="points" />
            </mxGeometry>
          </mxCell>
        </UserObject>
        <UserObject label="" tags="Background" id="153">
          <mxCell style="vsdxID=138;edgeStyle=none;startArrow=none;endArrow=classic;startSize=5;endSize=5;strokeColor=#000000;spacingTop=0;spacingBottom=0;spacingLeft=0;spacingRight=0;verticalAlign=middle;html=1;labelBackgroundColor=#ffffff;rounded=0;exitX=1;exitY=0.5;exitDx=0;exitDy=0;exitPerimeter=0;entryX=0;entryY=0.5;entryDx=0;entryDy=0;entryPerimeter=0;" parent="91" source="97" target="99" edge="1">
            <mxGeometry relative="1" as="geometry">
              <mxPoint x="-25" y="156" as="offset" />
              <Array as="points" />
            </mxGeometry>
          </mxCell>
        </UserObject>
        <UserObject label="" tags="Background" id="154">
          <mxCell style="vsdxID=140;edgeStyle=none;startArrow=none;endArrow=classic;startSize=5;endSize=5;strokeColor=#000000;spacingTop=0;spacingBottom=0;spacingLeft=0;spacingRight=0;verticalAlign=middle;html=1;labelBackgroundColor=#ffffff;rounded=0;exitX=1;exitY=0.5;exitDx=0;exitDy=0;exitPerimeter=0;entryX=0;entryY=0.5;entryDx=0;entryDy=0;entryPerimeter=0;" parent="91" source="93" target="100" edge="1">
            <mxGeometry relative="1" as="geometry">
              <mxPoint x="-25" y="202" as="offset" />
              <Array as="points" />
            </mxGeometry>
          </mxCell>
        </UserObject>
        <UserObject label="" tags="Background" id="155">
          <mxCell style="vsdxID=141;edgeStyle=none;startArrow=none;endArrow=classic;startSize=5;endSize=5;strokeColor=#000000;spacingTop=0;spacingBottom=0;spacingLeft=0;spacingRight=0;verticalAlign=middle;html=1;labelBackgroundColor=#ffffff;rounded=0;exitX=1;exitY=0.5;exitDx=0;exitDy=0;exitPerimeter=0;entryX=0;entryY=0.5;entryDx=0;entryDy=0;entryPerimeter=0;" parent="91" source="94" target="100" edge="1">
            <mxGeometry relative="1" as="geometry">
              <mxPoint x="-26" y="171" as="offset" />
              <Array as="points" />
            </mxGeometry>
          </mxCell>
        </UserObject>
        <UserObject label="" tags="Background" id="156">
          <mxCell style="vsdxID=142;edgeStyle=none;startArrow=none;endArrow=classic;startSize=5;endSize=5;strokeColor=#000000;spacingTop=0;spacingBottom=0;spacingLeft=0;spacingRight=0;verticalAlign=middle;html=1;labelBackgroundColor=#ffffff;rounded=0;exitX=1;exitY=0.5;exitDx=0;exitDy=0;exitPerimeter=0;entryX=0;entryY=0.5;entryDx=0;entryDy=0;entryPerimeter=0;" parent="91" source="95" target="100" edge="1">
            <mxGeometry relative="1" as="geometry">
              <mxPoint x="-25" y="142" as="offset" />
              <Array as="points" />
            </mxGeometry>
          </mxCell>
        </UserObject>
        <UserObject label="" tags="Background" id="157">
          <mxCell style="vsdxID=143;edgeStyle=none;startArrow=none;endArrow=classic;startSize=5;endSize=5;strokeColor=#000000;spacingTop=0;spacingBottom=0;spacingLeft=0;spacingRight=0;verticalAlign=middle;html=1;labelBackgroundColor=#ffffff;rounded=0;exitX=1;exitY=0.5;exitDx=0;exitDy=0;exitPerimeter=0;entryX=0;entryY=0.5;entryDx=0;entryDy=0;entryPerimeter=0;" parent="91" source="96" target="100" edge="1">
            <mxGeometry relative="1" as="geometry">
              <mxPoint x="-25" y="112" as="offset" />
              <Array as="points" />
            </mxGeometry>
          </mxCell>
        </UserObject>
        <UserObject label="" tags="Background" id="158">
          <mxCell style="vsdxID=144;edgeStyle=none;startArrow=none;endArrow=classic;startSize=5;endSize=5;strokeColor=#000000;spacingTop=0;spacingBottom=0;spacingLeft=0;spacingRight=0;verticalAlign=middle;html=1;labelBackgroundColor=#ffffff;rounded=0;exitX=1;exitY=0.5;exitDx=0;exitDy=0;exitPerimeter=0;entryX=-0.125;entryY=0.325;entryDx=0;entryDy=0;entryPerimeter=0;" parent="91" source="97" target="100" edge="1">
            <mxGeometry relative="1" as="geometry">
              <mxPoint x="-23" y="124" as="offset" />
              <Array as="points" />
            </mxGeometry>
          </mxCell>
        </UserObject>
        <UserObject label="" tags="Background" id="159">
          <mxCell style="vsdxID=146;edgeStyle=none;startArrow=none;endArrow=classic;startSize=5;endSize=5;strokeColor=#000000;spacingTop=0;spacingBottom=0;spacingLeft=0;spacingRight=0;verticalAlign=middle;html=1;labelBackgroundColor=#ffffff;rounded=0;exitX=1;exitY=0.5;exitDx=0;exitDy=0;exitPerimeter=0;entryX=0;entryY=0.5;entryDx=0;entryDy=0;entryPerimeter=0;" parent="91" source="98" target="101" edge="1">
            <mxGeometry relative="1" as="geometry">
              <mxPoint x="-17" y="117" as="offset" />
              <Array as="points" />
            </mxGeometry>
          </mxCell>
        </UserObject>
        <UserObject label="" tags="Background" id="160">
          <mxCell style="vsdxID=147;edgeStyle=none;startArrow=none;endArrow=classic;startSize=5;endSize=5;strokeColor=#000000;spacingTop=0;spacingBottom=0;spacingLeft=0;spacingRight=0;verticalAlign=middle;html=1;labelBackgroundColor=#ffffff;rounded=0;exitX=1;exitY=0.5;exitDx=0;exitDy=0;exitPerimeter=0;entryX=-0.025;entryY=0.325;entryDx=0;entryDy=0;entryPerimeter=0;" parent="91" source="99" target="101" edge="1">
            <mxGeometry relative="1" as="geometry">
              <mxPoint x="-17" y="125" as="offset" />
              <Array as="points" />
            </mxGeometry>
          </mxCell>
        </UserObject>
        <UserObject label="" tags="Background" id="161">
          <mxCell style="vsdxID=148;edgeStyle=none;startArrow=none;endArrow=classic;startSize=5;endSize=5;strokeColor=#000000;spacingTop=0;spacingBottom=0;spacingLeft=0;spacingRight=0;verticalAlign=middle;html=1;labelBackgroundColor=#ffffff;rounded=0;exitX=1;exitY=0.5;exitDx=0;exitDy=0;exitPerimeter=0;entryX=0;entryY=0.5;entryDx=0;entryDy=0;entryPerimeter=0;" parent="91" source="100" target="101" edge="1">
            <mxGeometry relative="1" as="geometry">
              <mxPoint x="-17" y="158" as="offset" />
              <Array as="points" />
            </mxGeometry>
          </mxCell>
        </UserObject>
        <UserObject label="" tags="Background" id="162">
          <mxCell style="vsdxID=152;edgeStyle=none;startArrow=none;endArrow=classic;startSize=5;endSize=5;strokeColor=#000000;spacingTop=0;spacingBottom=0;spacingLeft=0;spacingRight=0;verticalAlign=middle;html=1;labelBackgroundColor=#ffffff;rounded=0;exitX=1;exitY=0.5;exitDx=0;exitDy=0;exitPerimeter=0;entryX=0;entryY=0.5;entryDx=0;entryDy=0;entryPerimeter=0;" parent="91" source="100" target="102" edge="1">
            <mxGeometry relative="1" as="geometry">
              <mxPoint x="-17" y="121" as="offset" />
              <Array as="points" />
            </mxGeometry>
          </mxCell>
        </UserObject>
        <UserObject label="" tags="Background" id="163">
          <mxCell style="vsdxID=151;edgeStyle=none;startArrow=none;endArrow=classic;startSize=5;endSize=5;strokeColor=#000000;spacingTop=0;spacingBottom=0;spacingLeft=0;spacingRight=0;verticalAlign=middle;html=1;labelBackgroundColor=#ffffff;rounded=0;exitX=1;exitY=0.5;exitDx=0;exitDy=0;exitPerimeter=0;entryX=0;entryY=0.5;entryDx=0;entryDy=0;entryPerimeter=0;" parent="91" source="99" target="102" edge="1">
            <mxGeometry relative="1" as="geometry">
              <mxPoint x="-17" y="117" as="offset" />
              <Array as="points" />
            </mxGeometry>
          </mxCell>
        </UserObject>
        <UserObject label="" tags="Background" id="164">
          <mxCell style="vsdxID=150;edgeStyle=none;startArrow=none;endArrow=classic;startSize=5;endSize=5;strokeColor=#000000;spacingTop=0;spacingBottom=0;spacingLeft=0;spacingRight=0;verticalAlign=middle;html=1;labelBackgroundColor=#ffffff;rounded=0;exitX=1;exitY=0.5;exitDx=0;exitDy=0;exitPerimeter=0;entryX=0;entryY=0.5;entryDx=0;entryDy=0;entryPerimeter=0;" parent="91" source="98" target="102" edge="1">
            <mxGeometry relative="1" as="geometry">
              <mxPoint x="-17" y="154" as="offset" />
              <Array as="points" />
            </mxGeometry>
          </mxCell>
        </UserObject>
        <UserObject label="" tags="Background" id="165">
          <mxCell style="vsdxID=154;edgeStyle=none;startArrow=none;endArrow=classic;startSize=5;endSize=5;strokeColor=#000000;spacingTop=0;spacingBottom=0;spacingLeft=0;spacingRight=0;verticalAlign=middle;html=1;labelBackgroundColor=#ffffff;rounded=0;exitX=1;exitY=0.5;exitDx=0;exitDy=0;exitPerimeter=0;entryX=0;entryY=0.5;entryDx=0;entryDy=0;entryPerimeter=0;" parent="91" source="101" target="103" edge="1">
            <mxGeometry relative="1" as="geometry">
              <mxPoint x="-10" y="122" as="offset" />
              <Array as="points" />
            </mxGeometry>
          </mxCell>
        </UserObject>
        <UserObject label="" tags="Background" id="166">
          <mxCell style="vsdxID=155;edgeStyle=none;startArrow=none;endArrow=classic;startSize=5;endSize=5;strokeColor=#000000;spacingTop=0;spacingBottom=0;spacingLeft=0;spacingRight=0;verticalAlign=middle;html=1;labelBackgroundColor=#ffffff;rounded=0;exitX=1;exitY=0.5;exitDx=0;exitDy=0;exitPerimeter=0;entryX=0;entryY=0.5;entryDx=0;entryDy=0;entryPerimeter=0;" parent="91" source="102" target="103" edge="1">
            <mxGeometry relative="1" as="geometry">
              <mxPoint x="-10" y="116" as="offset" />
              <Array as="points" />
            </mxGeometry>
          </mxCell>
        </UserObject>
        <UserObject label="&lt;div style=&quot;font-size: 1px&quot;&gt;&lt;font style=&quot;font-size:13.58px;font-family:Helvetica;color:#ffffff;direction:ltr;letter-spacing:0px;line-height:120%;opacity:1&quot;&gt;BiLSTN&lt;/font&gt;&lt;/div&gt;" tags="Background" id="105">
          <mxCell style="verticalAlign=middle;align=center;overflow=width;vsdxID=157;fillColor=#000000;gradientColor=none;shape=stencil(nZBdDsIgEIRPs++UPUJtL+AJiKyyKUJD8aeeXujGBI1PfduZ+SabDGC/ODMTaLXkFCd6sM0O8ABac3CUOJcLcADszzHRJcVbsKJnU0itNoesdLpKa2XS6cgvEq861ZTWNd7rt6dkSqK1VaOAnkMDdmo3+tF/4d3oF1iObQ3Zib2XMdv8d71iyfI4vAE=);strokeColor=#000000;spacingTop=-3;spacingBottom=-3;spacingLeft=-3;spacingRight=-3;points=[];labelBackgroundColor=none;rounded=1;html=1;whiteSpace=wrap;" parent="1" vertex="1">
            <mxGeometry x="1125" y="37" width="150" height="44" as="geometry" />
          </mxCell>
        </UserObject>
        <UserObject label="&lt;div style=&quot;font-size: 1px&quot;&gt;&lt;font style=&quot;font-size:13.58px;font-family:Helvetica;color:#ffffff;direction:ltr;letter-spacing:0px;line-height:120%;opacity:1&quot;&gt;BiLSTN&lt;/font&gt;&lt;/div&gt;" tags="Background" id="106">
          <mxCell style="verticalAlign=middle;align=center;overflow=width;vsdxID=158;fillColor=#000000;gradientColor=none;shape=stencil(nZBdDsIgEIRPs++UPUJtL+AJiKyyKUJD8aeeXujGBI1PfduZ+SabDGC/ODMTaLXkFCd6sM0O8ABac3CUOJcLcADszzHRJcVbsKJnU0itNoesdLpKa2XS6cgvEq861ZTWNd7rt6dkSqK1VaOAnkMDdmo3+tF/4d3oF1iObQ3Zib2XMdv8d71iyfI4vAE=);strokeColor=#000000;spacingTop=-3;spacingBottom=-3;spacingLeft=-3;spacingRight=-3;points=[];labelBackgroundColor=none;rounded=1;html=1;whiteSpace=wrap;" parent="1" vertex="1">
            <mxGeometry x="1587" y="45" width="150" height="44" as="geometry" />
          </mxCell>
        </UserObject>
        <UserObject label="" tags="Background" id="107">
          <mxCell style="vsdxID=159;rotation=270;fillColor=#ffffff;gradientColor=none;shape=stencil(rZNRDoIwDIZPs1eydS7AM+IFPAFxUxYRdICipxcoGLYIhsQ9re23/fublfCoTJOrIkDLyhRn9dCySgnfEgCdp8roqt0RHhMeHQujTqaoc4nxNWlJoH1GSTzDOhpoYg57/VJDzgvtFSCEt1yKe6feDCylWHxijNEO0UznE9QX8+StTmRHMqyJ8VI2ZWkDTnmIqRfAvK6wX7gJPRas0BaOOAhbXCxYZuDZpsWS6z8Kc3+N8C/Lbr/FqoaHKxv++VKjvO8YH4HvLXc+pAO3m34McEB0luEUTevu2LQpHDkevwE=);strokeColor=#000000;spacingTop=-3;spacingBottom=-3;spacingLeft=-3;spacingRight=-3;points=[];labelBackgroundColor=none;rounded=1;html=1;whiteSpace=wrap;" parent="1" vertex="1">
            <mxGeometry x="1522" y="-247" width="20" height="1222" as="geometry" />
          </mxCell>
        </UserObject>
        <UserObject label="&lt;div style=&quot;font-size: 1px&quot;&gt;&lt;font style=&quot;font-size:18.43px;font-family:Helvetica;color:#ffffff;direction:ltr;letter-spacing:0px;line-height:120%;opacity:1&quot;&gt;Hidden Layer&lt;/font&gt;&lt;/div&gt;" tags="Background" id="108">
          <mxCell style="verticalAlign=middle;align=center;overflow=width;vsdxID=160;fillColor=#000000;gradientColor=none;shape=stencil(nZBdDsIgEIRPs+8UEi9Q6wU8AZFVNiI0FH9PL+3EBI1PfduZ+SabDJl+8nZk0moqOZ35Lq54MlvSWqLnLKVeZAYy/TFlPuV0jQ56tJXUanHYodPNtFY2H/byYngbeChd0m1+9kCkED1btQMYJDZgp1ajH/0XXo1+gfVYxsBMEgK2bPPf8aqF4c3wBg==);strokeColor=#000000;spacingTop=-3;spacingBottom=-3;spacingLeft=-3;spacingRight=-3;points=[];labelBackgroundColor=none;rounded=1;html=1;whiteSpace=wrap;" parent="1" vertex="1">
            <mxGeometry x="1426" y="370" width="210" height="40" as="geometry" />
          </mxCell>
        </UserObject>
        <UserObject label="" tags="Background" id="109">
          <mxCell style="vsdxID=5;edgeStyle=none;startArrow=none;endArrow=classic;startSize=5;endSize=5;strokeColor=#000000;spacingTop=0;spacingBottom=0;spacingLeft=0;spacingRight=0;verticalAlign=middle;html=1;labelBackgroundColor=#ffffff;rounded=0;exitX=1.0333333333333334;exitY=1;exitDx=0;exitDy=0;exitPerimeter=0;" parent="1" source="10" target="6" edge="1">
            <mxGeometry relative="1" as="geometry">
              <mxPoint x="-23" y="120" as="offset" />
              <Array as="points">
                <mxPoint x="917" y="290.45" />
              </Array>
            </mxGeometry>
          </mxCell>
        </UserObject>
        <UserObject label="" tags="Background" id="110">
          <mxCell style="vsdxID=7;edgeStyle=none;startArrow=none;endArrow=classic;startSize=5;endSize=5;strokeColor=#000000;spacingTop=0;spacingBottom=0;spacingLeft=0;spacingRight=0;verticalAlign=middle;html=1;labelBackgroundColor=#ffffff;rounded=0;exitX=1.0333333333333334;exitY=0;exitDx=0;exitDy=0;exitPerimeter=0;" parent="1" source="10" target="6" edge="1">
            <mxGeometry relative="1" as="geometry">
              <mxPoint x="-23" y="200" as="offset" />
              <Array as="points">
                <mxPoint x="917" y="69.45" />
              </Array>
            </mxGeometry>
          </mxCell>
        </UserObject>
        <mxCell id="115" parent="1" vertex="1">
          <mxGeometry x="977" y="199" as="geometry" />
        </mxCell>
        <UserObject label="" tags="Background" id="116">
          <mxCell style="vsdxID=51;edgeStyle=none;startArrow=none;endArrow=classic;startSize=5;endSize=5;strokeColor=#000000;spacingTop=0;spacingBottom=0;spacingLeft=0;spacingRight=0;verticalAlign=middle;html=1;labelBackgroundColor=#ffffff;rounded=0;" parent="1" source="115" target="16" edge="1">
            <mxGeometry relative="1" as="geometry">
              <mxPoint x="-23" y="102" as="offset" />
              <Array as="points">
                <mxPoint x="1023.54" y="200.6" />
              </Array>
            </mxGeometry>
          </mxCell>
        </UserObject>
        <mxCell id="117" parent="1" vertex="1">
          <mxGeometry x="1057" y="260" as="geometry" />
        </mxCell>
        <UserObject label="" tags="Background" id="118">
          <mxCell style="vsdxID=55;edgeStyle=none;startArrow=none;endArrow=classic;startSize=5;endSize=5;strokeColor=#000000;spacingTop=0;spacingBottom=0;spacingLeft=0;spacingRight=0;verticalAlign=middle;html=1;labelBackgroundColor=#ffffff;rounded=0;entryX=0;entryY=0.75;entryDx=0;entryDy=0;entryPerimeter=0;" parent="1" source="117" target="19" edge="1">
            <mxGeometry relative="1" as="geometry">
              <mxPoint x="-35" y="102" as="offset" />
              <Array as="points" />
            </mxGeometry>
          </mxCell>
        </UserObject>
        <UserObject label="" tags="Background" id="119">
          <mxCell style="vsdxID=57;edgeStyle=none;startArrow=none;endArrow=classic;startSize=5;endSize=5;strokeColor=#000000;spacingTop=0;spacingBottom=0;spacingLeft=0;spacingRight=0;verticalAlign=middle;html=1;labelBackgroundColor=#ffffff;rounded=0;exitX=1;exitY=0.5;exitDx=0;exitDy=0;exitPerimeter=0;" parent="1" source="19" target="46" edge="1">
            <mxGeometry relative="1" as="geometry">
              <mxPoint x="-15" y="102" as="offset" />
              <Array as="points">
                <mxPoint x="1293" y="200" />
                <mxPoint x="1303.78" y="200" />
              </Array>
            </mxGeometry>
          </mxCell>
        </UserObject>
        <mxCell id="120" parent="1" vertex="1">
          <mxGeometry x="1437" y="209" as="geometry" />
        </mxCell>
        <UserObject label="" tags="Background" id="121">
          <mxCell style="vsdxID=66;edgeStyle=none;startArrow=none;endArrow=classic;startSize=5;endSize=5;strokeColor=#000000;spacingTop=0;spacingBottom=0;spacingLeft=0;spacingRight=0;verticalAlign=middle;html=1;labelBackgroundColor=#ffffff;rounded=0;" parent="1" source="120" target="56" edge="1">
            <mxGeometry relative="1" as="geometry">
              <mxPoint x="-23" y="102" as="offset" />
              <Array as="points">
                <mxPoint x="1483.54" y="210.6" />
              </Array>
            </mxGeometry>
          </mxCell>
        </UserObject>
        <UserObject label="" tags="Background" id="122">
          <mxCell style="vsdxID=67;edgeStyle=none;startArrow=none;endArrow=classic;startSize=5;endSize=5;strokeColor=#000000;spacingTop=0;spacingBottom=0;spacingLeft=0;spacingRight=0;verticalAlign=middle;html=1;labelBackgroundColor=#ffffff;rounded=0;" parent="1" source="46" target="51" edge="1">
            <mxGeometry relative="1" as="geometry">
              <mxPoint x="-23" y="161" as="offset" />
              <Array as="points">
                <mxPoint x="1332" y="199" />
                <mxPoint x="1377.47" y="79.01" />
              </Array>
            </mxGeometry>
          </mxCell>
        </UserObject>
        <UserObject label="" tags="Background" id="123">
          <mxCell style="vsdxID=68;edgeStyle=none;startArrow=none;endArrow=classic;startSize=5;endSize=5;strokeColor=#000000;spacingTop=0;spacingBottom=0;spacingLeft=0;spacingRight=0;verticalAlign=middle;html=1;labelBackgroundColor=#ffffff;rounded=0;" parent="1" source="46" target="51" edge="1">
            <mxGeometry relative="1" as="geometry">
              <mxPoint x="-23" y="152" as="offset" />
              <Array as="points">
                <mxPoint x="1332" y="199" />
                <mxPoint x="1377.47" y="300.01" />
              </Array>
            </mxGeometry>
          </mxCell>
        </UserObject>
        <mxCell id="128" parent="1" vertex="1">
          <mxGeometry x="1590" y="188" as="geometry" />
        </mxCell>
        <UserObject label="" tags="Background" id="129">
          <mxCell style="vsdxID=107;edgeStyle=none;startArrow=none;endArrow=classic;startSize=5;endSize=5;strokeColor=#000000;spacingTop=0;spacingBottom=0;spacingLeft=0;spacingRight=0;verticalAlign=middle;html=1;labelBackgroundColor=#ffffff;rounded=0;" parent="1" source="54" target="128" edge="1">
            <mxGeometry relative="1" as="geometry">
              <mxPoint x="-30" y="102" as="offset" />
              <Array as="points">
                <mxPoint x="1530" y="190" />
              </Array>
            </mxGeometry>
          </mxCell>
        </UserObject>
        <mxCell id="130" parent="1" vertex="1">
          <mxGeometry x="1519" y="269" as="geometry" />
        </mxCell>
        <UserObject label="" tags="Background" id="131">
          <mxCell style="vsdxID=109;edgeStyle=none;startArrow=none;endArrow=classic;startSize=5;endSize=5;strokeColor=#000000;spacingTop=0;spacingBottom=0;spacingLeft=0;spacingRight=0;verticalAlign=middle;html=1;labelBackgroundColor=#ffffff;rounded=0;entryX=0;entryY=0.75;entryDx=0;entryDy=0;entryPerimeter=0;" parent="1" source="130" target="59" edge="1">
            <mxGeometry relative="1" as="geometry">
              <mxPoint x="-35" y="102" as="offset" />
              <Array as="points" />
            </mxGeometry>
          </mxCell>
        </UserObject>
        <mxCell id="135" parent="1" vertex="1">
          <mxGeometry x="1837" y="210" as="geometry" />
        </mxCell>
        <UserObject label="" tags="Background" id="136">
          <mxCell style="vsdxID=114;edgeStyle=none;startArrow=none;endArrow=none;startSize=5;endSize=5;strokeColor=#000000;spacingTop=0;spacingBottom=0;spacingLeft=0;spacingRight=0;verticalAlign=middle;html=1;labelBackgroundColor=#ffffff;rounded=0;exitX=1;exitY=0.5;exitDx=0;exitDy=0;exitPerimeter=0;" parent="1" source="59" target="135" edge="1">
            <mxGeometry relative="1" as="geometry">
              <mxPoint x="-51" y="102" as="offset" />
              <Array as="points" />
            </mxGeometry>
          </mxCell>
        </UserObject>
        <mxCell id="137" parent="1" vertex="1">
          <mxGeometry x="1877" y="140" as="geometry" />
        </mxCell>
        <UserObject label="" tags="Background" id="138">
          <mxCell style="vsdxID=117;edgeStyle=none;startArrow=none;endArrow=classic;startSize=5;endSize=5;strokeColor=#000000;spacingTop=0;spacingBottom=0;spacingLeft=0;spacingRight=0;verticalAlign=middle;html=1;labelBackgroundColor=#ffffff;rounded=0;entryX=0;entryY=0.5;entryDx=0;entryDy=0;entryPerimeter=0;" parent="1" source="137" target="93" edge="1">
            <mxGeometry relative="1" as="geometry">
              <mxPoint x="-34" y="125" as="offset" />
              <Array as="points" />
            </mxGeometry>
          </mxCell>
        </UserObject>
        <UserObject label="" tags="Background" id="139">
          <mxCell style="vsdxID=119;edgeStyle=none;startArrow=none;endArrow=classic;startSize=5;endSize=5;strokeColor=#000000;spacingTop=0;spacingBottom=0;spacingLeft=0;spacingRight=0;verticalAlign=middle;html=1;labelBackgroundColor=#ffffff;rounded=0;entryX=0;entryY=0.5;entryDx=0;entryDy=0;entryPerimeter=0;" parent="1" source="89" target="94" edge="1">
            <mxGeometry relative="1" as="geometry">
              <mxPoint x="-33" y="106" as="offset" />
              <Array as="points">
                <mxPoint x="1878" y="163" />
              </Array>
            </mxGeometry>
          </mxCell>
        </UserObject>
        <UserObject label="" tags="Background" id="140">
          <mxCell style="vsdxID=121;edgeStyle=none;startArrow=none;endArrow=classic;startSize=5;endSize=5;strokeColor=#000000;spacingTop=0;spacingBottom=0;spacingLeft=0;spacingRight=0;verticalAlign=middle;html=1;labelBackgroundColor=#ffffff;rounded=0;entryX=0;entryY=0.375;entryDx=0;entryDy=0;entryPerimeter=0;" parent="1" source="89" target="96" edge="1">
            <mxGeometry relative="1" as="geometry">
              <mxPoint x="-34" y="109" as="offset" />
              <Array as="points">
                <mxPoint x="1878" y="253" />
              </Array>
            </mxGeometry>
          </mxCell>
        </UserObject>
        <mxCell id="141" parent="1" vertex="1">
          <mxGeometry x="1877" y="300" as="geometry" />
        </mxCell>
        <UserObject label="" tags="Background" id="142">
          <mxCell style="vsdxID=123;edgeStyle=none;startArrow=none;endArrow=classic;startSize=5;endSize=5;strokeColor=#000000;spacingTop=0;spacingBottom=0;spacingLeft=0;spacingRight=0;verticalAlign=middle;html=1;labelBackgroundColor=#ffffff;rounded=0;entryX=0;entryY=0.5;entryDx=0;entryDy=0;entryPerimeter=0;" parent="1" source="141" target="97" edge="1">
            <mxGeometry relative="1" as="geometry">
              <mxPoint x="-34" y="118" as="offset" />
              <Array as="points" />
            </mxGeometry>
          </mxCell>
        </UserObject>
        <mxCell id="9" style="vsdxID=9;rotation=270;fillColor=#ffffff;gradientColor=none;image;aspect=fixed;strokeColor=#000000;spacingTop=-3;spacingBottom=-3;spacingLeft=-3;spacingRight=-3;points=[];labelBackgroundColor=none;rounded=0;html=1;whiteSpace=wrap;;image=data:image/jpg,/9j/4AAQSkZJRgABAQAAAQABAAD/4gHYSUNDX1BST0ZJTEUAAQEAAAHIAAAAAAQwAABtbnRyUkdCIFhZWiAH4AABAAEAAAAAAABhY3NwAAAAAAAAAAAAAAAAAAAAAAAAAAAAAAAAAAAAAQAA9tYAAQAAAADTLQAAAAAAAAAAAAAAAAAAAAAAAAAAAAAAAAAAAAAAAAAAAAAAAAAAAAAAAAAAAAAAAAAAAAlkZXNjAAAA8AAAACRyWFlaAAABFAAAABRnWFlaAAABKAAAABRiWFlaAAABPAAAABR3dHB0AAABUAAAABRyVFJDAAABZAAAAChnVFJDAAABZAAAAChiVFJDAAABZAAAAChjcHJ0AAABjAAAADxtbHVjAAAAAAAAAAEAAAAMZW5VUwAAAAgAAAAcAHMAUgBHAEJYWVogAAAAAAAAb6IAADj1AAADkFhZWiAAAAAAAABimQAAt4UAABjaWFlaIAAAAAAAACSgAAAPhAAAts9YWVogAAAAAAAA9tYAAQAAAADTLXBhcmEAAAAAAAQAAAACZmYAAPKnAAANWQAAE9AAAApbAAAAAAAAAABtbHVjAAAAAAAAAAEAAAAMZW5VUwAAACAAAAAcAEcAbwBvAGcAbABlACAASQBuAGMALgAgADIAMAAxADb/2wBDAAMCAgICAgMCAgIDAwMDBAYEBAQEBAgGBgUGCQgKCgkICQkKDA8MCgsOCwkJDRENDg8QEBEQCgwSExIQEw8QEBD/2wBDAQMDAwQDBAgEBAgQCwkLEBAQEBAQEBAQEBAQEBAQEBAQEBAQEBAQEBAQEBAQEBAQEBAQEBAQEBAQEBAQEBAQEBD/wAARCADIB9ADASIAAhEBAxEB/8QAHQABAQADAQEBAQEAAAAAAAAAAAgGBwkFBAMCAf/EAGEQAAEDAgQCBgUFCQsJBgMHBQEAAgMEBQYHCBESIRMYMViW0xlBUWjjCRQiYZEVMnF2gaHBwsMjMzhCUnKSorG00RYkNEhid4KjsiVjc5Oks0NTgxcmJzZkdZQ3ZYTw8f/EABsBAQADAAMBAAAAAAAAAAAAAAAEBQYCAwcB/8QAQREAAgEDAgIIBAQDBgUFAQAAAAECAwQRBSESMQZBUWFxgZGhEyKxwRQyQtEVUuEjYnKCkvAWMzWisiVDY6PxU//aAAwDAQACEQMRAD8A6poiIAiIgCIiAIiIAiIgCIiAIiIAiIgCIiAIiIAiIgCIiAIiIAiIgCIiAIiIAiIgCIiAIiIAiIgCIiAIiIAiIgCIiAIiIAiIgCIiAIiIAiIgCIiAIiIAiIgCIiAIiIAiIgCIiAIiIAiIgCIiAIiIAiIgCIiAIiIAiIgCIiAIiIAiIgCIiAIiIAiIgCIiAIiIAiIgCIiAIiIAiIgCIiAIiIAiIgCIiAIiIAiIgCIiAIiIAiIgCIiAIiIAiIgCIiAIiIAiIgCIiAIiIAiIgCIiAIiIAiIgCIiAIiIAiIgCIiAIiIAiIgCIiAIiIAiIgCIiAIiIAiIgCIiAIiIAiIgCIiAIiIAiIgCIiAIiIAiIgCIiAIiIAiIgCIiAIiIAiIgCIiAIiIAiIgCIiAIiIAiIgCIiAIiIAiIgCIiAIiIAiIgCIiAIiIAiIgCIiAIiIAiIgCIiAIiIAiIgCIiAIiIAiIgCIiAIiIAiIgCIiAIiIAiIgCIiAIiIAiIgCIiAIiIAiIgC1PcNWWmC0XKts121B5e0NfbqiSkq6apxFSxSwTRuLXsc1zwQ5rgQR6iCtsKB9E+Q2SWZ1y1BXnMfKTCGKK+kzpxJR09Td7NT1csUAdE4RNdIwkMDnuPCOW7j7UBTPXB0o95LLPxRReYnXB0o95LLPxRReYnU+0o923LPwvReWnU+0o923LPwvReWgHXB0o95LLPxRReYnXB0o95LLPxRReYnU+0o923LPwvReWnU+0o923LPwvReWgHXB0o95LLPxRReYnXB0o95LLPxRReYnU+0o923LPwvReWnU+0o923LPwvReWgHXB0o95LLPxRReYnXB0o95LLPxRReYnU+0o923LPwvReWnU+0o923LPwvReWgHXB0o95LLPxRReYnXB0o95LLPxRReYnU+0o923LPwvReWnU+0o923LPwvReWgHXB0o95LLPxRReYnXB0o95LLPxRReYnU+0o923LPwvReWnU+0o923LPwvReWgHXB0o95LLPxRReYnXB0o95LLPxRReYnU+0o923LPwvReWnU+0o923LPwvReWgHXB0o95LLPxRReYnXB0o95LLPxRReYnU+0o923LPwvReWnU+0o923LPwvReWgHXB0o95LLPxRReYnXB0o95LLPxRReYnU+0o923LPwvReWnU+0o923LPwvReWgHXB0o95LLPxRReYnXB0o95LLPxRReYnU+0o923LPwvReWnU+0o923LPwvReWgHXB0o95LLPxRReYnXB0o95LLPxRReYnU+0o923LPwvReWnU+0o923LPwvReWgHXB0o95LLPxRReYnXB0o95LLPxRReYnU+0o923LPwvReWnU+0o923LPwvReWgHXB0o95LLPxRReYnXB0o95LLPxRReYnU+0o923LPwvReWnU+0o923LPwvReWgHXB0o95LLPxRReYnXB0o95LLPxRReYnU+0o923LPwvReWnU+0o923LPwvReWgHXB0o95LLPxRReYnXB0o95LLPxRReYnU+0o923LPwvReWnU+0o923LPwvReWgHXB0o95LLPxRReYnXB0o95LLPxRReYnU+0o923LPwvReWnU+0o923LPwvReWgHXB0o95LLPxRReYnXB0o95LLPxRReYnU+0o923LPwvReWnU+0o923LPwvReWgHXB0o95LLPxRReYnXB0o95LLPxRReYnU+0o923LPwvReWnU+0o923LPwvReWgHXB0o95LLPxRReYnXB0o95LLPxRReYnU+0o923LPwvReWnU+0o923LPwvReWgHXB0o95LLPxRReYnXB0o95LLPxRReYnU+0o923LPwvReWnU+0o923LPwvReWgHXB0o95LLPxRReYnXB0o95LLPxRReYnU+0o923LPwvReWnU+0o923LPwvReWgHXB0o95LLPxRReYnXB0o95LLPxRReYnU+0o923LPwvReWnU+0o923LPwvReWgHXB0o95LLPxRReYnXB0o95LLPxRReYnU+0o923LPwvReWnU+0o923LPwvReWgHXB0o95LLPxRReYnXB0o95LLPxRReYnU+0o923LPwvReWnU+0o923LPwvReWgHXB0o95LLPxRReYnXB0o95LLPxRReYnU+0o923LPwvReWnU+0o923LPwvReWgHXB0o95LLPxRReYnXB0o95LLPxRReYnU+0o923LPwvReWnU+0o923LPwvReWgHXB0o95LLPxRReYnXB0o95LLPxRReYnU+0o923LPwvReWnU+0o923LPwvReWgHXB0o95LLPxRReYnXB0o95LLPxRReYnU+0o923LPwvReWnU+0o923LPwvReWgHXB0o95LLPxRReYnXB0o95LLPxRReYnU+0o923LPwvReWnU+0o923LPwvReWgHXB0o95LLPxRReYnXB0o95LLPxRReYnU+0o923LPwvReWnU+0o923LPwvReWgHXB0o95LLPxRReYnXB0o95LLPxRReYnU+0o923LPwvReWnU+0o923LPwvReWgHXB0o95LLPxRReYnXB0o95LLPxRReYnU+0o923LPwvReWnU+0o923LPwvReWgHXB0o95LLPxRReYnXB0o95LLPxRReYnU+0o923LPwvReWnU+0o923LPwvReWgHXB0o95LLPxRReYnXB0o95LLPxRReYnU+0o923LPwvReWnU+0o923LPwvReWgHXB0o95LLPxRReYnXB0o95LLPxRReYnU+0o923LPwvReWnU+0o923LPwvReWgHXB0o95LLPxRReYnXB0o95LLPxRReYnU+0o923LPwvReWnU+0o923LPwvReWgHXB0o95LLPxRReYnXB0o95LLPxRReYnU+0o923LPwvReWnU+0o923LPwvReWgHXB0o95LLPxRReYnXB0o95LLPxRReYnU+0o923LPwvReWnU+0o923LPwvReWgHXB0o95LLPxRReYnXB0o95LLPxRReYnU+0o923LPwvReWnU+0o923LPwvReWgHXB0o95LLPxRReYnXB0o95LLPxRReYnU+0o923LPwvReWnU+0o923LPwvReWgHXB0o95LLPxRReYnXB0o95LLPxRReYnU+0o923LPwvReWnU+0o923LPwvReWgHXB0o95LLPxRReYnXB0o95LLPxRReYnU+0o923LPwvReWnU+0o923LPwvReWgHXB0o95LLPxRReYnXB0o95LLPxRReYnU+0o923LPwvReWnU+0o923LPwvReWgHXB0o95LLPxRReYnXB0o95LLPxRReYnU+0o923LPwvReWnU+0o923LPwvReWgHXB0o95LLPxRReYnXB0o95LLPxRReYnU+0o923LPwvReWnU+0o923LPwvReWgHXB0o95LLPxRReYnXB0o95LLPxRReYnU+0o923LPwvReWnU+0o923LPwvReWgHXB0o95LLPxRReYnXB0o95LLPxRReYnU+0o923LPwvReWnU+0o923LPwvReWgHXB0o95LLPxRReYnXB0o95LLPxRReYnU+0o923LPwvReWnU+0o923LPwvReWgHXB0o95LLPxRReYnXB0o95LLPxRReYnU+0o923LPwvReWnU+0o923LPwvReWgHXB0o95LLPxRReYnXB0o95LLPxRReYnU+0o923LPwvReWnU+0o923LPwvReWgHXB0o95LLPxRReYnXB0o95LLPxRReYnU+0o923LPwvReWnU+0o923LPwvReWgHXB0o95LLPxRReYnXB0o95LLPxRReYnU+0o923LPwvReWnU+0o923LPwvReWgHXB0o95LLPxRReYnXB0o95LLPxRReYnU+0o923LPwvReWnU+0o923LPwvReWgHXB0o95LLPxRReYnXB0o95LLPxRReYnU+0o923LPwvReWnU+0o923LPwvReWgHXB0o95LLPxRReYnXB0o95LLPxRReYnU+0o923LPwvReWnU+0o923LPwvReWgHXB0o95LLPxRReYnXB0o95LLPxRReYnU+0o923LPwvReWnU+0o923LPwvReWgHXB0o95LLPxRReYnXB0o95LLPxRReYnU+0o923LPwvReWnU+0o923LPwvReWgHXB0o95LLPxRReYnXB0o95LLPxRReYnU+0o923LPwvReWnU+0o923LPwvReWgHXB0o95LLPxRReYnXB0o95LLPxRReYnU+0o923LPwvReWnU+0o923LPwvReWgHXB0o95LLPxRReYnXB0o95LLPxRReYnU+0o923LPwvReWnU+0o923LPwvReWgHXB0o95LLPxRReYnXB0o95LLPxRReYnU+0o923LPwvReWnU+0o923LPwvReWgHXB0o95LLPxRReYnXB0o95LLPxRReYnU+0o923LPwvReWnU+0o923LPwvReWgHXB0o95LLPxRReYnXB0o95LLPxRReYnU+0o923LPwvReWnU+0o923LPwvReWgHXB0o95LLPxRReYnXB0o95LLPxRReYnU+0o923LPwvReWnU+0o923LPwvReWgHXB0o95LLPxRReYnXB0o95LLPxRReYnU+0o923LPwvReWnU+0o923LPwvReWgHXB0o95LLPxRReYnXB0o95LLPxRReYnU+0o923LPwvReWnU+0o923LPwvReWgHXB0o95LLPxRReYnXB0o95LLPxRReYnU+0o923LPwvReWnU+0o923LPwvReWgHXB0o95LLPxRReYnXB0o95LLPxRReYnU+0o923LPwvReWnU+0o923LPwvReWgHXB0o95LLPxRReYnXB0o95LLPxRReYnU+0o923LPwvReWnU+0o923LPwvReWgHXB0o95LLPxRReYnXB0o95LLPxRReYnU+0o923LPwvReWnU+0o923LPwvReWgHXB0o95LLPxRReYnXB0o95LLPxRReYnU+0o923LPwvReWnU+0o923LPwvReWgHXB0o95LLPxRReYnXB0o95LLPxRReYnU+0o923LPwvReWnU+0o923LPwvReWgHXB0o95LLPxRReYnXB0o95LLPxRReYnU+0o923LPwvReWnU+0o923LPwvReWgHXB0o95LLPxRReYnXB0o95LLPxRReYnU+0o923LPwvReWnU+0o923LPwvReWgHXB0o95LLPxRReYnXB0o95LLPxRReYnU+0o923LPwvReWnU+0o923LPwvReWgHXB0o95LLPxRReYnXB0o95LLPxRReYnU+0o923LPwvReWnU+0o923LPwvReWgHXB0o95LLPxRReYnXB0o95LLPxRReYnU+0o923LPwvReWnU+0o923LPwvReWgHXB0o95LLPxRReYnXB0o95LLPxRReYnU+0o923LPwvReWnU+0o923LPwvReWgHXB0o95LLPxRReYnXB0o95LLPxRReYnU+0o923LPwvReWnU+0o923LPwvReWgHXB0o95LLPxRReYnXB0o95LLPxRReYnU+0o923LPwvReWnU+0o923LPwvReWgHXB0o95LLPxRReYnXB0o95LLPxRReYta5n4A0F5R4hsuGcX6ecvWVl62c3oMJ0DmUsJfwCacloLYy4OG4BP0XcuRWyup9pR7tuWfhei8tds6FWlCNScWlLk+3B007ilVnKnCSco812Z7R1wdKPeSyz8UUXmJ1wdKPeSyz8UUXmJ1PtKPdtyz8L0Xlp1PtKPdtyz8L0XlrqO4dcHSj3kss/FFF5idcHSj3kss/FFF5idT7Sj3bcs/C9F5adT7Sj3bcs/C9F5aAdcHSj3kss/FFF5idcHSj3kss/FFF5idT7Sj3bcs/C9F5adT7Sj3bcs/C9F5aAdcHSj3kss/FFF5idcHSj3kss/FFF5idT7Sj3bcs/C9F5adT7Sj3bcs/C9F5aAdcHSj3kss/FFF5idcHSj3kss/FFF5idT7Sj3bcs/C9F5adT7Sj3bcs/C9F5aAdcHSj3kss/FFF5idcHSj3kss/FFF5idT7Sj3bcs/C9F5adT7Sj3bcs/C9F5aAdcHSj3kss/FFF5idcHSj3kss/FFF5idT7Sj3bcs/C9F5adT7Sj3bcs/C9F5aAdcHSj3kss/FFF5idcHSj3kss/FFF5idT7Sj3bcs/C9F5adT7Sj3bcs/C9F5aAdcHSj3kss/FFF5idcHSj3kss/FFF5idT7Sj3bcs/C9F5adT7Sj3bcs/C9F5aAdcHSj3kss/FFF5idcHSj3kss/FFF5idT7Sj3bcs/C9F5adT7Sj3bcs/C9F5aAdcHSj3kss/FFF5idcHSj3kss/FFF5idT7Sj3bcs/C9F5adT7Sj3bcs/C9F5aAdcHSj3kss/FFF5idcHSj3kss/FFF5idT7Sj3bcs/C9F5adT7Sj3bcs/C9F5aAdcHSj3kss/FFF5idcHSj3kss/FFF5idT7Sj3bcs/C9F5adT7Sj3bcs/C9F5aAdcHSj3kss/FFF5idcHSj3kss/FFF5idT7Sj3bcs/C9F5adT7Sj3bcs/C9F5aAdcHSj3kss/FFF5idcHSj3kss/FFF5idT7Sj3bcs/C9F5adT7Sj3bcs/C9F5aA/x+sPSgxpedSWWuwG/LE9GT9gkW0LBf7JiqyUOJcNXaludqudOyqoq2llEkNRC8bskY8cnNIIIIUv6p9LGmnDWmnNTEOHsgcvrbdLbg671dHWUmHKSKanmZSSOZJG9rAWua4Agg7ghbQ0dtazShk8GNAH+Q9lPL2mjiJ/OgNwIiIAiIgCIiAIiIAiIgCIiAIiIAiIgCIiAIiIAiIgCIiAIiIAiIgCIiAIiIAiIgCIiAIiIAiIgCIiAIiIAiIgCIiAIiIAiIgCIiAKQvk7v9Yr/AH5Ym/YKvVIXyd3+sV/vyxN+wQFeoiIAiIgCIiAIiIAiIgCIiAIiIAiIgCIiAIiIAiIgCIiAIiIAiIgCIiAIiIAiIgCIiAIiIAiIgCIiAIiIAiIgCIiAIiIAiIgCIiAIiIAiIgCIiAIiIAiIgCIiAIiIAiIgCIiAIiIAiIgCIiAIiIAiIgCIiAIiIAiIgCIiAIiIAiIgCIiAIiIAiIgCIiAIiIAiIgCIiAIiIAiIgCIiAIiIAiIgCIiAIiIAiIgCIiAIiIAiIgCIiAIiIAiIgCIiAIiIAiIgCIiAIiIAiIgCIiAIiIAiIgCIiAIiIAiIgOf/AMoKzbOCySfysNQN+yqqf8V0AUD/AChDNs0MOyfyrA1v2VE3+KvSCUTQRzDskYHfaFpdY302yfdL6oy+i7apfLvh9JH6IiLNGoCIiAIiIAiIgCIiAIiIAiIgCIiAIiIAiIgCIiAIiIAiIgCIiAIiIDUGsH+CjnD+I17/ALlKmj7+Cjk9+I1k/uUSawf4KOcP4jXv+5Spo+/go5PfiNZP7lEgNvoiIAiIgCIiAIiIAiIgCIiAIiIAiIgCIiAIiIAiIgCIiAIiIAiIgCIiAIiIAiIgCIiAIiIAiIgCIiAIiIAiIgCIiAIiIAiIgCIiAKQvk7v9Yr/flib9gq9UhfJ3f6xX+/LE37BAV6iIgCIiAIiIAiIgCIiAIiIAiIgCIiAIiIAiIgCIiAIiIAiIgCIiAIiIAiIgCIiAIiIAiIgCIiAIiIAiIgCIiAIiIAiIgCIiAIiIAiIgCIiAIiIAiIgCIiAIiIAiIgCIiAIiIAiIgCIiAIiIAiIgCIiAIiIAiIgCIiAIiIAiIgCIiAIiIAiIgCIiAIiIAiIgCIiAIiIAiIgCIiAIiICEnagMdM1iupI8S1wsLsSNw262vncaXoBKKcuEe/CHcQMnFtvv69twroqqqloaaWtramKnp4GGSWWV4YyNgG5c5x5AAdpK5N3u9GDOevxEH7GPE8taHezarL91e+tG8utOn2+wRyPjkudRR0TXMcWnYzse4cvUWxuBHrBK2muaZCVe0o01w8aUdl2Y37+Zh9B1Wcbe8r1HxcDct32527uR6OoTPb/7LMqqfHuDBbL3JdK+KgoJuk6akJc2R5eTG4cQDYXj6LvviPrWWZL5hPzVywsOPZaEUc10hf08LfvWyxSvik4eZPCXxuLdzvsRvzUG3iod1LLDTSVEkhOPJXRtcdxG0Uku7W+wbu3/AAuKr7Ru5rtOOEgDuWmvB+o/Ppz+lQ9T0ujY6fxRWZKo457Vh/sTdL1avf6lwyeIOkpcPY8r9zdKIiy5qwiIgCIiAIiIAiIgCIiAIiIAiIgCIiAIiIAiIgCIiAIiIAiIgCIiAIiIAiIgCIiAIiIAiIgCIiAgj5Ql2+Z2HGeywg/bUS/4LZd/1QYwsOoHCeVVtt1C+xVBtFBWdKw9NLJWRxHpWv3+iGCZmzduZa7ftG2sPlB3b5r2Bvsw9GftqZ/8F4WKH9Lq1wJUn/49XhGTf8MNGvRbW0o3VhQVaOUqdRrxzHc80uruta6jcOjLhbqU0/DEtjowiIvOj0sIiIAiIgCIiAIiIAiIgCIiAIiIAiIgCIiAIiIAiIgCIiAIiIAiIgNQawf4KOcP4jXv+5Spo+/go5PfiNZP7lEmsH+CjnD+I17/ALlKmj7+Cjk9+I1k/uUSA2+iIgCIiAIiIAiIgCIiAIiIAiIgCIiAIiIAiIgCIiAIiIAiIgCIiAIiIAiIgCIiAIiIAiIgCIiAIiIAiIgCIiAIiIAiIgCIiAIiIApC+Tu/1iv9+WJv2Cr1SF8nd/rFf78sTfsEBXqIiAIiIAiIgCIiAIiIAiIgCIiAIiIAiIgCIiAIiIAiIgCItE586pLdkhjewYSqcOPuMdwgbW3CcTFjqamdK6MOjbwnjduyQ7Ej70D+NuJNraVr2p8KhHMt36Ea7vKNjS+NcSxHZZ8TeyIijEkIiIAiIgCIiAIiIAiIgCIiAIiIAiIgCIiAIiIAiIgCIiAIiIAiIgCIiAIiIAiIgCIiAIiIAiIgCIiAIiIAiIgCIiAIiIAiIgCIiAIiIAiIgCIiAIiIAiIgCIiAIiIAiIgCIiAIiIAiIgCIiAIiIDV2prGl2wDkjibEVhqzS3IRQ0tNM0kOjdNMyJzmkcw5rHucD6iAVhOh3F+IcXZQ1z8S3qrudTbr5PSwzVUzpZBD0MMgaXOJJ2c9+2/YOXqXza9bp8xyTpqIO53G+U0BHta2OWQ/nYFj/wAnnVceAsU0W/71d45dv58LR+otPTtorQJ1mt+Nb9eNl+5lat1N9IoUU/l4Ht1Z3f7FYLxLPjbCGILzcsPWTElurrnZ38FfSQVDXy07t9tntB3GxBB9hGx5r2iQ0FziABzJK5q6b804sKajIsQ1pkdR4orKi3VLm83AVUocxx37QJRET69gTzPJQNM0p6jRrVIveCyl289vRFhqmrrTa9CnJbVG032Lbf1aOla/xzmsaXuOwaNyfYF/q5y5D553fDWZeLqrEmJamS23633WeoE8pcw1McUk0bwCeTvoOYNu3jA9i4adpVTUadWpTe8Enjtzn9js1LV6emVaVOotqjaz2Yx+5oW4TyV9ZV3MtPDNUOe53sLyXAfmP2Kxdd+YNRUYPwTg6DozHd4xfKp38f6EYZEB9RMspP1tb9al2KwzMynqcTugcIpcRQUDJCOTnNppXuaD9XG37QtiaqLu+/X7AYiJeIcBWl5A9rmSSuP9Fw+xekXNKFxfW8uqDn9F9zzC1qzttPuI9dRQ+r+x5N1rS7S1h+i4uQxrXnb+bSQn9orI0Q1fznIC2Q77/Na+th/BvKX/AK6hm4Vn/wCBFhoOLmcW3aXb6hR0A/SVZegOrNRkvcacnnS4hqWAfUYKd39riqfpHSxpkn/8jfu0XXRmrnVIr/40vaLKWRaVz91P4cyLuNDYKqyVV1utwo5KxscT2sZCzdzY3PJ5kOe1w2HYGuPsB8jSPn5irO22YkhxhTUba6x1FO5k1JEY2PinEnC0tJPNpidz9YI9YJOL/hV1+Ed644prG/bl42Xibn+L2n4xWClmo87dmFnd+BQKIiriyCIsCzhzowfknh+nxBiwVcwrKgU1NS0bGvnmdtu4gOc0cLRzJJHaB2kBdlGjUuJqlSWZPkjqrVqdvTdWq8RXNswjVznBi7J7AtrueC5aaC4XK5tpnTzRCXo4hG97uFruW5LWjc77Df1kEbPy0xTLjfL3DeL6hkbJ7xa6asnZHvwNlfGC9rd/UHbgKT9a2PLFmFlNl9inDM8kttvFbU1EJkZwPHAzgc1w9TmuLmntG4OxPas6y0zAq8O6Hv8AKyhqzBX2q0V1JBKO2KcVEkULh9YLoyFoqumZ0yjJRxUdRxfbu2sPwaM3S1VrVa8XPNNU1JdmyTyvFMptFOGhvG+KMZ5bXn/Ku/113qKC8OjhnrZ3TStidFG7hL3EkjiLiN+zf2Kj1R31pKxuJ28nlxZfWF5G/toXMFhSWcBERRSWEREAREQBERAEREAREQBFEOQma+NMW6urwyvxJXS2y5y3OFtDJM50LIIuIwsYzfhaWhjfpAbn6XrcSreVhqWnz02pGlUeW4p+vUVumalDVKUqtNYSk4+nWERfhXVPzOhqKvl+4RPk59n0QT+hQEsvBYt43P3RQPlRq0zHt2CMx7liLEDLzd6Smpq+0MrtuGN8lUyCUNaNt2tEzHhg5Dg9QJVLaXs66nOrL99xvjqZt/tVSaW4sgbwNcD9KKUN3Owc3cfzmO22HJXF/oV1YQlUqYcYtJtd6T9N8eJS6fr9pqM4UqeVKSbSfc2vXbPgbiWoMK6ncAYszbuGT1HTXGC50dRUUsNTLG3oKmaDi6VjSHFw24HkEjYhp7OQPh6htUkWRmK7DhuPDTbt8/g+e15+cdG+KnMhY3oxsQXEseeew+iB69xGOUGIX3LUrhzEUL5Izc8Usm58ncM853B29oeQfwqfpegSubWpcXCaXC3B561n9usr9W6QxtbulbW8k3xJTWOp46/PqOpKIiy5qwiIgCIiAIiIAiIgJ91v4pu+F8lmGy3SpoJ7neKaifJTymN5j4JZC3ibzAPRDf29nrWptBePcXXvHOI8PXzE1yuVI+1fPmxVlU+YNlbNGwvbxk7EiTY7dvLfsCyz5QyrczAGF6EH6M14fKR9bIHD9crV+hOJ9pz5vdrkJ3bYqynO/rLamnO/9VbiyoQfR2pJpZeX6NfsYK+uKi6S04pvC4V6p/uf58oK7fOCyM9mGoD/AOqqf8FjGI6odYjLavB7abB8xP8A/j0pWR/KAu3zntA/k4aph/6qqWr34qoMQ5rYGudvdIY7fBhygeXt4T0tNBTxSbfVxsdsfX2q80ym5afRfVwS98FDqtVR1GvFvf4kfbJ1UREXlZ62EREAREQBERAEREAREQBERAEREAREQBERAEWOXzMXA2GsQ2zCd/xRb6C73j/QaSeXhfNueEbeobu3A323I2G5WRrlKEoJOSwny7zhGpCbai02ufd4hERcTmEREAREQBERAag1g/wUc4fxGvf9ylTR9/BRye/Eayf3KJNYP8FHOH8Rr3/cpU0ffwUcnvxGsn9yiQG30REAREQBERAEREAREQBERAEREAREQBERAEREAREQBERAEREAREQBERAEREAREQBERAEREAREQBERAEREAREQBERAEREAREQBERAFIXyd3+sV/vyxN+wVeqQvk7v9Yr/flib9ggK9REQBERAEREAREQBERAEREAREQBERAEREAREQBERAEREAUCfKDsjGa9geG/uhw9GHH6hUz7f2lXxLIyGN80rg1jGlzifUB2lck80M08XZu4mdifGFayedjDBTRsiYxtPT8bntibwgcQBe7m7dx9ZWt6IWs6l466/LBb+ecfQx3TS7p0rKNu/zTe3+XGfqdYbHWuuVlt9xeQXVVLFMdva5gP6V9yxzLao+d5d4Wqt9+mstDJv+GBhWRrK1Y8E5R7GzW0pcdOMu1IIiLgdgREQBERAF5OLcQwYSwrecV1UD5obLb6m4SRsOznthjdIWg+0huy9ZYNnpMIMlsdvPrw5cWf0qd7f0rut4KpWhB8m0vc6bibpUZzXNJv2MV02agmZ9WW8VFVY2Wq5WWojZPBFMZY3RShxieHEA7ngkBH+zv69huNQf8nviOnoceYlwxNUNY+7W2KoiYTt0j4JDyHtIbM4/gB9ivBWevWULC/nSpLEdmvNfvkquj19U1DT4VqrzLdPyf7YCLxqHGWE7niGtwnbsR26pvVtYJKugiqGunhadubmA7gfSbv7OIb9oXsqolCUNpLBcxnGazF5CIi4nIIiIAiIgCIiAIiIAiIgCKZNP2qnEOambN6wFiC02+Gic2pntUtKHNexsTwOjk3cQ/dh34htzaeWx+jTal3tjW0+r8KusPCfqQ7G/oajS+NQeVlrzQWg87NTVTlJm1hbL9uHqeroLtDBU3CqfI4SRRzTviHRgct29G5x3333A5dq34uYeqjMSuxtnpe6t1MymbhqpfY6QN++LaWZ4L3HfmTIXuG22wLR2jc2vRzToajdSjVWYqL9Xsio6TalPTbWM6UsScljwW7OniL+IpGyxMlb2PaHD8BX9rPmjCIiAIvItWLsLX253Gy2XEVurrhaXiOvpqepZJLTO3I2kaDu07gjn6wR2heuuUoyg8SWDjGUZrMXkIiLicgiIgCIiAIiIAiIgCIiAIiIAiIgCIiAIiIAiIgCIiAIiIAiIgCIiAIiIAiIgCIiAIiIAiIgCKY9aOe2KsrqfDuG8BX2O3Xa5PlrauVjWSSx08ezYxwvaQGveX8/+6I7CVvrLnEVRi7L7DOKqwRipvFoo66cR/etklha94H1BxIU6rp9Wja07uX5ZtpduxAo6jRr3dSzhnigk32b/ALdZkSIigk8IiICQflErkYsO4Ls/Fyqa2sqdv/Cjjb+1XwfJ1V+8eO7W53Y63VDB+Hp2u/savk18k3XH+AMPEktfBLyH/fTsYf8AoC/zQ40WvOLMGwtAa2OneA0cgOiquH9dbyMF/wANcHXji/7zz6VR/wDFHxOrPD/2FQ54YjbhPKDGF++cinkgs9SyCQu22nkYY4tvr43tA+tcwcOUE9krcK4rlJbHUXj9z/BBJCS77XkfkVjfKDYxqbZgrDeCadmzL7WzVdRID/EpgzZm3sLpmu/+mtUapstWZYZaZRWqngZFUUlFWMrnM58VY/oJZHb+v6bpNvqaB2Ln0a4bW3pxlzryljwjF/c4dKHK6uako8qEY58ZSX2OgFdUCkoqiqPZDE+T7ASuNJJJJJ3JXQXILUTifOzBuYhxVb7dSVFiojPTmiY9gMUsU/0SHOduWmLt358XZyUn5U6f8XZz4YuFwwUKR9barjDTzx1E4iBhlYTx7kfxSzs7dnHbdcujtL+Du4jdtRw4Jvq3Txv5nDpNV/jStpWacsqbSxvs0nt5GwMa4ZbbNDWCa7o+GarxO+ul5ep7atjT+VrI1gd+ecTY4w/R/f8ARYFpacA89ujsxP6FUGqLA8eCtJdqwjHOKj/J2W2wvmDeESPaCx7wPVxOeTt9alvJY/5T5w2in++BstXTAf8AhWiVv9rCpumXCuLWrdLknUa88NexB1W2dvd0bR83Gkn5ZT9zCa2uD8A2e2B3OC8XKcj+fDRNH/tlW18nw/fKvEEf8nEDz9tNB/goHL3FgjLjwgkgeoE7b/2D7FePyer98uMSx+y9g/bBH/guzpRDh0yS/vJ+rOvonNz1WDf8rXov6GktYVde8w9RNbhyw2Srr6qy0NPbKeCjgfNNMGsdUPcGNBJ2Mz+wdjd1nXyelVPRYpxvYqiN8UklJSyyRPaWua6KSRpBB5gjpSNl+uWH/bGvTE1b998xnuXP2cEfQ/p2TSt/2Pq0zIsY5Rht3hA+uO4R7fm3UG7qL+FzsUvy0oS887/Qn2dJ/wAVhft/mqzj5Y2+uC2URF52elBRf8ovU/SwDSA9gucjh/8AxgP0q0Fyy1EZs3DOPM2vu0NXUS2ekldR2amJ3bHACBxtaP40hHGTzPMDcho20/RO1nWv1WX5YJt+aaX++4ynTC7hQ090H+ao0l5NNv7eZ9WPLv8AOtOmVdt4t/mlwxBGR7NpYH/tismwHiWobo8zMw/JUvcyK820xMLt+ASzRFwHsB6A8vwrTLrzVXTD9nwgd+CiuNVUROPPY1LadhA/LBv+Ve5QX92HsucZYHqHbVNyvFr3Z7BTir4z/ScwflC3dW0zRVPrVRS/+zP0Z5/SvMVnU6nTcP8A6+H6oq75O+o4sJ4wpd/3u400m386Jw/VVcqIfk8MSQwX7GGEHsPS1lJTXKJ2/INhe6N42+szx/YVby876SwcNTq568P2R6X0WqKppVLHVle7CIioTQBERAEREBh9wzby9teP6PK+uxHFFiSviEsFGY3ncEEgF4HA1xDSQ0kE8vaN8wXO3Pm+W7DWtd+JLrK5lDar5Ya2pe1pcWxRQUj3kAcyQGnkuh8UsU8TJ4JGyRyND2Padw5pG4IPsVxqemxsaNCrBt/Eim89uz29Sl0rU5X9a4pTSXw5uKx2bpN+jP7X8SyxQRPmmkbHHG0ue9x2a1o5kknsC/tar1RYmbhXIbGFaSOOsoDbGNP8Y1LhCfsa9x/Iq22ou4rQox5yaXq8Fnc11bUZ1pcopv0WTOMI44whj23y3XBuIaK70kMzqeSWlk4wyQbEtPsOxB+sEEcl7ZIAJJ2AUf8AydkrTZMbw8Tt2VVC4t4jsAWSjcDsB+j2+vYexVZiu4C04XvF1cdhR0FRUE+zgjc79CmanYqyvZWsHlJrGe9J/ch6Xfu/sYXdRYbTzjubX2Oc+ke5GXU1h6rceVbJceL/AIqSdw/Psulq5caVpzTagsGSA7b1skf9KCRv6V1HV50yjw3sGv5F9WUHQmXFY1E/539IheJjiqZQ4Lv9bI8MbT2urlc4nYNDYnHcn8i9taU1j32Sx6fcRtgqXQzXF1LQsc07FwfOwyN/AY2yA/USs3ZUXcXNOkv1SS9Wai+rq2talZ/pi36I530GAsRXPA9zzBoadk1qs9bBQ1nCSZInStcWvI224N2hpO/a5o25qofk66wMu2Obfvznp6Cbb+Y6YftFmXyflnrKfLXENyq6GSOmuN2DYJJG7NnayJocW79oDiRv2bgjtBWlMNZjO0x555ltbTNr2BlbS0kD/o9JK6dr6cns5AO3dt/F4tuey9BvrqeqxutNgsyjjHfutvJ/72PN7C0p6RK01ScsRlni7tnv5r/e5+msehu+MNR8+HbFRTV1dFbKaCCmhHE95ETpi1re0nZx2A5k9nMrW2W2HcR4Nzmy7GJbLWWuWrvlsrIYquIxSPgNaGcfC7mAXRvA3A3237CCtmafMUYhzo1a2zHuIoaVlZ0U1XVNpY3Mia2KjMDOFrnOI59HvzPMlZnq8/zXU/lvcOzaC2c/5lwlP6V207mdpKnpMkv+Vlvvw8o66trC8jU1iLf/ADcJd2Vh+5vzUdnyMh8N2y609ibdq261hp4YJJjExrGt4nvLgDz+9AH+1v6tjsbB+I6fGGErLi2kgfBDerfT3COJ5BdG2WNrw0kctxxbH8Ckj5RWveG4EtjT9Em4zvH1j5u1v9rlu/SbieDFGQuF5Ii7pLZA62TA+p0Li0fazgP5VjbnT6dPSKN5FfNKTTfdl4+htbbUqlTWa1lKXyximl34WfqbfXjYzxLT4Mwhe8XVUJmistvqK90TXAGQRRufwAn1nh2H1leytO6u7w6zae8VyRuIkqo6ejb9YkqI2u/qFyqrOj+IuadF/qkl6st72v8AhrapWX6Yt+iPL0taiLpntQX6HEVooqC6WWaF21HxCKWCbj4Ng9zncTTG4OO+3NvZzW9lA3yfN1NPmhiCzl2zayxumH1uiniA/NI5XyrLpDZ07K/nTpLEdml5fuVnRy9qX2nwq1nmW6b8H+2Ai/JtVSvqH0jKmJ08bQ98QeC9rT2EjtAK/VUmMF7nIReHjXGuGcvMOVeLMXXNtBbKMN6SUsc8kuIa1rWtBLiSQNgF+uFsWYfxphyixbhq5R1lquERmgqAC0OaCQdw4AtIIIIIBBBBXZ8KpwfF4Xw5xnqz2Z7Tr+NT+J8LiXFjOM747cdhKvyic/DZMEU2/wC+VVdJt/NZEP1liGm+D7gavrpanjhM1LWRge3eNkv9g3Xt/KI1sNUcvmU0zJY3MucrXMcHNcD82AII7ewr5aCD/Jn5QOClYNmSuYwgevpLQP1j+ZbuyWdFVLtp1X6SR59f/wDXHW7KlFesX+xiuvx3FnXbx/Jw7TD/AJ9R/itA4Rk6LFlll/kXGmd9krVsfVZjyqx7ndiCSoo4qaOwTyWGAM33eymlkaXuJPMueXnltsC0bbgk6vsT+ivluk/kVcLvseFpdLpSpadTpz58P2Mvq1aNbU6tSHLi+52QREXjZ7aFiuZ2Y1gypwXX42xGZXUtEGtbDEAZJ5XHhZGwHluSfyAEnkFlSlj5QiuMWWOHbaHEfOL6JiN+0Mp5R+0U/S7WN7eU6E+Te/h1lfq13KxsqlxDnFbePJGxMidTuDs86qrstutlbaLzRQGqko6kte18IcGl8cjfvti5oIIafpDbcblbjXPXSZSvwZqYt2H3kh1fZSx4PrMlFHVH87V0KUvXrGjYXShb/klFSXn/APhC6PX9bULRzuPzxk4vq5Y/cIiKlL0IiIAiIgCxG9Zs5dYdxnb8vr3iqko7/dGNfS0cgf8ATDiQ0F+3A0uIIa1zgSewFZcudGri6/N9UU9Vx7fc37lnffs2jjk/WVxoumw1S4lRm2sRb27dsfUpdd1Oek28a8EnmSW/Y85+h0XREVOXQREQBERAc4dbV9lq9QdbHBM5slloaKmY5p5sdwdMNvyzbrozSVDaulhqmfezRtkH4CN1yu1H3U3nPXG9YXcXR3ial3+qE9F+zXTnAdUa7A2Ha0nc1FppJT/xQtP6VsOkVD4VhZrsjj2iYvo1X+NqN6+2WfRyPdREWPNoEREAREQBERAag1g/wUc4fxGvf9ylTR9/BRye/Eayf3KJNYP8FHOH8Rr3/cpU0ffwUcnvxGsn9yiQG30REAREQBERAEREAREQBERAEREAREQBERAEREAREQBERAEREAREQBERAEREAREQBERAEREAREQBERAEREAREQBERAEREAREQBERAFIXyd3+sV/vyxN+wVeqQvk7v9Yr/flib9ggK9REQBERAEREARF8N9vdrw1Za7EN7q2UtBbad9VUzO7GRsaS47DmeQ7BzK+pOTwuZ8lJRWXyPuRYPlLnDg/OewVGIsHOrGwUlU6knirIhHKx4aHAkAuGxDgQQfb2EELOFzq0p0JunUWJLmmcKNancQVWk8xfJoIi+C73+xWCOGa+3qgtsdRK2CF1XUshEkp7GNLiN3H1Ac1wUXJ4RzlJRWW9j70RF8PoREQBF5eI8U4bwfbDecVX2htNC17YzUVk7Yo+N3Y3dx7T7PqK9CCeCqgjqaaZk0MzBJHJG4Oa9pG4II5EEetcnGSjxY2OKnFy4U9z9ERFxOQREQBERAYzmfc/uLlriy7h3CaKyV1QD9bIHkfnC5Dqh9SmbuMIc8sbWiDEtx+4vzWWx/c8VDvm/RupQxw6Pfh/fSX77b7qeF6n0Z02dhbuc3njUX4bcvc8l6U6pDUblQgsfDco+O/P2Os+R9SKzJnAs4duThy3NJ/2m07AfzgrCdQ+pWlyGuGHrecNOvEl3Mk1QBU9EYKdhaCW/RPE4lx2B2H0T7eX26SsSUWJMhMMGklLpLZE+21LSObJInkbflYWOH1OClvX/cH1OcNqoA/eOjw/B9H2PfPOSfs4fsWS07Tqd1rE7eusxTllcuWcGx1LUqlposLm3eJNQw+fPGfuXxZ7rQX600V8tVQJ6K4U8dVTyjsfFI0Oa78oIKnzWZnnifKexWOyYHuLaG8XuWWWSqEbJHw08XDuA14IBe54G5HYx23tGqXan8UZT5B5XW3CFHQ1FwuFHVOqJq5jpGxw09U+FrGtDhzdwnnvyDeXbuNe6tL7U49zYo7jC0jjwxQ1bYuIkRMdTOqnAfUA9xUvStAlC/jK4SdNOeM9fC8brx38iFq/SGNTT5Rt21UahnG2ONcWz8NvMufIXMCqzQylw9jO4lhr6undFWFrQ0GeJ7o3u2HIcRZxbDsDgsdys1L4XzWzIxDl3aLRVU77MyWWnrZJWuZWxxStje4NA3Zzc0tG53bzO22ynfKrNXEmX2jK+3nDFYynulFiR1tpZnsa/oGytge5zWuBBOz37bgjc7+pYDopuUlHqFstOHn/ALQpa6nfufvgKd8n9sYK+y0Cm4XleS2g5cPdjf6YS8xHpDUVSyt4veajx9+flXvlvyOlCIixptgtb6j5/m+RWN5N9t7POz+kOH9K2QtR6sq0UGnrGMxP39NBD/5lTEz9ZTNOjxXlKPbKP1RC1KXBZVpdkZfRkSaPK/5hqIwoS7ZlQayB318VJLt/W4V03XK7IZ0mHM58u7tVSNjir7lA9j3HYBj5305JP4WuXTOxY+wLiiono8M40sN3npm8c8VDcYah8Td9t3BjiWjfluVpemNKUruFWKyuHD8mzL9CqsY2c6Unh8WV5xRF2QcrqjW5iqeGRwZJdMQPIB2DmmaTYH2jfY/hAVn3DH2C7VimhwRcsS0FPfrnGZaSgklAllbz5gfXwu237eE7b7KF9LdxZXatayujkD2V014ka4HcODukeCCvvzxl6DXJY55nuLI73h5/M78LQYCQPZ6z+VSNS02N/fqlN44aKfmiNpepy0/TnWgs8VZrye5fKIiwxvgiIgCIiAIiIAi/OeeClgkqqqaOGGFhkkkkcGtY0DcuJPIAD1r8LVd7TfaCK62O6Ulxop9zFU0k7Zon7HY8L2kg8wRyK+4eM9R84lnhzufWvHxjiSkwdhO84sr2SPp7NQT10jYwC9zY2F3C0EgEnbYbkDc9q9ha61FS9DkZjh++29lqGf0m7fpXdbU1Vrwpvk2l6s6bqo6NCdSPNJv0RCGjy5mg1E4YdLJs2r+eU7yT2l1LLt/WDV00XGeGWqo5I6mnlkhkIJY9ji12x3B2I/KF0e0UYuuOK8jqWO6VU1TNZbhUWwSyvL3uYAyVgJPPYNmDR9TQFtumGnt8N8nssRa9Xn7GE6Faio8VhJbvMk/RY+5ubFGJLRg7DtxxTfqoU9vtdO+pqJCCdmNG+wA5knsAHMkgLkViq/1GLMUXjFNXEyKe819RcJWMO7Wvlkc8gb+oFy6SawKz5np2xa4HZ0raOEfXxVcIP5t1zduGE8RWqw2vFFdaamO03pshoqwxnoZSyR8b2B/ZxB0bt29u2x7Cu3obRpwoTrt7ylwryWdvX2OrpvXqVK9O3ivljHifm8b+nudd8Oz/ADnD9sqd9+lo4X/awFegsfy+m+c4Bw1Ub79LZ6N/2wsKyBYCquGcl3s9DpPipxfcgi8qmxVhesvc+GaTElrnvFK3jnt8dZG6piby5uiB4mjmOZHrC9VcZRcfzLByjKMvyvJBuiapkGovFjaid8klRabgHOc4kvf89gJJJ7Tydz+tXkud2i248WoySTi/0+iuDfw7kP8A1V0RWk6Vw4L9f4Y/dGY6IT49Pf8Ail9mERfA2/2J95fh1l6oHXWOITvoRUsNQ2I9jzHvxBvPt22WbUW+RqHJR5s+9F+FfWwW2hqLjVEiGlifNIQNyGtBJ5fgC09py1Fx5+DETXYZNnlsc0BY35z0wlhm6TgJPCNnDojv6uY2XfTtatWjOvBfLDGX2Z2RHqXdGlWhbzl8084Xbjdm6ERFHJIREQBF8Fpv9iv7J5bFeqC5MppXU87qSpZMIpR2scWk8Lh6wea+9fXFxeGfIyUllPYIiL4fQiIgCIiAIi+Crv8AYrfcaSz196oKavuHF80pZqljJqjh7ejYTxP29ewK+pOWyPjko7tn3oiL4fTzMTX+iwphu64ouQeaSz0M9fOIxu4xxRl7th6zs07LAsg89rRnvh2vvNBZprTUWyr+bVFLLMJdgW8THh4A3BG/LbcFp+on8dUuJqTC+Q+Lamqe4Or6I2yFre18lQRHt+ABznH6mnt7FFWlbPsZMYmrqa+yOdhq508s1ZHHE10vTxROdEYySDxOP0NidvpgnbbcaPTtG/H6bVrwjmafy+XNd/MzOpa3/D9To285YptPi89k89XL0OlaLFMsMysO5s4OpMa4Y+cMo6pz4zFUta2aGRjtnMeGkgHsPIncEH1rK1n6lOdGbpzWGtmjR0qsK0FUpvKe6YREXA5hEXwWi/2K/wAc01hvVBco6eV0Ez6SpZMI5W9rHFpOzh6wea+qLayj45JPDe596Ii+H0IiIAiIgCLWuonMu4ZTZTXjF9mjjdc2GKloukbxMZLK8N4yPXwtLnAHkS0A8ivD0o5tX/ODLB97xVNFNd7dcZbfUzRxtj6YBjJGvLG7AfRkDeQA3aeSmqwrStHer8ifD35/YgvUKMbxWL/O48Xdj9zcyIihE4LA88swqjKzKu/44oYoZayghYylZLuWGaWRsbCQOZALw4j1gHsWX3i92XD1C653+70Vso2ENdUVlQyGJpJ2ALnkAEnkOalfX3mRRUmELLlvQvEtVeZmXWd7XbtbSx8QZ+HjkO4P/dH2hWWk2bvLylTccxb38Fu/Yq9YvVY2VWqpYklt4vZe5IuK8YY6zlxRJfMVXT7p3VlDK7pDCyINp6eKSZzQ2NoA2a157OZ7Srv0O4iqL7kTTUdTUvmdZblU29vG7ctZ9GVrfwATbD2Dl6lGGnvD82IMYXqOKndI2mwpfZJCBuGB9BLCCfZ9KZo/CQqZ0B3uit2WWMX3KsipaS23MVs80rw1kUZp28T3E8gAIiSfqW46TQhKylRpxSUHBpLqy2sGD6KznG/jXqSbdRTTb68JPJWyLxsJYxwvjuzMxBhC9011t8j3RieB2442nm0g8wR7CPWPavZXm8oShJxksNHp0JxqRUoPKfWERedfcRYfwvQ/dPEt9t9po+MR/OK6qZBFxHsbxPIG52PLdfIxcniKyz7KSiuKTwiONXf/AGjqfy3s458UNsG31yXCRv6oX+aXtrTq9zHtTvohwvMLR7Sy4RkfmBX55zVNPijW3gSGjnjqIaaSzPZJG4OY9jZTUAgjkQQ7ff2Ff7YnjA2v+upar9xgvNVO0OPY/wCc0nSs29u8pA/Ct9FZ05W3X8By98nncnjUnc9Xx1H2wfp8oQTV4nwFbB2mCr5fz5IW/qrcurrJ255sZasfhuOSa9YemNbR0rBv86YQGyRDnydw7Ob27lnD/G3Gmtbv+e515eWvt4oIeX8+r4f1VbCqLm6nY2ljVp848b9WvqXVta07+8v6NXlLgXpH7HPbSFV1FpizZs1ZFJTztwpUyywyNLXsfCHtcHNPMEGTYg9i2n8nhFtg7F02331zgb9kRP6Vq62TjBOojOezzHofunY8UMhYeW7XROq2Af8ABHutt/J6xbZc4mm/lXsN+yCP/FXGtvitLisv1/Cf+/QpdCXDeW9D/wDn8Vf79TYOsml+c6dcUuA3dA6hlH5KyEH8xKjfRzbxcs/LLA7sFHcdz7A6klZ+uru1DYZuuMMlsWYeslFJWV9TQ8UFPGN3yuje2ThaPWTwch6yot0L0jpM+WOewh1LaayQgjmD9Bn6yjaJWUdDuY53XF7xSJOvUXLXrWWNnw+0mzTOEcMz3vFbLBLCTJE2pllZtvyp4ZJXg/VtGd1TOlLM2iyjyDx9jitoHVwt11pxFSNlEZnlkYxjW8RB4RudydjsAeR7Ftmn0sYSy6uGP8y6a71NfU3G1XQ0NLJE1jKETxSGTZwJLzsS0HYbNJ3BJ3UX0WIXUWQVzw5G4h1yxVSzP+uOKlk3H9J7D+RXErqj0gpSpU94Zp56uvMvbYpY2lfo5VjVqbTaqY6+pKPvuUfoVwzeMR4vxjnRiCnk6SuL6aCdzCGTzTymWoc0nt4S1g/4yPavjyX/AOz9c+NKbs+cz3f8vFIJP0Kn8jcPtwvk9g6yBgY+GzU0koA/+LIwSSf13uUv4Q/7N+UGulMfo/Op6zYe3ioDL+hUULv8dXvZJYXw2ku6Oy/cv6ln+At7CLeX8SLb75bv9i2URFjTbmsdQWdVsyRwR93amifXV9wlNHQUrJRGXSFhJe5xB2a0DcnY8y0evdSNo60+W7M24nMTEFwlZb8NXWERUTYQW1kzGiThc8nk1pMZI4TxA7bhZx8olWvlnwHZoebj90J3NHaSTA1v9jlVeX2AML5aYZp8LYStUdBRREyPYxznmSVwHE9znEucTsO09gA7AFqqdwtK0eMqOVUrt790Xj7+735GRqWz1fWpRrYdKglt2uSz9vZbczlpLh/7k5uPwtwbfMsRm38Ps4Krg2/Mvvz1wvU4WzmxdYHU72bXiolp2FuxMUzzJFt7d2PastxBaeLWJNbOHlU5gRkj6pK5rv1lTme+mTEmZ2duGce2Wqt8VpiZSxXcTPIlaIZnPLmt2IfxMIaB7W8+R3GrratTtK9GVZ4Uqbfns19zIUNHqXlvWjQjmUaiXlun6bGrNP8AaWYD1l3nCVLtHEIa6k4R2EcDZdvwbsBV1KJqH/sr5RKWI8mzzyb/AF9JaS4fnIVsrF9Im6lWjVfOVOD+puejUVTo16S5RqzX0CIvgtd/sV8fVMst6oLg6hmNPVClqWSmCUdrH8JPC76jsVn0m1lGjcknhs87HWPMK5bYdnxXjK6NoLbA5kbpOjdI5z3HZrWtaC5xP1D1E9gK9DD9/s+KrJQ4jsFcyst1xgbUU07AQHxuG4Ox2IPtBAIPIqWvlAMX4emwPZ8FU15oZrvFe4q2ooo52ungjbTzAOewHdoPSt23A39SzvRHfKa66f7Vb4CDJZq2toph7HumdOP6s7VcVNLVPS43+/E5Yx1Y6n6r3KSlqzqatPT9uFRznrzlZXo/Yz8Z25dHM52UIvR/yjbEZDD0TujDhH0pj6Ts4+j+lt7Pr5KddLepjMXMrOSuw1jK8RVNsulJUT0NK2mjjFNJG4Oa1jmtDiOj4weIknYH27z1iXMCqwxqQxDj2IOqHUuJLi8N4tiYTLJHwg/+Gdh+AL89MV6dYc+8F1rXbdNchRH6xUMdD+0Wqp9HaNvZVZY4m6aabxtJJt47OoydTpLXub6jHPClUaaWcOLcUs9vWejqfgrb5qExzJQwPnNLK2SUMG5bHDTxtc78ADefsAKyWLWjmda8GYPw7h6SCiqcPN+b3CZ0LJhcoIwxsLXcYJZ9AODy07k/SBHYM3yEt9JjnV7mRUXKBk9J0d7D2PG4fE+qbBwkH2seR9ql/HOErpgPF93wfeIJIqu01T6dwe3YuaD9B4+pzS1wPrDgVaW0La74LK4gpOnCDWe9Ye3dt6oqLqpdWfHf283FVZzTx3Syt+/f0fadfaeeOqp4qmE7xzMbI0+0EbhSt8oPiqW3YDw3hCJgAvVxlqpH7/xKZgHDt9bp2n/hW1NLmYddmVkzZrzdWRivoeK11LoxsJHQ7Na/b1FzOAn1bk7bDYLQPygj3XHFmAbEwniMNUQPrllib+osXolo6Osxo1f0OWfJP7m5128VbRJV6X61HH+Zr7H9/J01PDU49oyfv47bIB/NNSD/ANQW7tW+YNRl/kpeJKKnZNVX3eyM49yImzxvEkmwIO4YH7Hs4i3fccjovQgxttzQx/ZGgNEdOAGj1COoc39ZS3mBd7hf8c3+83SrkqqqruVRJJK87l37odvwADYADkAAByV/LSo6jrdSrJ4jHgljt2W3sZ2Ory0zQadGKzKfHHOeW737+ZlGnSR1LnpgaVwLQ+8QNaSO0OcW8vykhdVlznfaabC+dOQsdLTR07Km04Yq3tY0NBfPUF0jj9Zc5xJ9pK6G3e62+xWqsvd2qW09Fb6eSqqZndkcTGlznH8ABKq+lc/xNajUiucX9WW3RCn+Go1qU3+WS/8AFEk63M6MwsB4uw5hfBWJqqzRGh+6c7qUhr5XmV7GBx9bB0Z+j2Hc7g8tvH1cZt4azNyOwlWYYv8ATV3T3aOS4QwktdBO2lfux7Ds5uxkO242O3LdaR1LZw23OzMgYpstuqaO3UdBFbqVtTwiWRjHveXua0kNJdK4AAnkB6zsNViWQROgDyI3uDnN35EgEA/k4j9pWl07RKcKFtUqR4alPd8t89vh7GW1PXqk69zSpy4qdTZbvbHZ49fadasm7bFaMpcGW6GMMbDYaEEf7RgYXH8riT+Vc/tZNmltGoPEcr4+GK4x0lbCf5TXU7GuP9Nj/sXRzCVL8ywpZaLbb5vb6aLb2cMbR+hRF8oHZ6t2aGGa+Chlf8/sraSJzGE9LJHUSEsbt2uHSs5f7QWZ6MV8arLP6lL65+xqulVvnSIY/Q4/TH3NsaLcib5lta7ljfF1LRMr8Q0tKLe1hD5qekLTI7icOQ4y6Pdo7OiG/wBWB6+4pLLjnAGL4mnibDOxp+unmjkA/wCarOt1HHbrfS2+L7ylhZC38DWgD+xSd8ohRdJhbB1x2/eLhVQb/wA+Np/Zrr0m/qX2txr1f1ZXlwtI7NX0+nYaFKhR/Th+fEm2Yj8oVXR1WJ8GRxPDmfcyonaR6w+Rux/qrPvk+L9BUZc4hw26rjdUUN4NWIeIcbYpYY2g7dvDxRO5+3dab1GVUmaOZeW2ErNBLU1c2GrTBI1o5mSoHSnb6gx7ST+H2L59D2KbVhPOapgv90p7dFdLRNQMNVMImuqDNC5jPpEDjPA4AdvMgdqvKtpx9H/gfqiuLH+Zv3WSho3nw+kX4j9Mnw5/ypezwdFlPWumq+b5ETQ77fOrtSRfh24n/qLe1ov9ixBFNNYb1QXKOnldBM+kqWTNjlHaxxaTs4esHmpu+UEr2w5S2O3A7PqcQRSbe1rKeff87mrIaJTb1KjFrfiXtubPXaiWl1pJ7cL99jQOiSqktmoC20cwLHXC21cQB9YMPTD7QwFdCRirDBvFVh5uIba660UHzqpoRVMNRDDsDxuj34mt5jmRtzHtXPmxiHKfUBldiGvd82grrFY6udx5BrZ6IU8h/M7f8q1xRZs3ymzQu+ZzpZfnt2Nyc9vGTsKqGVgZz/it6Ruw9XANuwLXanoz1q4/EQeFwLHfLL2MbpetrQrb8NOOX8R57o4jv7mZ5V5z3WDU/T5jVVVKYcR3l9LWNc7l80qX9G1p/wBmMGMgf901dL1yIlw5U2zAllx7AXsfVXqtoWu9hgipZGEflmf/AEV0jza1DYQyfwnZcS3ykq66W/tDqGkpOHjkbwNc9xc4gBrQ9vPmd3Dl2kQuk9j8etQVrHLaccL+7/t+RO6KX/wKNd3csJNTy/73+15slHXvii43PNmhwuKqb5hZ7VE9tPxfQ6eRz3Pk29pZ0Y/A36yv1w7jSvtWhG+UUFXIx9RiJ1ljIdsWRSGKeRg+pzTICPY8rE85MU2bNjPa74ksjnyW+qwzLVwB4Aezgsr5i1wG4DmuBB2J5grVMGMsR/5FzZcRVHSWequsV2FPwbuFU2J8W7SP5TXgEc9yxm22x30FrYfEsbeg1hw4JNPzb8zO3WofDv7m4Typ8cE15JeXI9PDl0umMrjgjAFU589NRXQUtI0nfhbVTx8TAPZxbn8Lit756YtosuNalJjW5Qvko6J9vnqQz74RGnbG9wHrIbudvXttuN91urTtpIt2Ud6jxviK6Q3e8SW+KOKmfSM4bdUOa0zOZJxO4nBwLGvAaeEu7eIqcddUPRZ7yv2/frTSP/62/qqHRv7bVNS/D0d4cE03yzxNN/8A6Ta+n3Wk6X+Ir7VHODS54UU0s/sY/T5c3DOLU7iDCtHBUvpqvE9wqLhPBtxU1GKt/Sy7kEDYOAG/a5zR2kLWV3tTsM4urbI+fpnWm5SUpl4eHjMUpbxbbnbfh323KqbRTUi76gMfXwcxU0VZID/4lbG79C0ZqEwHirBGamI5r/Y6qipbrea6rttRJGRFVQumLw6N/Y7ZsjNwOYJAOysbS8bvZWUnhRhHC7X1lZeWUfwMb6Kbcpyy+xdXudU1PGufEF3sGSsItFzmonXC9U1JO6F7muki6KaQs3BBALo2k+0Db1r99T+o+/ZHSYVgw7ZbfcH3kzT1fzzj+jBH0Y4WcLhs53GfpHcDh7DvywXXFi6z4tyQwZe8P1raq3Xm7R11PI3ccTBTS9oPMEcexB5g7g81g9H0+tG6tq9SPyTk8eX/AObHoOtajRnaXVvTl88IrP8Amxy9dza+kjFt4xjkVYrhf6+WtraV9RRPqJXcUj2RyuEfEfWQwtbueZ23O53K018opcA2gwNawecs1wqHD2cLYGj/AKz9i9vRbmZgHDWTLrVirHOH7NVRXiq4ILhc4aeRzCyJ3EGvcCRu48/qK0tjrEeLtU+oikwrbDTVVpt1ympbcadoMUdvZLvJUvePvuJjA7ffYkta3mRvbWVlKjrVW5kuGnTcpN8lhp8vUp7++jW0OlaxfFUqKMUubyms59DLKGgOEtdthoy3gDYaKnA/nWdsR/PuqrsefGVGIscVeXNpxdTy4gpJpKd1K6KRgklj36Rkb3NDHlvC7cNJ7DtuApgz1qIsMa3MIXuodwRVD7TK93sa6R0JP2NKm/A2Lqq25s2TG8s3Ryx36CvmcTy2M4dICfYQXA/UVKnpEdZoU602040o4x278yJDWZaJXqUIJNSrSzns+Xl6lman9U+K8ncwLRhDClst08LKWK4XF9U1z3StfI9ohbsRwfRZvxcz9Idmx33PmRnNg3K/AlNmDiB1XPba18MdIyjja+Wd0rC9gaHOa37xrncyOQK586q8c2LMHOu83zDNzZcLXFFTUlPUxhwZJ0cTQ/h3AJAkLwD2HbcbggrYepbMK04hyAygsNru9LWymhjmrm087ZDBPT0kURZIATwu3lfyPMbFdL0ClOnZwcMOX5+3lxb9nJo710irU6l7NTTUccHZz4du3mmVxRagsqajLmizSrcTRW2yVxeyL52OGo6VhIfD0TeJzpBwnk3i5cxuCCskwDmBhXMzDcOK8G3L57bp3viDzG6NzXtOzmua4Agj+wgjkVyioJMVYns8GELbTz1tJaDXXhsMTC4xNMUZqJHexoZTtP2+sq4vk/a0TZQ3miJ+lTYhmP8Awup4Nvzhyiax0do6dayrwk3JS5bbRbeO/PeTNF6SV9Tu40JwSi4898uSSz3Y7vcp1F/MkkcUbpZXtYxgLnOcdg0DtJPqC8TD+PMDYsqZqPC2M7FeainbxzRW+4w1D4277buaxxIG/LcrJKEpJyS2RsXOMWot7vkYdqMzWrcnMrq3F1pgpprm+eGjoWVIJj6WQ8y4AgnZjXu237QFzXzLzBu+aWNa/HV9p6eCvuLKcTMpwRGHRQMi3aCSQD0e+2523Vn/AChFb0eWWHLfv+/30TbfzKeUftFB7aOrfRyXBtO800UrIXy7fRbI4OLW7+0hjj+Qr0jolaUqdn+Jx88m1nu229UeYdMbytUvPwufkik8d+Hv6M7GWqq+fWujrt9/nFPHL/SaD+lfWsdy6qvnuX2GKzffp7NRS7+3igYf0rXurHMq/wCV2UNTecL1QpbnX1kNtgqdgXQcYc5z2g8uLhjcAfVvv6l5/StZ3Fyranzbx7no1a7hbWruqnJLPsbkX8ySRxRulle1jGAuc5x2AA7ST6lpbSJmVfMzcoYrlia4vr7rbK+e3VFTIAHy8IbIwu27TwSNG/r4efPcrMc9bsbHkzjW5McWvZY6yNhHqe+JzGn7XBcqllOjdu0n+ZS4ffBxpX1OtZq8h+Vx4vbJ4eFtTeUuNcxhlnhm8z1tweyQw1bIf8znexpc+OOQndxDWuO/DwkA7OPJe1eM8MtrDmPRZVXW/CDEFe2MxROid0YfJ+9xuk24Q9/8UevcDtIB5q5X3GswFjvBWPqo9BQNvEbzLvsDFHIwTjf1fQeR+VZLqhv81bqJxVeaCpLJKatp2QTRO5tdDBExrmkfWzfdbCfRW3d2qMJPgcG8/wB5NLs5b8jFw6XXCs3XnFcamljf8rTfbz25mC47lmu+L8T38nibNeqh73e10ssrx/0ldOMB4usGFsh8J4txRdYbfbKbDVsmqKmYnhYHU8YHZuSSSAAASSQAuaVDRyV2WmJr3L9KSG/WhrnbdvSw3An87AqI1EYlli0mZR2CKRzRcqakkk2P3zKel4eE+0cUjT+FoVhrlmr6VC1zhcWPLhTfsVugXr0+Nxd4y+DiXjxNL3LUwziewYysdJiXDF0guNsrmF8FTCd2vAJB7eYIIIIIBBBB5r1FP2jXLzMfLrAFZQY3ZSQ0NznjuVsp2VHSzQiSP9049hwtBAjIAcefFuAqBXn19Qp21zOlSlxRT2Z6PYXFS6toVqseGTW67H/vkERFEJgREQBERAag1g/wUc4fxGvf9ylTR9/BRye/Eayf3KJNYP8ABRzh/Ea9/wBylTR9/BRye/Eayf3KJAbfREQBERAEREAREQBERAEREAREQBERAEREAREQBERAEREAREQBERAEREAREQBERAEREAREQBERAEREAREQBERAEREAREQBERAEREAUhfJ3f6xX+/LE37BV6pC+Tu/1iv8Aflib9ggK9REQBERAEREAWH5v4UtuNsssSYburJXQVNvmcOildG4SMbxxu3Hbs9rTsdwdtiCOSzBfjWU7ayjnpH/ezxujP4CNv0rspVHSqRqReGmn6HXWpqtTlTksppr1JK+TuquPDOMqHf8Aeq+ll2/nxvH6irtQfoJx9YMK4uxBga+VT6evxKaVtvaWEsfLAJy9hcPvSQ8bb8jtt27A3grvpNSlT1Oo2tnhrv2X3yUPRWrGppdNJ7xyn3bv7YCjL5RiSQR5fwiRwjc66uc3fkSPmuxI9o3P2lWaou+UYdvJl+z2C6n7fmv+C+dGf+q0v83/AIs+9Kv+kVf8v/lErXAs81VgjD1TUyvlmltVI+SR7i5z3GFpJJPaSfWvcXgZff8A5Cw3/wDtFH/7LF76pa3/ADJeLLyh/wAqPgj4bjfbJZ5aWC73ihoZK6XoKVlTUMidPJ/IYHEcTvqG5X3KC/lA7vUDNHDVBBWStNDZW1UbWvIEUj6iQcTduxx6JvP/AGWrx8FaqM38Z5uZeQ3LE74aZ1dRWu4U1O0R09YJangklkjH0S8sePqBaC0DmtFS6M1rizhdUpLdNtPqxyx25M3V6U0be9naVYPZpJrrzzz2YNxfKFS7Zb4ag4j9O+cfDvyO1PIN/wCt+dbq0/1sVfkhgWeGZkrW2GjhLmuBAdHE1jhy9YLSCPUQQtB/KH19MMNYQtYqI+ndXVE5i4xx8IjaOLbt23dtuvt+T2vlXWYExNYJ6l8kNtucU8MbnbiMTRncN9gJjJ27NyT6yu2raup0ep1f5ZN+rwdNG7VPpJUo/wA0UvRJlXoiLKGvCIp01j56Yxyes+Hbfgaoho7jfZqiSSsfCyUxRQdHuxrHgt3eZRzI5Bp25ncSrKzqX9eNvS/NLt5cskS+vaWn28rmt+WPZz3ePqUWvExpjGwZf4XuGMMUVhprZbYxJPIGFx+k4Na0AcyXOc1oHtIXzZbYkqcYZeYZxXXNjbU3e0UlbOIxs0SyRNc8AeziJWsdadT0GnjEMW+3ziooY/w7VUbv1VztbX4t5C2qdclF+uGcLu7+DZTuqfVFyWfDKOc2J77V4oxHdMSV8r5Km6Vk1ZK5/aXSPLj/AGr3so8GHMLMC3YObGXuuMVW1gHbxNppXtP5C0H8i/LDuVmO8X4dkxLhPDddeKaGvFumjoYHzSxyOYHNJa0E8J3I4uwEDfbcb39pv05YeyzwzYMR4kwxSxY8gpZmVdWyd0hiEsj3BmwcY+NsbgwvaPUQHEdvpur6vQ0y2cYP5t4pLGU8c2uxbex5Xo2jXGq3SlNfJtJt5w1ndJ9r39zSeiXOLDGB8F42sOJrgYDbWvxFDDt9KeNsQbM2PfkXjo4tm7gni5b7HbReeeZ788cxqjGNvsM1Aw0TImUrpRM5scLHOc8kActuJx5cgso1f4MoMvc7rhFh2kbbqK9UMVxZBAOFg6UOjlAHqDnxvO3Z9I7bDZZBpgyExTjTDeNcVS2h0NNX4brbVYpakdGyqrJRwh7Ce1jeAsLuzd+3PY7R6asrVS1p7OoljL5Zxlfv5kmp+OunHQluqbecLnjLT7uxeKNFX6/Ouljw1aQ/dlmoJoNvY59XPKfzSNWy7DGcd5w2+i26USYJZS7dv0osNcJ/rtP2rUV1tVysVyqrNeKGajrqKV0NRTzMLXxPadi1wPYVu/RfSfdjPy3GrHSNhtlYHA/yPm5iA+x2ys7/AIaFrUrw6oy99yq07ir3dO3n1ygn/l2PBs15azS1iSzcfP8Ayyt7y36n0sx/YfmXp5RuiwJn7ga6sZHCyW1UtWARwtLpraQf6TnHf2kla0zAwJibLTFFbg/FNBLSVVK/dod95PHuQyVh7HNI32I+sciCFuzUzgkWDLvJrHlv44KqbDNHb6mSP6JbJFBHLE4Efxv3SXn2/QCjVvhZVGMsxr8WH4xX7e5KofFw60o4lb8GV17Sfpz9jceinOvHOZVzxbZsd4gkus0DYK+jMjGtMQc57ZWt4QPo79HsOwc9u1Uli3GWF8CWWTEWL71T2u3RPbG6ecnbicdmtAAJJPsA9RXJrBOPsX5dXlt/wbfaq2VgDWvdC8hszA4O4JG9j2ktG4PJUvrizutuJn0+UVrts29qqqW7VVa6UBjnPpi5kTWAcxwVAJcSOY229az2qdHXW1OCpLFOe7xtwqOE+7fK8zSaV0lVDSpuq81IbLO/E5Ntd+2H5Fu2y52+826mu9prYauirImz088Lw5ksbhu1zSO0EFTnrwxxbrHlPDgt7y6vxLWR9HGP4sNO9sj3n/i6NoHr4vqK9/RZdRVafLJDNOP8yrKylHE72zueG/8AM5Bab1bRsxHqjy6wrM0TU8sVsgkidzaTNXyNcCPraG7qo0uxjR1d0pvKpOT8eHl9i51a/lX0ZVYLDqqK8OLn9zR+dmC6/BViy0obpSup6ubCYmljcNnNdJXVU4Dh6nBs7QR6ttvUtYRVE8DZGQzyRtmZ0cga4gPbuDwnbtG4B2PrAVcfKI0nBibBldt+/UNXDv8AzJGH9dSGvQNGuHd2UK8ucsv/ALmec63bKyv50Ico4X/ajfuke1XPDmpfD1pvFKaaqNJUvdGXNcQ2ShfKw7tJHNjmnb1b7HYr6dSVxdFrAqalp/0K5WYtP82Cnd/aSvZttd/kTrLbcTCHi02l05jJ2DuDD5dtv6uxaNxHjy9ZgZkPx5iIwC4XCugmmEDOCNvBwNaGgkkANY0cyTyUGjSnc334x8nRS85Nv7E+vVha2H4JPdVpPyikvudcURF5SevBERAEREARFheaebuCMnbHFfsa3B8TKiXoaangZ0k9Q/tPAzcbgDmSSAOXPcgHspUp15qnTWZPkkddWrToQdSq8RXNsxbVpU1FLp4xjLSzyRPdT08ZcxxaSx9VE17eXqLSQR6wSFgnyf8ANNLkvdWSyve2HEtSyMOcSGN+bUzth7Bu5x29pJ9ayXUniOz4w0q4gxRYKoVNuudFRVNNLsQXMdVQkbg8wR2EHmCCFi/yff8A/Rq8/jPUf3WlWipwcdBqqSw1U+yM1Vmp9IKUovKdJ/VlNrV2qCXocgsav37bdwf0pGD9K2itQ6tZeh08YxfvtvBTM/pVUI/SqbTVm9or+9H6ou9TfDZVn/cl9Gc17zR9BZ7BV7bCpo5fyltTKP8ABW98ntV8eWWI6Hf95vxl2/n08Q/UUeYrpXjA2A3MppSaikruF4YeF5+eyDhB9ZG3Mf7Q9qo3QXLX4czIx1giunAdBSB87GHdhlppzEXDcb//ABT7O1ejdII/H0up2p59JYPM+jkvw+rU+xpL1hk2xrqu0dvyJlo3u2ddLtSUrB7S0ul/siK1FmbhBkOhXA1VURFs9tqYa+Nw/kVMkx2/ARM0/kCnvGuc+Y2Ylsls+MsRz3SlfcfunEyc7/N5eF7S2P8Aks2f972DYbbc97Uz1tQZongpWs+lQWOxFo27OF9M0/mJVWrSpo0LS2m026uXjyX3LZ3lPW53d1BNJUsJPxb+qNjaaLxUXzIfBVdUy9JI22NpeI9pELnRD80YWzVpHRjWfOtO+G4ydzTS10J//lyuH5nBaF1mZ/2fFE9hw3lljesLrNW1puzaTpoGidhibC4SbN49j0+xaSPX/JKzy0qpqGqVbansuKWXjKSy8Z8cYRo3q1PTtJpXVXd8McLOG3hZx4ZyzwcmamSXXVVSdK792xDiHi5/fDoqsgH6uQ+wKgNYGfOKMmrNh+gwU+CG63yed7qiWJsoighDOIBruW7nSN5kHk13r2IlTSrdq276oMN3q5TdLV19XcaieTYDjkkpKguOw9pcVnfyhNwlkzMw5ai79zp7EKho9jpKiVp/9oLT3djCvrVvRrJOKp7rqeOL7mWtL+pQ0K4r0W1J1Hh9azw/bJg2jGp6DUVhqMn/AEiKuj/9JK79VdL1y80n1IpNQuDZSduKqni/p00rf1l1DVP0yji+g/7i+si56ESzYTX99/SJGWPdQGYdNq/teDLZiGSmw5R3q32Z9BHyimZMY2zPlHPidxSO2PqDW7bHcnH8CV9VVfKB1kklTK8uu92p3EvJ3ZHRTta0/UOBuw9XCPYtK5yYguVDqAxdiG3VPQ11txRVSU0vCHdHJBUkRu2cCDsWDkQRyWYaX8RXTFGq2wYnvk7Zq+61VyqqmRrAwOlko6guIaOQ5nsC0MtOhb2Mq0El/YNPtbxnJm46lO5v40akm/7dSWeSWcYL7zauBtOVeMbm07OpbDcJW/zm07yPz7KKNEeObfgWszDu9zD309Bh37rSRR7ccjad/MN39Z6UAfWQq31LVvzDIbG0++3FapIf/MIZ+suYeH8S3PDZuQtsga262+a2VTSPv4ZNtx9rWn8iqejdkr3Tq9J/qkl6YZcdJ792Op29Vfpi365R0iyP1Q4GznjloiIsP3uOYRR2ysrY3SVIIJDoT9EybBp3AbuOXtBW5lx7wViF2EcY2PFTGvcbPcqau4WH6ThFI15A/Dw7flXRHJ/VdhjOTMS44GsmHa2kgp6R1XRV08oJqWsLQ8OiDf3M/T3H0nbgHsOwUPXujsrObrWkW6eMv+7jx3f1JvR/pLG+gqN5JKpnC/vZ8Nl9Dea8bGc01Ng++1FPK+KWK21T2PYdnNcInEEEdhBXsrwsd8sEYhP/APaqv/2XLL0t6kfFGsrf8uXgyT/k55HlmYERe4sabU4N35An51udvyD7ArNUVfJ0yBtVj5hOwMdsd9hqf8VXGF8dYMxsyqfhDFNrvIopOiqDRVTJeidz24uE8t9jsew7HZXnSaEnqdaSWy4c/wClFB0WqRWlUYt7vix/qZ7qIiz5owtcZpZ+5e5P3ay2bGNVVsnvjz0Zp4g9tPGHBpllJcOFm57RueR5clsdQB8oHXtnzastvbt/mtgic4/7T6ibl9jR9quNDsKepXioVc8OG9vApdf1Cpplk69LHFlLfx/Yv9FoTSRntf8AOjDd3psUUdHFccOvpoTNShzRPFI13C5zXOOzt4nbkHY+wL09WGb1/wAnss4rthR0Ud3ulwjt9PPJG14pwWPkfIGuBa47R8IBG309+e2yjy0y4je/gHjjzju33z4Y3JEdVt5WP8QTfBjPfttjxzsboUQanauXrhZftbM9vzc2VrdnEcO9c8nb2dq8rTXq3xDaMW1FizVvV1vlLiOsgjp6qWUPFvme8tJ4TtwxHibu1vJvDuG9oX+6mKjfWJhnn+8VFkb/AM8O/StHpmlVtM1CVKtv8kmmuT2X0zgzOqavQ1XTYVaO39pFNPmt39cZKoxhqDy9wPmVZsrb5PWNut5EXBNHE009OZXFsTZXFwLS4j1A7bgnYHdbKa5r2h7HBzXDcEHcELmLnPPfs9M7sa3rBdrqLjBbIpZy1pa0soaNjYnygOI3BLeING7jxgAb8luvTfqxy8y9yotGD8eXC5fPqKtnpo+hpnTCKlLg9kjzv96DI5oDd3AM7Ntl0XvRuULSnVtsyqYXFHm1lZz3dhJsek8al5UpXOI08vhlyTw0sd/bk9T5QjFdVFZMJ4CpGhzblVzXGfb74mJojiaPqJmefwtCnLUjl5HljmBR4XYI+KKw2wyvjbs2SZtO2KR4/nPjcfyrdmqKaLGuqfLvC9LI2elMdrjJad2kTVbnOd+Do+Ar8vlBMF3N2LMO44pLfUTUk1sfb6iaOMuZE6GR0g4yPvd2yu237Qw+xXWi1laK0tuXHGbfe2017IotcoO8d5dc+CUEu5JNP3ZtzQpMJciY2DbeG71bD/Ud+sqGURZEYvkwrouzButPdDQVVPcqylpZmv4Htlmp6ZrOA9odu/kRzG2/qWU6CM0K2+2S+Zc3qrqqqqtkn3To5p5jIfm8nCx8Y35gNeA7tO/Sns250GraXUqTub2L2jPGPHr8so0Wj6tSpU7Wxkt5wznw6vPDK0REWYNUeDj+pmo8CYjrKaZ8UsForJY5GO2cxzYXkEEdhBHapQ+TnleWZgQmRxY02pzWb8gT86BIHtOw+wKpc0pBFlli6UnYMsNe4/kp3qUPk6Zdq/HkO/30Nud9jqgfpWksI50a7ffD6ozGoyxrlmu6f/iy10RFmzThERAF4+L8V2XA2Gbji3EVSYLda4HVE7wN3bDsa0etxJAA9ZIC+q+Xu14as1diC91jaW326nfVVMzgSI42NLnHYczyHYBufUuZ2eOoHE+ZONMSS2fEd2ZhO6BlJT2ueQiE08ZY5rjFuWteZI+Pi++57b7bhXWi6PU1aq0toR5vz5LvwUeua3T0ekm95yzheXN92ShtT+bOFM2dMUWK8ITVBpKjEMFFLFUMDJoZWMe8se0EgHbhdyJ5OBWpdEuZl9wxmtRYDbWN+4eJnStqIHgbNqGQvdFI07bhxLAzbfYh3PsCwimvLzpeuFg4hwx48pakD+fb5mn/ANpq+rEdydlBj/LvGlhtVJ08GGrLeTAWcEc8j4Bxl3Dsd3bHd3budzuttR06nSs6unRWeJz4c+Ca+xg62pVat7R1OTxwqHFjsy0/XfY6gIsMyqzYwhm9hiHEeFbjHK4RxiupNz0tFM5u5ieCAeR3AcBwu2JBIWVxXG3z1k1uhrqeSrpg100DZWmSMO+9Lmg7gH1brzOpRqUZunUTTXNdh6nSrU68FUpyTi+T7SY/lB5nNyrw/AHuAkv7HEA8jtTzdo/KpyyGobhm9n7gynvFdJVU9lgo3kVDi8Mp6CBpbE0HsaXsA2HL6bj6zvQXyhku2AcLQ7/fXh7vshcP0rTeg6m6fPJ8u3+j2Srk+18Tf1lv9Ll8HQJ1o80p489jzvVo/G6RQoy/K3DK8Nyu8vtOmX+UdrxPHhCKulnxDBJFLJWzNldFFwu4YYyGjZgLvXu48tydhtFmT+KIbFp3zmpJZwySrbaKanZvsXumlmY8D/ga4/gBXStcfa64VFpo73hFgIhnucM0m3tpxOxo/wCcfsUTo26mpKuq0svNN5f92WfosEzpPGnpboOhFRjw1Vhf3o4+ryU/8nvjO4xYmxHl9LVk2+oovuvDC7sbOx8cT3N+tzXs3/8ADHsVxrn7k/YJsotXeHMKRh8DZrfTU9Wxx5vkntbZJAf/AK5J2+oLoEqrpRCDvVXp8qkVL7fYt+ik5qxdvU505Sj9/uFzq1YaiqLN6piwbasPzUVJhy61PDVvqg/53sOjDujDRwdjiPpO5Fb4z51lW3L2/wB/y6w5Y6mpu1HRvhbdBK3o6atezdg6Mg8YZxAk7jmNtj2qDrlZ7xQ0dvvFyppGQXqKSqpJnuDunY2V8T3du/75G8c9jy37Oauei+jOlP8AF3UcPbg37U8vHh2lH0s1tVYfgrSWVvx7djWFnx7O5ZNzaXpJsW6kMGSyBxjt1Jwni58Laagcwf1mj7VnetesuOBdQOE8wLPHF85p7fSVsPStJjfUU9TIdnAEEjbowQCDt6wvM0A4fNwzXu1/e3eO0Wd7Wn2SzSMa3+q2RU5qzwVZsWZI4jra2208tfZaQ19DVOiBlpyxzXv4HdoDmNLSPWPwBdt/ewttdpwksx4VBr/Fn90denWNS60CpOLxLic0/wDDj9mTHnTjRmZucmS+KGwMhdeLVZ6iWFh3bHK+4StkYCe0B7XD8i6ALlNldd6i+5pZWWufcstF2t1BHv8AyHXJ85/PO5dWVVdKKCtFQoR5RUseGdvYt+ilw7x17iXOTjnx4d/c536l3ig1RYtnYAwzWKoBI5bl1lcxbv8Ak+Ytspb9Nt99iOVv2U1Of0rQWsqodb9RV7qGjnLbYI/yPpOjP9qo3QPSfN8kqubb/Sr/AFUv2QwM/UVnqu2g0pdsaa9EVWkb9IaseyVR+rRSKmPT/p4xvlrnvjDG1+hpBZKqGrgtk0c7XOqBNUska7gB3ZwsYQQ7bmeW45qnEWLt72rbU6lKHKaw/wChuLmxpXVWnWqZzTeV/U8XGzOkwZf4/wCVa6of8py5ISVu2Fqe3A9twmmI/BHGB/aV11xSzpMM3eP+VQVA/wCW5chLFb5bze7dZ4gXPrauKnY32ue8N/SFsuhmPh1m+pxfszE9N8/EoJdakveJ2BsVL8xslvodtvm9LFFt7OFgH6FGmNP/ALv/ACgVouA+iLjUUX/MohTn+wq2VE+oL/s7Wvl9V9gqJrI4n6jWPjP9io+j7469aL/VTmvoX/SNcFvRkv01IP6m+tSue7Mi8HU1xt9JS1t9utR0Fvpagu6PhaN5ZXhpBLWgtGwIPFI31br18A5nVeYWR0GZ1NSxUFbVWqrn6PYujjqITIxxAPMt44yQDz22Ui698a09/wA0bdgykifxYYouGd5P301SGScIG3qYIjvvzLiPVz0ZRZnY3ttFZbZQYgrKeisUc0VLTQzOZGWyyPfLxtB2dxdI5p37W7BXNn0ajd6dSqLao3xNv+XfC89vco73pROz1OtTl81NLhSX822Xnu39jKsoKLFOdec+FLJia+3K8N+fipqH1tS+fgp4yZpgC4nh4gwjl63BdSlGvyeuFbJLRYnxnNb2PusFRHb4KlxJMULmcb2tHYNzw7nt5bdm6spVnSq6VW9+BBYjTWPN7v7eha9EbR0bH8RN5lUefJbL7+pIt502Ziz6tqbMemttPJhd93gvD64VMY6Po2tc6N0ZPHxcbdhsCOYO457V0iKmvL+rfKmquPkiorHYu3vLuy06jYOo6Wfnk5PPa+zuInxX/m/yhFuk7OlnpPz28NXrajNXGP8AAWaVVgfL6ktxprJFGa19TSmZ08pYJHjk4cLGtc0HbY7h3PsXj5kObSa97BO9wa101vJJ7ADT8K8PTXhd+feaeZWM79UDhrbbW05PR7hj68SRsI9gZG2QAdvZz5LZKjb/AAqV5dRUoU6Mdn2t4X3MS69z8WrZWknGdSvPddiWX9jYuG9eFuxFjDCuHWYP+b0t3bDTXKokqCHU1ZI7g2jG2zog7hPESCQ71cPPAdB+IG2GszFvtxqJPmlDZ47hU7vOzhEZHFx+sDi5/WVorMLKHMnJyspZsY2V1uE1VLHQ1LJmSMndCWkvZwkkD6bCC4Dff2ggfDhHMW74Mw1irD1oY1pxXRxW+pnJ5x07Xlzw0e1w+juf4pd69iLP+C2k7OpCwxw1OFZzlbSy3nwfsVX8cvIXtOpqGeKnxPDWHvHCWO9pep69HhjMDPLFWIcbR2ismimkrbrc69sTzS03Cx8xi6Q7hp4QGsaTv96NtlU+ge8U1syoxhUVjy2nt10dWSkepnzZhcfsjK93SlhmCm0p1ssUQEmIWXaokPrcRx04/NCFM2QObVXg3BmY+B3U0Rpb5h2tnin3IkhqWwmNvr2LSHn1b7hv1qHeVJavRuLOnHCpyil4J4f09ibZUoaNXtr2rLLqxlJ+LWV9fc1He56u8V1diWSncyK4V0z+IncdI48Zbv6yA4LLsOWK4YDvGW2P649HBdbjHcqc79kdNWhhJ9nOMn8BB9a9Gswv0Gme24sfHs+fGlTStdt2xmjYR/Wjf9i2hnTgA1Ok/KrG1LK0GyQOgnj4fv46t3GHb/7L2Abf94fZzuq17BOnR5KUnB+Sf3wUdCxm1Urc5RhGa85LPtkyXRV/n2e+Yl17eKCp5/8AiVgd+qt4Z+ZJ5bYgw3jHMe4YVp6jEtPhquENW97yA+Omf0bzHvwF7dgA4t3Gw2PIbaK+TwilqMRY4uMpe9zaWjY57iSS58kp5n2ngKr7H9L89wJiSi23+cWisi2/nQvH6Vh9arzttY/s5NY4Vs8bYWxvNCoU7rRf7SKeXN7rO+Xv4kZaaNQeE8kMkLm/EUdTXVlViSX5jb6Yt6SQfN4ON+7js1jdhufa4ADmdvwzvxVbc4NReVE9nbL9zbnR2aRscwAewT1b3vDgCRuGkA7Ejdp5lSrxOLQwuPCCSBvyBP8A/wAC3HkJcHYlz2y0hk3Lrc+GnO/qEJlePzbLX3Gl0rWpU1CH58Tb9P6GNttWrXdKlp0/yZgl/q3+pn2SWI6jL/OLO65UhjbVWexYgq6dsg+iZqeqaWAj18/0qZaamr7vXx0lJDNV1lXKGRxsBfJLI48gB2kklbt1DVD8vtRWP4qQOjgvFLPHIG/xxWUbXu/5r9z+Bb20L5SYRbhGDNyqoJJsQvqqulpppJCWQQgBhLG9gcfpgu5nZxHrXTO9p6bavUZLPxIwx48Lwmd0LCpql0tMjLHw5Tz4cSy0YNqftDcE505RyR/RbarVaaQEdn+a1bv8Qvn1/YxuFVmLaMG09dM2ht1qbUSwNkIY6eaR+5IHI/QZHtv7Ssg+UMppKO8YCvsPJ/R10Yd7DG+Bzf8ArP2LzK+mteZuvKKjudDT3C1Axl1PURNlifHFbOPZzXbggyDsI9agafKPwbe+qLPBTqP0aX3ZYalGSrXNhTeOOpSX+qLf2R+GX2QduxJo9veKbNhKG44xu73VNHUPi6SoZBT1bQ6ODkS0uZFMNmjd5fsSRsBonLzLquu2bWF8B4wsVzoW3O40sdVTTQPgnNM9wLnAOAIBYHHi9nNdXLfb6C00UNttdDT0dJTMEcNPTxtjjjYOxrWtAAH1BfNNh3D9TeoMSVFit8t2pYjDBXvpmOqIozvuxshHE1p3PIHbmVU0OlVWk6ylHKm21vvHKwl4LYuK/RGjVVFxlhwUU9tpYeW/F5Z97GMiY2ONoaxgDWgdgA7AvmrbTarnJTS3K2UlW+jkE1O6eFshhkHY9hI+i76xzX1osmm08o2DSawwp2114diu+Rz7u6Qsksd0pqtmw34w8mEtPs/fQf8AhVErTWsGn+c6dMXNA5sbRSD/AIayAn8wKsNIm6d/Ra/mj7vBW6zTVTTq8X/LL2WSNdNl2uGL9R+BJrlKZZKOJtKwn/5VLQvbGPyNjaPyLzNWFkhsOoLF1LTU7IYp6iGtaGNDQ500Ecj3cvWXudufWd1keiLC15vWe1txBQ0/FQ4ep6qorpSdgwS08sMbR7XF0g5exrj6lQuurLW333LH/L+htlM27WCqgNTVNiAmko3kxmMuA3cGvkY4A8gA4+sreXF9Ts9cp0uqUFHwbk2vt6nn1vp9S90CpW/VGbn4pRSf39DQ+mzGtZgjJfOq80V1fRVcNDbWUUjZOF0c8pqYg5nsfu5p3HP6I9i0tFfsa4xit2BpbzW3GKpuQkpKaeQyf53Nwx8Qcd3bu+iCN9vXtuvPpr5U02HK/DkZIhuFZS1chB7TAydrQf8AzyfyLozlPpeysw1aMFYlqsP/ADjEdlooqg1j5HN6SpfvKXvYCGuLHvcGEgkANG54QV36hd2+iznc1Y5lUe2y/TFL6/Uj6bZ3Guwp21GWI01iW734pt/T6E567sORYfxLgeGIAtgw4y3B4G3E2CQgf9f51/OSGla1505IyYhiuptGIW3qobS1bmGSKWmbHEOjkZuOx4eQ4cxudwfVmvyidondTYIv8cRMMT66jlf7HOEL2D8oZJ9i3bpMsMuHtP2Eqeoi4JauCWvd/tNmmfIw/wDluYqWpqdW10KhVoyxPix6OX9C8p6VRu9fuKNaOYcOfVR/qaT1AZB0OWelOgs1PXuuNXhq7suFRW9F0YkNQ4xPAbudm7viA57/AEB7dlJNbcca49ma+tqbpe32e3ADfjmFJRQMA32HJkbWgbnkN+Z5nc9bMT4asmMbBXYXxHQMrbbcoTBUQPJAc0+wjmCCAQRzBAI5ha/wPpqyuy8sWILHhy31YGJaKS319TU1BlldA9rm8DdwGtA4z2Dny332Cj6Z0mha28vxCcqnE2nt+rGfDr5ErVei07u4i7ZqNPhSa3z8ucePUt32kP6QML0OLc7aG2XSmFRQm2XJtVEex8UtLJA5p+oibZUJV6BsM0GLLBd8K4wro7ZRVTJ7lT3FrZpZWskDwInMawDcDhPEDt28+xZxp60q2jI2712JqrEcl7u9TC+jhkEHQRQ05c1xAZxOJeSxu532A5AdpO+F06v0hqSvHOxqPg4UuWz59T8Tu0bo3TjZKnqFNcfE3z3XLrXgFDOvvLfEUeKbfmlFHFLZJqOC1SvDwHw1LXSuaC08y1zTycN+bSDty3uZT/rkpunyErJdt/m1zo5fwbvLf1lW9HriVtqNNx/U+F+DLTpHbRudNqqX6VxLxRpj5PGmfJjLF9ceYjtsEZJ9r5Sf1CvZ+UYZyy/k/wD3Vp/9Kv3+TrtU0duxxe3wuEU81BSxyEfRLo2zOe0H2gSRk/hC+35RCi6TC+Dbjw/vFfVQb/z42H9mtFOon0oXdt/2GahSa6KPv3/+z+hr7XdXS3LHOC7PTMfNMMPxzMjYC5znTTPaAAOZJ6MclOtJW4nxKy0YKZd66qpWVIgttBLUvdTwSzP59GwnhZxOduSANySSt/YQv8uf+qbBdztNvmNFYKegMr5R2R0TA98pH8Vrptw3ft4m77E7Csm6YMkYcVW3GNDgqCiuFrqvnkQppnshdMHcbXOj34Twu5gAActuzkpn8Wo6FQpWleLclHO2Nm88yF/B63SC4q3lvNKLljfO6WOXac9sh8ubdmrmtZcBXqqq6SjuHzkzy0xaJWCOnkkG3ECPvmAHcdhK6EZKacMD5GVNyr8NVt0r6y5xshknr5I3FkbTvwMDGNABOxO+/YPYpQ032iCyax66ynZv3Nr73TRAe1gmZt9gK6Cqp6V6hXdaNCEmoSgm127v+hb9ENOoKjKvUinUjNpPs2X9SDflBKOajzOwxfYHvifLZRCyRhIIdFUSO3BHYR0oXg5Z6Qr/AJp5KwY4s91o6K81NdO+ggqeIRVNI0tjIe8AljhJHKW8iCO3bi3bunXfllifGdhwxiPCtjrbrNZ6iopqmCigdNN0c4YWv4GgktDotjt2cYW8ck8MVeDMpMJYauFM6nrKK1QCqhd2xzubxyNP1h7nBc/4zOz0eg7eS48tPwWerv2OH8Dhe61cK5i/h4TXVu8cn3bkKX/RZnDhjDN4xLc4bfUi2UTKqOlt8zqiaZxkYHsDeEfeRl7yRvvwgDfflrDKGxx4lzUwjYp28UNbeqOKYe2Ppm8f9XddbyA4FpG4PIrmVpOw1V3bURh6nggMkdpnqK2pd6o2RRvAcf8AjLB+FwVjpOu1760uZ3GE4LKxtzT+69yt1jQLfT7y1hb5anLDT35NfZ+xZdg00ZfZX2bHddhSOskqsSWurpdqp7Hilgexx6CLZoIYXEffEk8DefLc6t+Ttrukw7jS28X7xW0c+3s6SORv7NV3JGyWN0Ug3a8Frh7QVzSyqx3ccosIZw2Oiq3013mpKaip5GHhex7Kp0EjgfU4NneQfUQFS6a6+rWdzSnLM26e7/xY9kXupqho97a1oR4YRVTKX+HPuyiNTeqnCFlosV5QWmmq6641VrkoZK+lkjdBBNK3hdGfpbkhjjxEdjuW24O07aOrrUWPUHhuORr447nFVUrwQRxMfTvc0/WONjF92UWjvMHNawUOMXXa2WizXB3FFJO90k8kQkcx7mxtGwI4TsHEb7j1c17edtdbcjdUNpvNptvSUWHbZQOpaXi4ekbFSdExhdty34ACdvaeavrejZUKVXSrR8U5Rlxf4kkvDm+XVgztzWvritS1e8XBCM48P+Ftvxey543yZtr3ulXfsXYFy0t7GdNOHVQJP30k8ohjH1AGN/2/Usj1v4Sp7NkThyCghj4bTd6WGV7Iw0vHzWWPjO3rJawLQuTEOL8+tS9txhdqeap6O7svVwkY1zoKOKJxlji3JPCzdjY2gnfs7eZVkatsPDEeQOKYmj91oIorjGfZ0MrXO/qB4/Kq2tjS7mxs294by8ZMtKCerWt/fJbT2j4QRkeQlyZdslMDVcZ32sNFA4/7UcTY3fnYVpb5QitEeWGHbdxbGe/Nm29oZTzD9oFhuTuqyy5RZEYQtt4sdVd5jc6+3uEEzWGCCN7JS87g8R2qmhreW/CeY25/xrsuRxXjTLvCNuqeOKspnVMXD2O+dSsjY7b18o+X4So9lpta31mM6kcQ4ptPtUc/0JN9qdG50OUKcsz4YJrscsf1Ml+TwuHSYOxdauL/AEe5wVG3s6SIt/ZLbOrSr+ZaecYzb7cVPTw/06mJn6y0P8nlO+jvOPrLLyeY6GQj2GN87T/1hZ5rmzDsFuynqMDU13oZ7vdq+mimomVDDPDCw9MZHMB4gOKOMbkfxwuN7byqdIlGCz80H5YTZysbmNPo05TePlmvPMkibsWYXoG6QcDYrfAfnrMUV1NHIDsOimbJxgj186Vmx9Wx9pWD5dYLbmXPip9XPUtlw/hWrvUXQkEyPpWxta124O7SDz22O+3Nb4zgwxUYZ0OZc26q/fXXanuLuWxAqYqyZoP1hszR+Rfx8ntYm1mM8XXuWEPipbTHQuDhu0ieUO2P4RAVo1fujp9e6i/yzlj/AFfczL09V9St7SS/NCGf9H2waww3YHS6WMZX4Ru2Ziq2NL+HkRHFI3bf6vnI+0e1f3nHmBY8T5SZSYStdcJ7hh+21YuMTWn9xc98bYmk9hcWxOOw7A4e1XBnnlPR4gyIxLgLAdit9te6FtbSUdFTMgjfNFK2Yta1gDQ5/AW7+1w3XPTJXLCfN/MS24HiuUVAyp45p537kthjHE/gG3N+wOwPLftXDS76hqMJ31R8Pw5uWOxcGN/LPmjnq2n3Gmzp2FJcXxIKOe1qfFt548mdXLfSiioKaib2U8LIh/wtA/QvoRF5k3l5PVEsLCCIi+H0IiIAiIgNQawf4KOcP4jXv+5Spo+/go5PfiNZP7lEmsH+CjnD+I17/uUqaPv4KOT34jWT+5RIDb6IiAIiIAiIgCIiAIiIAiIgCIiAIiIAiIgCIiAIiIAiIgCIiAIiIAiIgCIiAIiIAiIgCIiAIiIAiIgCIiAIiIAiIgCIiAIiIAiIgCkL5O7/AFiv9+WJv2Cr1SF8nd/rFf78sTfsEBXqIiAIiIAiIgCIiA5eYbt9fgPU/aKO72+WjfR4xhaY5mFv7kasND279rS07gjkeRC6hqJddrhZM1cAYpdu0RU+5cB/8ipD/wBdbYy31Y27MbPC4ZX2yyRG0tFSy23WOcvNS+AEueQBwiN4a8tO/YG783bDY6zSr6ta0b6nHZQbl3YZitEq2+j3dewqT3c0o9/Es/siglFHyiz97hgSP2Q3E/a6n/wVrqIflE3733BMfspK0/a+L/BV3Rdf+qU/83/iyz6Vv/0mr/l/8kV9l8QcBYaI7DaKP/2WL6cXYkpMHYVvGLK+KSWms1BPXyxx7cT2xRl5a3f1nh2C+HLR/SZcYUf/ACrJQn/kMWrNXOcGGcAZd1+DLlFWT3TF9trKOjZTsaWxDgDTJIS4bN3eBy3J58uSrqFtK7vVQis5l7Z39ixr3UbOxdeTxiPX2429yJM5szazPvMSfF0Vk+5YFv6OOkNT0/BHTxPkeePhbvvs89nrWF4QvTMNYssuI5I3yMtVxpq1zGbcThFK15A39f0VlOS1iN+xBfYms4nUuFL7Ut/nCgla387gtfr12jTpU07SmsRiksdzz+x41XqVajV5UeZSk3nvWP3M0zlx3DmZmbfsb0nzsU1zqA+mZVBoljiaxrWMIaSBsGgciVSnydtU+G6Y7tUgLS+GglLXDYgsdO08v+MKesiMtr7mXmTY7ZbbNU1lvp7jTS3WdkZMVNTB/E8yP22bu1jw0H748gt46TsQWrAeceaX3aqm09JbbfcKubft6Olqd38I7SQ0uOw9ip9aVP8Ah9Sxo7uMY7d2Vj6F3oTqfxGlf1tlKUt+/hefqWlizF+GcC2SbEmLrzT2y205a2SomJ2DnHYAAAkkn1AEry77mtlzhnD1txXfcYW6ktF4MYoat0m7KjjbxNLdgSRtzJ7AO3ZSZqez/wAus68jKQ4Wr6imuFNiSAyWyt4I6oMEE46Tga5wdH9IcwTsdgdip8xdmFRYjyrwDgOOnqW1eEH3bp5XtaIpGVU0ckYYQ4kkcLwdwNtxtus1YdF5XNOEq3FF8TUljkkm0/XC8zUaj0sja1ZxocMlwpxeebbSa9MvyOsEckc0bZYntex4Dmuadw4HsIKh75RGr48T4Nod/wB5oKqbb+fIwfqLbp1D4SySyQyrqsQ0NwuMl6sNFFFHSBpcGw00ImeS4gci9oA33JP1ErRud9up89dXNowQ28yi1VFLQU8U8IDiymdTfO3FgPLctkcQTvsSNwdtlw0CyqWl9+JqrEIqbz28Pyv6nPpFfU7yw/C0nmpNwWOxy+ZfQpbSbjKz4uyOw7FbakvqLHALVWxOGzopYhyB+osLXA+w+0EDGtddT0GRL4t9vnF3pI/w7cbv1VoHTriSuyHzMzUw/PcG1cNgsl1cInnoo62roJR0LuHc7cTek2G5IDz2rSuaGaeK83MUzYsxZPF84kjjiZT04e2nhYxuwDGOc4jfm48+1xPrVlbaDKWrO5py/s01Nd+d8f1Ku66QRjo6tqkf7Rpwa7MbZ/oXFoTwldcO5Nz3S60hg+790krqTi++fTCOONryPVu5khHtGx7CFRqwLISm+aZJYFi224sP0Mn9OFrv1lnqyGqVncXtWpLrk/2NppVBW1jSpR6or33IW+UOt3RYzwlduH/SbZPT7+3o5eL9r+dVTkBY3YcyUwXanxlkjbPTzyMI5tfK3pXA/XxPK/jNzIrAmdYs4xoyu3skz5YHUk4iL2v4eON+7Tu13A3fbZw25Ec1sCGGGmhjp6eNscUTQxjGjYNaBsAB6gApd3qUK+m0LOOcwbz749mQrPS52+p172WMTSS7eSznzRO2sXKvBNZlXinMWHC9EMTU8VH/ANoNZtKYxUxNdvtyJ4CRxEb8I2325LRnyf1ldWZr3m9OaejttkkYD7JJZow3+q16tfNDBzswcvMQ4LjqI4JbvQS00MsgJYyUj6Dnbc9g4NJ29S1fpT0+XvIy03ybFFxoKq63yWAObROc+OGGIP4Rxua0kkyOJ5bchzKnWmqxp6NWtqk8zbwk+x4W3csMgXmkTqa3RuqcMQSzJrtWXv3vKJ7+UFtr4M1rFdBG4R1dgji4tuTnx1E2/P2gPZ+Zbe1Y4SFTpXtMoYA7DP3KqPrDejFOR/zh9i37i7L/AAVj6OjhxnhmgvDLfN09MKqIP6N/r2+o7DdvYdhuDsvWutptl8tlTZrxQQVtDWROhnp52B8cjCNi1zTyIXQtbUadrFReaL371nq8iRLQXKpdyclissLueHz8zltcMC2ml09WjMIUL23SsxVU259SXPAdTCmY5jA0nhID2yHiA33JG/LYf1dbRVZtY8vddBW9E6kw192Hv6PjLxSW2NxZ2jYuLA3f1b9h7FV2tjB1jw7p8tVowxZ6a3W60X6nkip6aMMjja6KdpOw9rpNyfWStC6MMPuxRmLiW1uHF02ELjAC7/vHQxAfY9bG11L49jU1BbYcsZ6k2v6GKu9L/D6hT017qShnG2Wk1+5ri54rqJcnMN4Vhq5GCjxDdaySNryBzgo+idt7QTNsfrK2fhm/1mPtRmU1dcquSrqoaGytmmkdxPfJDHxuc4ntJcCSfap44nbBu52B3A+tbk0mia66icFxzO4+gdUFu/qbHSTOH9isb6hCjbVKq5qM36ptlbp9xOtdU6T5OVNf6WkjfHyiVnrJ7Lgm/RUz3UtFU11LNKB9Fj5mwuYD+EQv2/AVNmbOSt+y1fhKb5pWTU+LLNR1tO17N5WVj4o/nFMWgA8TZH8ht969g3JBXVCengqYzFUwxysJB4XtDhuDuDsfrX+TUtNUmN1RTxSmF4kjL2B3A8djhv2H6wsHp3Sapp9CnQUMqPFnfnnddW2Gegan0Wp6lXqXDnhy4cbcsbPr3yvc5+a16N2C8+KS+2UGCW52GCWV7TtxnaWmcPyxRtafqKmuN5jkbI3taQ4fkVb/ACiFB0eKsHXTh/0i31NPv7ejka79qpYqcO3mksFDiiooiy2XGonpKWfjaeklhEZkbwg8Q2EsfMgA78t9jtt9BqqenUZSe7WPTO3sYPpBSlDUq0YrZPPhnG/ujsW1we0OaeRG4Xy0t2tddVVNDRXKlqKmicG1MMUzXvgJG4D2g7tJ+tTlqh1LV2VOHLVhPBznxYpvNvgrm1jo2Pjo6YkjjAeCHPcWOaARsBue3YGTsmM/77lHju849nt33eq75TSw1cc9UYRJLJOyV0ztmnd30XgcuXGT9Rwtj0aub21lcLb+Vdv7I9Av+lFrY3UbZ7/zPqj92+06fm6W1twbaHXGmFc6Lpm0pmb0pj324wzffh35b7bL6lzvmzNjxFrNsGPrbUTQ0l0uNoiiBfuY4Z6WGJzD6tv3R24+ty6IKv1PTJab8LieeOKfg+teRY6VqsdUdXhWFCTj4rqfmERFVlsFCPyhlc6THmFbaXktgtEk4bvyBkmcCfy9GPsV3KJdTDGX3WLl5Z3ND44/uNBI08xwmuke7f8A4XLQ9GGoX/xH+mMn7Gb6VJz0/wCEv1Sivcx3L/HdTiHRZmFgqrjbvhWSk6CQb7ugqaxsgB39Ye2Xs25Fo25bnbfyfMm+Ut+i/k4jld9tNT/4KZsCzOsOWud+FnOILaS3bg+sw3Nkf7X86pH5PaTfLXEkX8m+cX208X+C0Gt0Y0rG54OTqRfrGLfuzOaFXlVv7VTe6pyj6Sml7JFUrSusqXo9OeKm77GR1Az/ANbAf0LdSgDX1iG6z5r0GHvulUfc6lssEgpRIRF0r5ZS55b2FxAZz/2Qsx0ftHd6hTSeOF8X+lpmq6R3as9NqNrPEnH/AFJrPkb50mYKwpiLIDBVyxDhu23Kpt1VX1VDLVUzJX08nzyUcTC4HhO7Gnl62g+oLTNnqKrI/WfiCgq3MNFih1Yxsm237lWj5xEG/WJmsjP81yorSHF0OnXB7Nu2Orf/AEqyc/pWkdfGCbrbb3hjOG0HgbThlrnkZ99DMx75oH/XvvIN/VwtHrCt7Ksquq3FpVfy1HOK7nltFPe0HR0i2vaS+amqcnjrWEnn/fIjFdPM9LVvpfv9t4f9Gw9CdvZ0Qjd+op30S5UZf5kWLE1RjnC9LdjbrjRSUjpi5pjcGSEjdpBc08t2Hdp2G4OyrjOWg+6WUONbexu7psP3BrB/tfN38P59lJ6Q6lCpqFGhFNOnJNvq34WsEXo1pk6WnVriTTVWLSXXtxJ5NQaH7vHDp9qqiU/Qtd0ruL6gGRyH/qXPJUJk3qLtWVGQ2LMGRUb6vEF2uMjqKJ4IibFPTNjfK5w7eDovveRJe3blxEYBYstLbdcjsT5oS1NY2vsd3pKCKJrm9A6OUDjLgW8RcC5u2zgPqKvLCjKwurmvWWFUnFLvz/WRQajXjqFpa0KLzKnCTl3Yx9onsaS38GofBx//AFFQPtpZQtvaqLXQ4q1cYEw1c4OnoqyKz0NTFuRxwyV0vG3ccxu157FpvSs/g1BYMP8A+tkH2wSBbvzk/wA9104Ng7egntP9V5f+ldF/mOrca6qMn7skaclPR/hvk60V7Iw7NDAWF9NWo/A1XZG1sOHo5KG5Sz1Ehldwipc2fZ2w34WAHb2Ee1dCVI/yhuHqqrwrhLE8NM98NtramkmkaNwzp2MLeL2AmEjf28vWss0q6mLlnLVVWDcQWOGluNntkNQKuGYuFUGlscjnMI+iS5zTyJH0iPVzzeo0q2p6bRv+bgmpvO/PZ/uajTK1DS9Ur6f+VTcXBY23W6/YhrN2Xp82Mazb79JiK5O+2pkKzPSM/g1E4Od7ZqofbSTBfPQZS4xzqzbxjaMGMo31NPcqyrmNTP0TWxGqLS7fY77F4Ow57b7br+sUWm46X88ZqKzXZt0r8PQB9PWPpxGDNUUXJ3R8Ths103YSd+Hn2rbValOvbysISXxHTe3ljfs5owdKlVt7mOoTi/hqot/PO3byZvjVNqnwdiDDmMcmbJbbjJVtmho/ukOD5u6WGpjdM0Dfi4R0bmh2x3Pq22Kl7G2FJbDhbAt5MXCy+2WaoLtvvpGV9Sz/ANsRH8q/fBeU+ZWbFLeL7hGz1F7lt9RCK3903me+cvPHu8gP5sJcd9xxA9m5FPaiNO+N6/J/K+z4Tw/Jc7nhaj+59xp6XZz+OaOIveOY3YJY3c/9sHs3KgUZWeiTpWVOaWZPiy+vg6+zLwWNaF9r0K19Vg3iK4cLq4+S7cLJgeDtHJxxkTT5mWPENbJiCso5qumtfQMMUpjkkb0QduDxPa1ux9R37d+XlaPWVmC9Q8drxPTS2ioht9dDVRVrDC+Hhi6Q8YdsW8mb8/UrpygwfV4Bywwzg+4OYay2W6KKp4Du0TEcUgB9YDi4A+sDdc9NXtAaDURi1m2zZn0s7T7eOliJ/OSq7TdRq6zVubCpLMZKXC+xZwuzPPJZanptLQ6NrqFKOJxcVJZ5vGX24eVguim1P5FV1ytVpoMwaOpqbxVfM6ZsUMp2l4g0B/0f3MFzgA52wPaDsCRmWYj+iy/xPJ/Is1a77IHrkbaa42u60VzDOM0lRHPw+3gcHbfmVf4116WTEVJc8OW3A1dHaLpZqujfUTTMFTHUyQvawhgJaYw4tBPFvsSQOQaYd90Wnb1af4JOS5vLW2GvDqJun9LadzRqK+ag+UcJ75T8ev6mu9L+ObPgDAWbd4u9wbSmWzQUtHyJdLVyNqGxRtABO5cRz7AASdgCV9mg7E0dkzer7ZV1UcNNdbNOw9I8Nb0kb2SNO59jRJ9pU909xqG2ipsUTC5lZV09SQOZL4mytaNv/rOWX44ybxZgzMaiyvNOay83COgFOxoEbZZ6mNh6NrnEDZsrnR8ZIH0CTw8wNTdWNGr8elUlh1VnwUUlnyfeZK0v69L8PVpwyqLx4uTbx5rbkXrlzqvwBmVmfWZa2Wkq2Pb0ot1weWmG4GIEv4QObfotc5u/a1pJ4TsDrDVpqmp7TSXTKvLy43ahxDS1sMNfcoAImRxBpdJHDK14eJA7o2k8O23GN1pXAOBcTZC6kcvbTi7oYbhWz0skkcUge2JtU59PwFw5OI3IJHLffYkDc6kxxdJsSYwxDiY8cjLhdampdLsSN5ZXvaCfrG+34D7FT2egWSvY1aXzU1FNb5TllrPhsXV70iv3Yyo1flqOUk9sNRwnjue/Mq/T5rExffsT4NyxxPa6asjqmm3VV1lle6qmnJf0UhJOx5dG124JJ3dvz2XwZ0W+hxbrhw5h+6UUFbRtfbYZ6eeMSRyRhplc1zTyIIcdweXNS/ht+KMOSUuY9igliZYrpS9FWlgdHHV/SliYQeTtxC8kbEbDn2jeiMvMTHNPWrh/FxYwCto6atkYz72N7bM0uaPwSAhd9zptKxr1bq3SjH4c84/m2flszotdTq39vStLluUvi08Z/l3Xnuvc97QpIcNZqZgYDnJbMyDctJ9dLUOiP2dMsl+UOquDBmEqLf8AfbnPLt/Mi2/XWndRNVe8jdTV4xRgSpNtqrhAbjA/hDwHVULmTO2PI/uhkcAQQHbcuS1TirMjMvNiotVrxZiWuvktO/oKCKUt5PkIHINA3cSGjc7nkOa+UNNneX9LV4yXA4ptdeeHHh2dZyr6pCy0+ro0ovjUmk+rHFnx7eo8W80M2FcSz0UEsgmttQOB7m8J427EHb8PYt1aisWW2v1P0eJ6KrgqKSB9mqOOKQPbsI4pCNxy9a2XrkyqwvhzBuHsc2yzU9Pd5a6G13Cric4GoApXcHE3fhJAg++23+tRn9YVlYVaerU4Xi2wpRx44z9NvEqtQpVNHqVLJ75lGSfhnH138CyPk+rSy6zZg3SvjEgnioqRxI++EhndIPzNUm4kwzdcMYgu+HrhSytqLLVS0tT9A7MLHlm5PqBO2x9e4Vu/J627osuMS3bh/wBJvYp9/b0cEbv2q23n/lJFmflliGwWSipIb5WsiqIJ+jax080Dg5jHv23IIBYCTsOLdZ963HT9ZrRmvlm4rPZhJZ92aRaFLUtEoTg/ngpvHblt49kR7lNenZh6p8AVb39L81tluY93bvJTWlrpD/5jHK/cV2CmxXhe74XrCRBd6CooZSO0Nljcwn7HKM9HGRGYmGM158W42whX2ektFDPFDJWR8HSVMnCwBgP3w4HSfSG47BvzVwqn6S16f4ynG3kmoRSyu3Lf7F10WoVPwVSdzFpzk3h7bYS/c5DS4qvlvwXWZZ1D3soxemXN8W/JtQyJ8Lt/yFv9Fbg07UmMsldTVkwliBhoJrmwUVdCCHsmhqIBJEA7sOz+iO47C0j2heJjzK8XDVfccto94IbriVp3Dd+ip6lzZiQP9mOQ7fgW3tdeD7xhfGOGc6MNzTQP2ZQyzRtG1PUwkvhf7PpNLhseX7n9a19zd0bhws1hKvCT82lwv6+aRi7WzrW6qXry3bzivJN8S+nk2bIyb1bx5q5w3PL91lpKO0yMndZapsjumn6I/wDxAeX02BzwABw8O30u1Z3nTqIwJkzaKiWuraW6XyN8Ucdkp6xjakl4Lg545ujZwgniLdubR2uC5nRYYxJT4WjzAgpHx2hlz+5jK1krQWVgjEoYADxA8H0gdtuXbuv0x1i6vx7i25YvubS2pucolkaX8WxDQ0DfYb8gFCn0UtKt1GcH/ZpYaXasdeetc/6k6HS+8o2soVF/aN5TfY88ljqfLt8i38dawcocU5V3izRXGqpLxiHDFc2OmMDpG09TJBJG2B8jRsHFw5HbbYtJ23UlZd41fhPLPMW30V3+Y3C9wW2kgEc3RyvYKhzpQ3Y7kcG4dt6nc+1a3RXFnoltZU5UqWcSae+/J5X0KW9126v6sa1XGYpxWNvzLDfudHtEOMLpizJRtPd6yWpmsdzntsckry95i4I5WAk89h0paPYGgepb/BB32IO3IqGtF+Z1PhHLnMyikaBUWShfiOn4juJOGFzXN2+pzIh28+P1bc/00AYpuldj7GNsuNyqKh9yoG3OXpZC7pJmTBrpDv8Axj03M+tYnVdGnKtd3K2UGnjHPi3fhjJu9I1uEaFnbS3lNNZzy4dl45wXEiL4L9fbRhm0VV9vtxp6Gho4zJNPUStjY0fW5xA5nYD6yFloxcnhczWykopylyRzl1XZ3YkzHzCueFjL81sWGa+qt9LTwPcBUFknA6aXns4ks+jyGzTt27k4nizL2is+SGA8wqaieyqv1ddYKycvcQ9scjGwDhJ2G3BN2Ab+vfYLceivLrDWaWL8Y41x1YKS8No+j6KCtibNAZ6l0rnuLHAhxAZy37OPft2IrPMbI7L/ADLwTSYAu1ufbrTbpo56Jlr4Kc0zmBzQGDhLQC1zgRwkc/bsV6Hcazb6NWpWEItKDXFjrzF+u7T8Tza20S41ujV1CpJN1E+FPqxJY8Nk14HLmHEBiwdWYWLX7VNzprgD/FHRxTMIP1/uo+wqgtTeTmPqyqwFXYXwZd7tQ0uCbdQSy0FHJOIpadr+IP4AeH6DmEb9vPbsXwZY6TsSXjO+qwjjHDV6gwnZquoNTXujMLKqFnF0AZKW8L+kPR78HPhLvvTzHRCONkUbYo2hrGANa0DkAOwL5rWu07K5pTtsSeG32fMkly69j7ofR+pfW1WF1mKyku35W2+fVvgij5Out4Lpjm3F379T0E4H8x04/aLTFlz0u2BtQl5zXtMnz2nrrvWGpgL921VDLMT0YP1NDCw9gLG9o5H/AG/YnxXkRmFmZg+jo42i+trbRK+UPY9tNK8ujmiII2JY4Eb7jZx/CtnZC6fGZhaacZ3KGjpqq+X2qabN0gAML6Pct4Xu+8dI6SWMnfbhI3PbtNrRt7apVv7nDp1uCK8Gkm/v5EKhK5uadHT7XKqUeOT8U20vXbzPr1qZsYBzKwZg1+DMS0dwf08lZPTxygzUzXwt4RKwH6DuZBB7CCF+PyemHJqnHGKMWc+ht9qjt/ZyL55Q8fYKc/0lOuYOWmMcrrlRWbG9sFvr66ibXsp+lZI5kTpJI28RYSASYnHbc8iPXyHSnILJrDGTmDzRYfmrKia8GOurJ6tzS8uMYAYOFoAa3c7Dbfdx58+UHVZ2+laOrShLiU88L57Zy916E7SIXOr607y4jwuGOJct8YWz37zZq5X40wo+2aj7lhN0Ja1+LTDEwjtilqgY/tY9v2rqgtC4/wBLNFjLPWyZxUt/bRR0lRSVdxozAXuqZaYtMZa7fZoc1kbXbjkG7jclZ7o9qVPTqlT4zwpRfquX3NJ0k0urqVOl8FZcZLPg+f2NE6x6fEuW+oHD+bFtgLIp4qapo5w8cL6ilcBJE4DmPomPfcbFr9uezgKE0z6iX58W+9Mudlp7Xc7NNGXQwSueySCTi4HDi57gscD+Q8t9lrz5Qy39JgHC114f9HvD6ff2dJC537Jaq0I4wsWFse4kjxDe6K2UtTZTMJKudsTXOilaSAXEbkNc87Dns0n1FXEraGo6DGvKOalNYTXYn+xSxuammdIZW8ZYp1Hlp9rj+5qHOupnv+dmM5KWN88lRiKtghYxpc6TadzGAAcySANgq6zr0w0dbp7sdHYrTW1eLMFWqKOlio9i6qc+RjqpjmbEv5mZ7Wt2PEdhvuQcH0TOo8RZ6Y8xQxjJmS01RPBI5nMCara8EbjcEhv4VcC4a5q1WyuKNvSWPhYfjstn5ZXmc9A0ejfW1e4rPPxW14bvdd+cPyJu0TZPYgy3wZdcR4soZqC54mmiLKKeMslp6aHjDDI1wBa5zpHnh/khhPMkDdeZ1mnxFlviqwUsJlnuNlrqWJg7XPfA9rQPr3IWTIstdX9S7u3dz/M2n6cl7GttNPpWdorOH5UmvXm/c5OZEOjZnXgTpjsP8oreP+IzsA/Psusa0bcdJWX9TnHbc27dO+2toamOvltNNCGwzVkbuJkwcCOD6Qa5zQNnFu/Lc77yVr0i1ShqlSnUo52jun1PPLvKjo3pVfSadWlWxvLZrrWOfcc4NcTODP2vd/Lt1G7/AJe36FVOiigkotPtlmkjLPnlXW1A3G246dzAf6il3XWzhz2kd/LtFI7/AKx+hW9kTa22bJjBFvDAwtsVFI9oG2z5Imvd/WcVaazVxodtT7ceyf7lTolHOv3VTs4veS/YzpERYk3Z+c8EVTBJTTsD45WFj2n1tI2IU9YS0PZV4RxZa8W0t7xFVS2mubXQU1RPCYS9jg6MO4Yw4hrgCefPb8O9EopVve3FpGUaM3FS546/95IlzYW15KM68FJx5Z6v94ChPXNcazC+e2DsX0Ecbqm32qlqYBK0ljpIKyaRodsQSNyN9iDt6wrsU664cAR4qylGIqGyvq7rh+rjljlhjLpWU0h4JRsOZZuWOPs4N+wFWPR64hQ1CHxOUsx9dis6SW87jTp/D5xxL03NDZe3i0Z86ybZi6qtoloKpsNykpnFxbDLT25vC0nluGTsaPY7b1gr79aOQuBMs6S04zwPbZbc2718tPV0rZS6nY8s42mNp3LOYf8ARB4RyAAA2WxdCmT9ywtaLtmLimwVNBcLqGUds+dMMcgoxs57ww8wJHcGxI5iMEcjuc71jZa4qzNypp7bg62G4XG23eGv+bMIEkkQiljcG7kAkdK123saVf1NThb6zSo0Z4pQSg99njPPq2zjPcZ6npc7nRKtetDNWbc1t8yy1y698Zx3mE/J6w8OW2JZ9vv75wfZTxn9ZVUtI6R8qMU5SZY1FpxjBDT3K53OS4upo5BIYGOiiY1j3N3aXfuZJ2JH0hz33W7lmdbrQr6hVqU3lN80anQqM7fTqVOosNLdMIiKrLYgjU/Wmy6r6O7B3CYbfSz8Xs2ieN/zLPPk7qER4XxlcuEbz19LBv7ejjedv+Z+das11vkpM9Y54js6SxU3P6i6Zp/Mt66AbbJSZO3SvkZt8+v87mH2sZBC3/qD1vtQaj0fhL+aMF6PJ55pycukc4/yym/VYPT1wYCqMXZOuvtA3iqcLVTbg5vDuX07gY5QPZtxNefqjKhPKrAFfmfmBZcEUAkb90qlrZ5WDcw04+lLJ7PosDiN+07D1rrbU01NW00tHWU8c9POx0UsUjQ5kjHDYtcDyIIJBBUdaYMn8U4L1J4wrbhhCutdjtkNfBQ1EsLxTvElSzoWxPd++AxBx3G/Ic9iVF0LWHa6dWpN/NBNx8+r138yX0g0VXWpUKyXyzaUvLr81t5FVYCwRY8ucH2zBGHmSC32qExRGUgveS4ue9xAALnOc5x2AG5PJc09RVkocBZ3Yyw5hqjjt9AZWBlPECGMjmiimLWj1N3dyA5AchsNl1MWp8UaaMt8XZqUWbt1FxF3pJaed9PHM0U1TLAGiJ0jS0uOwYwbBwB4RuO3es0LV46fc1K1y21JPzlnKz7795aa/o09RtadC2STi15Rw08e23cYxklkdhq/6acM4IzIw+6qiqnOvEkEjnwyRSySPfG4FpDmuEbwDz7CQe3ZfRq0sVqs2l6+2e1UbKaitMdsho4WfexMZVwRtaN/Y07Le6+C/WK0Ynstbh6/UMdZbrhC6nqYJN+GSNw2I3HMfhB3HaFBjqVR3kbmo3hT48Z255ePoT56XTVlK1ppcThwcWN+WFn6k3/J9U8Dcob5VNhYJpMSTRvkDRxOa2lpi0E9pALnbD/aPtVOyRxzRvhlY17HtLXNcNw4HtBC8TBWCMLZd4egwtg60st1spnOcyFr3PPE47ucXPJc4k+skr3V1aldRvbupcQWFJ5WeZ3aZaSsbOnbTabisPHIlrD+hTB9uzBvl4utwjq8K1dPUxW22BrumpHTNLQTI4kHog53A48R34HHm3nrLTxp4zMwVqRpJb5hmsjs+GZqt8l0kiLKaoYYZGROieeTy4vYdhuWjffYjZXkinx6RXvw6lOo+JTjw79XVld+7K6XRqx+JTqUo8LhLi26+vD7tljsRAmv/CTrXmVZsXRMIgvtt6F59s9O7Z39SSL7CqR0b0XzPTthdxGzqh1bM78tXMB+YBZtmnlFgvOKxwWDGlHNLDS1AqYJaeXo5Yn7EHhdseRBIIIIPL1gEZFhvDllwjYaHDOHaFlHbbdC2CmgYSQxg+s8yTzJJ5kkk81yu9Xjc6VSssPii9+zCzj6+xxs9Gna6tWvk1wTWy68vDf09ya/lA8OS3DLWw4kiG/3IuxhkG3ZHPGRxf0o2D/iWrNF8d0x1n/ccc1kTQLfapJJ3b8hI8MhYB+EcZ/A0qws6ctmZtZa3nAnzxtJNXsY+mqHN4mxzRvbIwkdvCS3hO3PYnZav0iZBYtyVpsTVWNDQitu8tPFAymm6UNhh6T6XFsPvjJ2dv0Rvt2KbaanRp6JUt5SXxFlJdeJNZ+/oQbzSq1TXaVxGL+G8NvqzFPGfb1KHREWTNgEREAWsNTdE+vyExrAxu5bbHT/AJI3tefzNWz14WO8NuxjgjEGEo6hlO+9Wuqt7Znt4hG6WJzA8j17F2/5FItKio3EKj6mn6Mj3lJ1repSXNxa9USf8nTRbRY8uLh9863QNP4PnBd/a1UBqYpfneQuNoiN+G1vl/oOa/8AVWK6TsisTZJYdvkOLayjlr7xWRvEVJIZI44omkNPEWg8Ti93L2Bvr3A27jTC9HjfCN5whcJZIqe80M1FJJH99GJGFvEPrG+/5Fb6peUqmsO5hLMVKLyu5L9il0mxq09FVrUjibjJYfe3+5yMw5ZKzEuILZh23xOkqbnVw0cLG9pfI8NH5yuxccbIo2xRtDWMAa0D1Adi1PkZp2wxkzh5lvnfR3+7R101dHdZ7cyOWEyMYwti3LnRjhjG+zuZJ/AttLs6R6xT1WrGNFfLDOH25xv7HV0Z0WppNGUqz+aeMrsxnbPmeLi3BeFMeWoWPGFhpLtQiVs4gqWcTWyN32cPWDzI3HqJHYSvVpaWmoaaGio4I4KenjbFFFG0NZGxo2a1oHIAAAAL9UWec5OKg3suo0qhFSc0t319YREXE5BERAFqjVLhC+Y4yNxHYMNW2Wvubvm08FNEN3ydHURveGj1nga7YDmewcytrou62rytq0K0ecWn6PJ0XNCN1RnQnykmvVYNNaScDX7AGStttOJrZJbrlVVNRWzU0reGSMPfswPHqdwtadu0bgHnyWFa/wCg+c5O2qtaPpUeIICT7Gugnafz8Kppab1dYWkxTkJiSOCRrZbWyO6N4hyIhcHPH4eDj2+vZWlheurq0LqptxTy/N/1KrULFUtHna09+GGF5L+hN3ye1OHZl4kqtv3uxdHv/OqIj+qr1UOfJ30/FijGVVt+90FLH/Skef1VcakdKnnU5rsS+iI3RGONKg+1y+rMJseTWXWG8f3PM2z4fZT4gu7XtqagSvLSXkGRzWE8LXPIBcQNzz9p3zZEVDUq1KzTqSbaWN+xdRoaVGnRTjTikm87bbvmwiIus7App00aYMS5L5iYjxXfbvR1VHNSyW22CF5fJLC+ZknSy7tAY4CJg2G/NzvUBvSyKXQva1tSqUab+WeE/Ih3FjRua1OvUXzU22vMLlbqMsdVhTPDG9r4HwR1dylqw3bYPincJ27e0buH2fUuqS0tnzpgwxnnc7Te6q8S2W4W/wDcaiop6dsjqum336M7kbOaeLhdz24nbg8trXo5qdLTLlyr/kksPu60VHSbSquqWqjQ/PF5XVlcn+/kZPp6oPubkdgam4duKx0s+3/isEn66jbXzSGnzsoptthU4fppd/btNO39VdArbb6O0W6ltVvhbDS0ULKeCNvYyNjQ1rR+AABQ18oZQ9Hj3C1y4f3+0SQb+3o5nH9p+dSujdf4mruf83F77kTpPb/C0VU/5OH22Nw6DaOOnyPlqGxta6qvdVI5wGxdsyJo3Pr+9W78e2M4nwNiLDbW8Rutqq6Jo+uSFzB+crUeiKDodP8AapNv3+urZP8AnFv6q30qrV6jWpVZrmpP2Zb6NTUtLowfJwXujjO+qqXUsdA+R3QQyPlZGexr3hocfyhjfsWx8mqq/Y5zvwBTX663G7OpLpQxQ/Op3zuipoJekETeInhjaA47DkASVV2auhXDWNMRXPFOEMUPsE1wJndQPpBLTCcndzmkOBY08zw7HYnly+itpZL6e8CZO2SgjorTRV2IYY3fOr3JTj5xLI77/gJ3MbNjwhrSBsOe5JJ2d50osZWjdLebTWMcm12/tzMRZdE7+N4lVwqcWnnOeJJ8sc/XkSvlzjK1aYtTONrTjOWWCy1LaqPpWRGRwa5wqKZwa0bkuYQ32bv57AEjS7zFnHnmdnVcVPjLFGwLtumhhqarl/KALWP+sDh9gW2tfNh+5ucVBeo2bR3ezQvc72yxySMP9UR/aqM016csv8AYbsmOvufNX4julspK2Sor+CT5lLJCHPbTgNHAN3kbnd2w23SWo29jaR1KWXVqwUdu1Ln6/QQ024v72WlxaVKlNy354b5d+3LxPE1zW2lt+QVut9FEI6ehvFFFCwdjGNhlY0fkGwXw/J80DIsq7/cujAfU398JdtzLY6eEjn7N5HfaV72uqPjyIld/8u70jv8ArH6V/uhWhNJkRFOW7fPbtVzj69uCP9mqH4j/AOHWn11P6mg+Gv8AiVNdVPP2KFWDYdyVy4wpjy6Zk2HD7aW+3dj21ErZHdGONwdI5ke/C1zy0EkD2+075yizMK1SmnGEmk9n3rvNVUo06rjKcU3F5WVyfagiIus7AiIgCIiAIiIDUGsH+CjnD+I17/uUqaPv4KOT34jWT+5RJrB/go5w/iNe/wC5Spo+/go5PfiNZP7lEgNvoiIAiIgCIiAIiIAiIgCIiAIiIAiIgCIiAIiIAiIgCIiAIiIAiIgCIiAIiIAiIgCIiAIiIAiIgCIiAIiIAiIgCIiAIiIAiIgCIiAKQvk7v9Yr/flib9gq9UhfJ3f6xX+/LE37BAV6iIgCIiAIiIAiIgNA60ct7RjLKCuxTNDJ918Jt+eUUrHbfub3sbOx49bSwcXqIcxvPbcGQtIVwFu1D4Se53Cyd9VTu+vjpZWtH9ItXR/HGGYsaYMvuEJpuhberdUUHS8PF0ZljcwP29exIP5Fy2zJyYzKygnpDjiwOoI6x8jaSpiqI5Y5TGRuQ5jjwnmCA7Y7Hs7dt50ZuIXVjV06pPDeUk+yS3wuvG7PPulNvO0v6WpU4ZSw5Ncsxe2X1ZWFlnWVQ38og/fFODo/Zb6o/bIz/BbXyR1H5fWXJvAkWYuNIqS7VzJbcDUccjv3CV0bXyvAIY3h6P6byBzPPkSJ81o5m4HzPxJhu5YFxBDdaWjop6eZ7I3sLJOl32LXtadiOYO2x9RKg6Bp9xa6quOD4Y8Szh42yuZP6RalbXekPgmuKXC+HKzu0+XMuXKd/SZWYNf/ACsP24/+mjUC6zsxv8us5Ky1UcrH27CzPuXAWc+KYHincT7ekJZ7Nox7SvawnrozEwpa7XYIcLWGotlptlLboY3iUSuMMbWdI54dsS4NPLh2G49nPX+DMu8R5yWTMPE1htD6+7W6WmuQpoWl8rxNNKZGxjtc7YE7DmeHludgrbSdJnpV1UvbzCXJPP8AM8eXZ5lPrGsQ1e0p2NllvnJYf6Y58+3yN06Islaq+W3EuPrxURxWq82urw1TRxu3mPSFnTS/7OwHCOe5JdyAAJ/m+6C6rD2XV/vdRjP57fLYyevpYqSic+Ooghhe4QhpcHCSRwHMcQGwAB3JW/NIeFL9g/I6023ElpqbbXTVNVUupqmMxysa+U8PEw82kgA7HnsQt0Kjvtfu6F/VlQn8vFjq3Udl28+svrDo9Z3GnUY14fNw53zs5bvs5dRG3ydNHUMoseXB9K4QSy22GOYj6L3sFQXtB9oD2E/zgtCaqsPMwvn9i6jpYHww1VUyvYeEtD/nETJXlvtHG945ctwR6l06t9rtlogNNardS0ULnukMdPC2Npee12zQBufWVO2uLLKrxhlzR4lw5hv5/ebNXxmeSmpuOpNE5r2uaOEF7miR0btuwDiPqUnTNbjV1mVxJYjVxHny5Yft7kXVdClS0SNvB8UqWZZxz5tr39jnoi3Xm1knc8C5N5b4rqMMz0VwuLK2K9OLHB7ZXzdJSNkaebXGEkbbciwg81tym0DwXvD2ELvbcUVlrqa2kp6jENJcWtkfC58bHPZBwMGzmkvbs/cHkd+R32NTW7KjCNSpLCbkl1/lbT5e3ijF0tBvq9SVKnDLSi31fmSa59md/BkmXfFGI7/R223Xq9VlZSWeD5tQQSyl0dLFy3bG3sbvsN9u3Yb77LfumC7jHGqSyYidG8Op7WQ4PA3DoraKYnl6twdvq27OxbyzL0UYAkwHdaXKqxspMRyiF1NJW1ssjCGPBewF5IYXN357doA3AJWn9EuDb/Y9QF5t99tFRR1dgtVVDWMkb+8zGWJgaSOXMcRBB2IBI3HNVdbVbPUNOr1LfZxjJYeE/mxvhdTfuW1HSL3TtSt6dxupSi8rLWY52y+tL2NX6orYbRn9jSlc3YyXAVX/AJ0TJf11hdTgTFNJgyhzAmtbhYrjWy2+Cqa9rgZ2AEtIB3bvz23HPhd7FaerHSvWY6qq7NHATausxFN83ZV2sFnDUsY0R9IwuI2eGNj5b7EMO3M89u6dMuq7LvJjD+EsSUUTLlG2SrrYjwvDJpJXSBp2JBcxpY3cHbdvJR10lo2unUalLEpLEZR5PaO79cYZI/4XrXWpVqdXMYvMoy5reWy9M5WzMkymoa22ZV4Nttzp3QVlJh+3QVEThsY5G00Yc0/WCCFlaIvPKk3Um5vreT0mlBUoKC6lj0CIi4HMIiIAiIgMMzhy2pc28u7tgOqrjQm4NjdDVCPpOhljka9juHcbjduxG45ErRWkjTrmHk/jnEl6xtSUcUD6IW6jlp6lsraoGVr3SNA+k1v7mPvw08+xVQisKGp3Fvazs4tcE+fty8cFdX0u3uLunezT44cu/nz8MkuZsaGsFYhfdsS4Dq6y13KWnnnhtgkaaaarO7m7OfuY2lx2IB2HLbhAXi6NNON8wlea3MjMOyV1rutC99HaaSfZmwcwtlmcBuTuHcLewffHnu0ivUUn+PXsrWVpOWVLbL547M9/eRF0esY3cbyEMOO+Fyb7cd3cERFTF4R38opRB9pwPcducNRXw7/z2wn9mtDYqtvBpdwLcuHtxJdm7/zmRj9l+ZUj8oVTceXWGazb96vZi3/nQSH9RamxFhS53TQxhC8WygkqG2y/1VbVlg36KnMtTEZD9Qf0YO3Zvv2AkeiaNXVPTrXL/wDca9eP9zzTW7d1NSu8L/20/Tg/Y1pjPFeLNRuNsO0tqw9x3qKzQWeKlglBEzoBI9z28W3CCC53CSduY3K19eLJecPV8lqv9prLbWxAF9NVwOhlaCNxu1wBG459i3toYtQuOfNPVlgd9y7VWVYO33u4bDv/AM7b8qvW8ZZ5fYgvwxRfcG2i4XUUzqP5zU0rJHGFwILDxAgjZzhzHYSOwqTf69T0S4VoqeYKOVjnnL9iPp/R+pr1s7yVTE3Jp5WzWFvt1nJK2XSutF0o7xQTmOroZ46iCQgO4JI3BzDseR2IHL6l1F045n3TNzKm3YuvsVOy59NNSVfzdvDG58byA4N3O27S0ke0nblsFoPU1pBoIbXDifJXCJFSKqee60cVVs1sLmhwdEx7g1rWlrvoN5/TGw2Gw1vp+1SU2S2VuJMLfch1ZeH1n3QtHS7mne+QRRvZJw7OaGhnGNvvuY3adiY+qKl0jsY1bOOZprbbKT2ed+XX5ZO/SnV6M6hKjeyxTlF774bW6xtz6vF4Kjw1qwwLiHGuMsJm21tNT4Qoq2vfcOJsjKqGkO05Ywcx6y3t4gCeXYvjt2rHDWKMmcY5m4ctVRTVmF29EaGtLSellIbTvJYebHPcAeYP0XD2E88LZfr/AGSepulsrqimfcKeqoKiVo5TxTRlk0bt+RBbJz9m4I2IBWTYXx3SWLKnHOB5BKanFFTaXRcLfoiOmkmkkLj6uZjH/wDpXKr0UtofNBN7w6+rKUvVbnGl0vup/LUaW0+rrw3D0e3eXRpJztxJmzge9XDHldSPr7NcOjdUtjZA0wPYHN4gNmggh435ctvXzM+2PGJzo1s2nEFBb3x0VLceCnbvxkQUkTtpHEchxOYXewcQG57TP9Ji3EVlwldsCwu6C332ooq6ra5hEj+hbIYgOe3A7pg88ufBGQQN96w+TtsTw3GuJpaU8BNFQQTFvaR0r5Wg/lhJH1hfLzTqWj07q+gl8y4YpbJKWE/fq7F3nKy1OtrVW0sJt/K+KTe7bjlr22znm+4nLNue8YQzTzIw5RzmnprndaulqouBp6Wm+eNqIxzG7fpRxO3Gx5bb7Eg7e0T530GB8QDK+62l74cVXFnQVzJecNQWBjGOYRza4gDcHcEjkfVkOu3Jqx2QxZxWl9U2tvVxiobjAXAw8XQO4JGjbdpIh2PPYn2EqWZbHizC1vsGNugqrdT3V8tRZrhFMGOe+ml4Hvjc08THMkA58jvsR7VY0Pw2t6YoS24ljs+ZL3xjPgisuPxWharKcd+B57VwN+2c48X2nX+aaKnifPPI2OONpe97jsGtA3JJ9i5e6nczMPZsZr1eKcLOqX21lLDRxPqIujdJ0YO7g3ckNJJ232PtAWaXPWJf8R5HXHKzENtq5L1UW9tEL82s43VI+cNL2yxloI4qfiYXcTi5w3I+kdtQZU5bXbNrHNBgWy1UNLU17J3/ADidrnRRCOJ0m7+EEgHhDd/a4Ku0HRpaQ6t1ePDjlLs4ebl5+u3Is+kOtx1mNK0sllSw328T2UfLr6nlbnRrSxGItP2DGjbnRPd9s0h/SvK1kWkXTT1iR4hfJJQvpKuMMaXEcNTG1zuXqDHPJPqG5WwMqsCsy0y8sWBm1xrDaaURSTkbCSQuLnkD1N4nO2HqGyyO4W+hutDUWy50cNXR1cToZ4JmB8csbhs5rmnkQQSCCsXK7jT1F3cN0p8XiuLPubmNnKrpqs57Nw4X3Phx7Eu/J72uogy5xJeJGcMVZeRBHuPvuihYSfwfum34QVTt6t7btZ6+1O22rKaWnO/Zs9hb+lflh3DdgwlaYbDhiz0lrt9PuY6aliEcbSTuTsPWSSSfWvSXDUbz8bdzuYrGXlfY56bZfgbOFrJ54Vh/c4wq39F2BbDj3IDGGG8S0Laq33a+SU8sZJbzZT072OBBBBa4hwI9YWudRWky94Vxtbn5V2G6XW04jmeBFFAZG2+oMn725zG7Mi4XN4S7sDXbk7bq5MC4Cwnlth+LC+DLPHbrfE90nRsc55fI7bie5ziXOcdhzJPIAdgC2XSHWqNaxp/h3vN5Xdwvr6088vAxHRzQq9C/qfiYrhgsPPJ8S6uprHPxOaWm6QWnPvCUlx/zUUtxd0/Sjg6LhjfxcW/Ztz339i3RkUJs+9Wd7zVliqX2eyvkraZzxsGtA6Gjjd7HcAL9vbG7698D1ksbYNQl3qLNHHRPqKGne90DAzidJBwyOOw5ucCdz281VmjXLeXAOTlHcLhC1lwxQ8XeX+U2F7QIGE/zAH7eoyELt1i8hGy/iC2nVgopdieXL2OnRbKcr7+HPeFKbm32tYUfc9PV7a3XXTziyONnFJTMpqpv1COpic4/0Q5RHpUzJgyyzjtdwrYOko7y37i1Lg/h6Jk8ke0n1hr2sJHs39a6S40wtQ43wleMH3KR8dNeKKWjkkj++jD2kcQ39YJ3H4FBeovTMMj8BYbullram8yMuFX91Lq2l6Hg6QQ/N2kBzuBo6OTYlx+k89m4Crejd3bVLWemV3vUbx5x7fL1Za9J7O6p3UNUoLamlnyl2eD9EzNdEX+cZ15h1nbvBNz/AJ1Xv+hat1qM4dQ1/d/LpqE/+mjH6FvTQLl7frTasQ5iX2jngivogp7c+bcOnjYXukl2PMtLiwB3r4Xdq0jrbZw6gbsf5VFRH/ktH6FaWVSM+kFVQeUoY9OHJU31OcOjlJzWG559eLBXOja2xW/TxhmRsTWSVj6yplIaAXk1UrQT7TwtaPwALdi1rpsovufkPgiDbbitMU//AJhL/wBZbKWE1KfxL2tLtlL6s9A0uHw7GjDsjH6IKGddeT9+psRvzkpqimls9XHS0FTHxETQzhrmg8O2xYQ1vPffckbbbK5limZ+XFhzXwZXYIxI+ojo60sf0tM4Nliexwc1zSQRvuPWDuCQu/R9Qem3ca3Vyfg+ZH1rTlqlnKh+rnHxXI5UU+CMW1WFKrHMGHq51gopmU81w6IiBsjzsGhx5HnsDtvsXN323G/jRwzSskfFE97YW8cha0kMbxBu59g3c0bn1kD1rrhgPLTCuXuBaPL2z0fzi1UkbmPbWBsrqhz3Fz3ycgHFziT2bdgAAAC1Jlzo8wzgfEmNK+rvTq+z4pt1TaKegZB0TqWkne17ml/Ed3N4GBrgB2b+vYbKl0woS+I6kcYfy96z7PrMRW6F3EfhKnLOV83914911dpEuQdrjvGdWCaCaJssZvlJK9jhuHNjkDyCPWNmrqPX4OwndL/Q4quWHLdU3m2tLKOvlpmOngad+TXkbjtP4Nzt2lQNpkyyvNt1SxWWtttZHHhOatnqDNCWlrGsfHE53Lb6TnsIPYR2Lokqjpddcd1TVKX6Orvb+qLroba8FnUdWP6+v+6l9GQ38odYHwYpwjilsZ4aygnoHPA5AwyB4BP19O7b8B9iyP5P/CRlwnja6Xi0dJQXiemoG9PHvHOyNkvSN2PaP3YA+o77epVrcrPaLyyKO72qjrmQStnibUwNlEcg7HtDgdnD1Ec19ir567KWlrTlHdfqz2PK2/qWMOj8Y6rLUnPZ/px1uOHvn7Ghc8dP1knyEvGBsqsJwUtRDVxXelo6cneedrwJDxPJJcYi8Dc+poCnrQ5gPELM67hdLpZayiZhu3zxVQqYHRuhqZC1jYXBwBa8tMh2I7GlX+i67fXK9Gzq2klxced291nGfE7LjQKFa9pXkXw8GNklh4y14bmhdQWlumzyxfYMT/5SC1ighFFcGdBxvmphIXjozuA14L5BzBH0gfVsdl2vJ/KqzOt8lsy6w5Ty2qTpqOZlthEkMnL6Yfw8XFyB4t99wD6ll6KBPULmdKFBzfDHOFy5/XzLGGnWtOtOuoLinjL58vHl5GN5g5fYWzPwxUYRxhQuqrfUPZIQyQxvY9h3a5rhzBH9hIPIqANXuTuC8n8YWagwRTVVNSXO3uqJIZqgzBr2yFv0S76XMbb7k/kXSNQv8oc3bGWEX+22Tj7JR/ir3opc1o30aCk+B52ztnHZ5FB0utaMrCVw4LjXCs43xnt8zb2hCj+a5GGfbb53equb8OzY2fqKilqXSphxmGchMJ0zXue+tpTcnkjbnO90gH5GuaPyLbSptWqKrfVprlxP6l1o9N0dPowfPhX0CIiryyMZly1wJPjiLMmXDNG7EsMPQMuJB6QM4S3s34eLhJbxbcW3Lfbkv7zCwFh/MzCFxwViaF76C4xhrnRnhkie0hzJGHns5rgCORHLYggkLI0Xaq9VSjPieY4xvyxyx4HS7ek4yhwrEs5WOeeee3JqLD2mnA+HcnLpk9G59fS3Q1FQ+trYWSSR1ckYY2oYNtmuYGs4duf0e3mVrzKnQ9gyx4ZuduzVho8QXKtqQ+nno5ZohSRNa5reBwLXEkvc5wI4dwzkeEFVAimx1i9hGcY1GuJ5b68+PUQZaLYTlCUqafAsJdWPDr8yY8r9EuHcOWDFGH8wrpFfYb5NT/NZKRroJKaOFz3NeHHfZ7i/mOY2btz3XlVfyfOC6rEtfXRY1uVHZJS11HQQQNdNAdxxNdM8u4xsHbfRB+kN9+H6VYou7+P6ipyqKq05c+WOrq5Ll1HT/wAO6Y6cabpJqPLnnrfPm+fWcus9MKXjJDNLFeD7DVT0FpvUH7k2N2wnts0jZRFv28LXxhh7N+jI7Cd/8yPzIuGnbMyPEWIcNVkzKm2iGek4+hlNNUNjmZI3cEH6IY4A7b79oVY6oNMWJs7MbYdxHhy526khgpRbri6pc4PjiErntkY0A8Z/dH/R3HPbnsSRi+ubKSyU2X9ix7aqeRtdh801lmeCOGShLXBheNvvmvDQCNuUjt9+W2wtdZtb2lRs63zOqsS7crCWfExd3ol3Y1q97Q+VUmpQ7GnlvHh+5VlkxDY8SUprbFdqSviaQHmnma/o3EA8Ltj9F2xHI81MvyhF8npMvMN4fikLWXG7uqJAHEcQhiIDT7RvKDt7QPYozy3zDxFlfi+3Yvw3VyRzUU7JJYA8tjqogfpxSD1tc0ke0b7jYgFbS1XZ1HObH9NZMNSw1dgsh6G2PhjPHUTzMj6ZxJ7fpt4G7ciG7gni3UW06N1NP1OlOL4qay88sY6vVrHn2Eu86T09R0qrTkuGo8LGc5z1+iefLtKf0T5aYiy+yzrqzFNtNDWX+vFZDE5wL/moiYI3OAP0SSXnY89iN+1UMvwoaVlDRU9FH97TxMib+BoA/Qv3WLvbqV7cTuJ85M3FhaQsbaFvDlFBERRSWayz/wAkqDPPBkeG5bky2VtJVsrKSuNOJTG4AtcwjdpLXNcdwCOYaee2yyDKnLq2ZUYCtWBLVUPqYrdG7pKh7eF00r3F8jyOe27nHYbnYbDc7LLUUl3daVurVy+RPOO8ixs6Ebh3aj87WG+411mTkJlzmviCy4kxlbp6mpsn0Y2Ml4Y6iPi4uimbseJnFudht2kb7HZbEAAGwX+ouudepUhGnOTajyXZnsO2FClSnKpCKTlzfbjtCIi6jtMZzCy3wfmnh/8AyYxtavn9AJ2VLGiV8bo5WggPa5pBB2c4fgcR61zAzywxQYMzdxXhm1UjaWhorlK2lhaSRHC7ZzGjfnsGuA5rrKpqza0bUOamb8mPqnFUlBablFH906WGMfOOljiEbTE4gtAIYzfiB2Id278tP0a1aGn1ZRuZtQw8LdrO3V2tGU6UaPPUaUJW0E6nEsvZPGH19iZr75O+0Vor8Z3x9HK2lMFJSxzlpDHv4pHOaD6yAGk7dm437QrWWP4BwRY8t8H2zBOHGSi32qIxxGZwdI8ucXve4gAFznOc47ADc9gWQKq1e+Wo3k7iKwny8Ese/MuNGsHptlC2k8tc/FvL9OQREVaWYREQHO/Xozgzwhd/LsVK7/mTD9Cv7DdB9ysO2q2cO3zOigg29nBGG/oUt6mtP2O808+ML3az2YzYfqKKlo7hWiRgbStjnkdKXAnf97eCNhzPJVstFq91Tq2FpShJNxi893Jb+jM1o1pUpaheVpxaUpLHfzbx6oIiLOmlCIiAIiIAiIgCIiAIiICKNaOTOZmOM1Lbf8HYPr7xRS2WKmdLSsDgyWOWUua7n9H6L2Eb8jvy7CqP074Arss8nsPYUu8AhuUUL6itj4g4smlkdI5hI5Et4g3luPo9p7VshFa3Or1rmzp2UklGHq+eM+pUWuj0bW9qX0W3KfouWcegREVUW4REQBERAEREAREQBERAEREAREQBERAEREAREQBERAEREAREQBERAEREAXgZgYdnxfgPEeE6aaOKa82mrt8Ukg3ax8sLmNcfqBcD+Re+i5Qm6clOPNbnGcFUi4S5PYnXR5kPi7Jy2YjuGOIYKe43qaCKKmimbL0cMPHs8vaSPpmU8vUGD27CikRSL28qX9eVxV/M+zwwRrGypafbxtqP5Y9vPd5CIiiksIiIAiIgCIiALC8z8n8BZwWunteObQaoUb3SUs8UropoHOGzuFzfUdhuDuDsNxyCzRF2Uqs6E1UptqS61zOurRp14OnVinF8090eBgXBGHcucK0ODcK0jqe229rhE17y95LnF7nOceZJc4k/h5bDYL30RcZzlUk5zeW92zlCEacVCCwlskERFxORiWPMqMvMzhQ/5d4Xprsba9z6V0jnsdGXbcQ3Y4EtPCN2ncHYcllUMMVPEyCCNscUbQxjGjZrWgbAAeobL+0XOVWcoqEpNpclnZZ54OuNKnCbqRilJ83jd45ZfWaY1b4FxVmDk3WWXB9A6ur4a2nqzSx7dJNGwkODNyASOIO29YaQNzsF7GmjBd8y/wAksNYYxLRCjukDKiapg4g4xmWokka1xH8YMe0EeoghbPRSnfVHZqywuFS4u/OMEVafTV677L4nHhx1Yzn1CIihE4IiIAiIgCIiAIiIDUGsH+CjnD+I17/uUqaPv4KOT34jWT+5RJrB/go5w/iNe/7lKmj7+Cjk9+I1k/uUSA2+iIgCIiAIiIAiIgCIiAIiIAiIgCIiAIiIAiIgCIiAIiIAiIgCIiAIiIAiIgCIiAIiIAiIgCIiAIiIAiIgCIiAIiIAiIgCIiAIiIApC+Tu/wBYr/flib9gq9UhfJ3f6xX+/LE37BAV6iIgCIiAIiIAiIgC8TGuE7bjrCd2whd+IUl3pJaSR7QOKPjaQHt3/jNOxH1he2i5QnKnJSi8NHGcI1IuEllM5b5jaZs2su7vdKSbDFbdrZbYhU/dahpnvppICQA7fbk4b/SZ2jZx5tHEdZV9suVqmbT3S31NHK+NkzWVETo3OjcN2uAcAS0g7g9hC7Kr5a22W25RPguNvpqqORoa9k0TXtc0HcAgjmN+a2lv00qxilWpKXenj7Mw1x0Hozk3QquK7Gs/dEZaXNMuG8wMobpdcx8PkfdypL7LVB7o6iCNjHM6dhBH0S9xIa7druAEgjYqgdPmQdsyFsFytdPe3XitutSJ6msNMIN2MBEcYZxO2Dd3HfiPNxW1I444Y2wwxtZGxoa1rRsGgdgA9QX9LP32s3V86kZSahN54epY5f763uaPT9EtLCNOUYpzgscXJvPP+mc4WwREVSXAREQH+Oa1w2c0EdvML/URAF/IY0OLw0Bzu07cyv6RAEREAREQBERAEREAREQBERAEREAREQGmNV+UuJ84staXD+EfmrrjQXaG4Njnk6MSsbFLG5oceQP7qHc+X0SsxyXwDNljlbh7AtXNFNUW2lIqXR/eGaR7pJOHftHG9wB2G457BZsilyvasrWNm/yJ8XmQ42FGF3K9X52uHuwYjhDKXLjAV3uF+wfhGhtdfddxVTQh27ml3EWtBJDG77HhaAOQ5cgsuRFHqVZ1ZcVRtvv3JFOlTox4acUl2JYCiDU1pJxFW47o73k1g1kluvDNq2mp5WRx01Xxnd+z3AMY5pH3v0QWu7Nxvb6Kbpup19Lq/Fo+DT5Px8CDqel0NWo/Br9uU1zXh4keZz6SabDOQdHa8urRV3e/2u4x3Gve0Gapqw+IxzNia0DcB3RuDQN+Fh7SSTgmWWhzHV6uOGbzjcwUNirI/nV1o3SOirYGhztoOHh5Oe0MJO4LeJw7Wje/kVjS6TX1Ki6Se7beXz3/AG5orqvRbT61dVnHZJLhXLb9+TJ3z90k0ObU+GajC95pcPmxUTLS5j6d0rTRM/emt2IO7N3gAnnxdo257pwLgnD+XmFqDCWGqCGlo6GFsf7nGGmZ4aA6V+33z3bblx5kr30VVWv7ivRjb1JZjHOF4/XzLajp1tb153NOGJyxl+H08jyMWYSw5jmwVeF8WWqK42utaGz08hIDtiCCC0hzSCAQQQQQsOxdp8yqxfgq34FrsLQRW6yRSstIilkY6ic9uxc1zXBztzs4hxIcQCdytkIuqlc1qGPhzaw8rDfPlnxxt4HbVtaFfPxYJ5WHlLlzx4Z38TnfhTQlnJe62ePEM1pw/S09QYTLPUdO+Zg3/dImRbgt7Pv3MPPsVlZRZFYFyhtFBFZrRRzXqCi+aVV4+bhlRVbu43kncloLvVueTWjc8IWxkVlqGvXupR4KssR7Fsv3fqVmm9H7HTJcdKOZdr3fl1L0CIipi7CIiAIiICENWeUuYGPNRFNSYYwxXVbLxQUrIapsLvm7eHdry+XbhYG7bnc7gbe0b3BYbVHYrHbrJCQY7fSQ0rCBtuI2Bo/sX3orK81OpeUKVvJYVNY8e/2Kuy0qnZXFa5i23UeX3d3uF/hAcC1wBBGxB9a/1FWlof41rWNDWtAaBsAByAXPnXTg/EdPnDHiU2ipfbbzR01PSVLIy5kk7Glrotx/H5A8PaQeS6Dr+XsZJtxsa7hIcNxvsR2FWek6lLSrj46jxbNY5cyq1jS46vbfh3Lh3Tzz5dx4WX1ifhfAeG8NSNLX2q00lE8Ht4o4WsP5wvfRFXTm6knN82WcIKnFQjyWwREXE5BERAEREAREQBERAEREAUOfKIs2xPg1/toKofZIz/FXGtAanNN18z1vGGLhZsQUVvjtXS09c2q49+ge5h44uFp3eOE/RdsDy5jbnddH7mlaX8KtZ4is7+TKPpHa1b3Tp0aEcyeNvNG1sqre605X4QtbmcLqSw0EDgfUW07AfzhZSv4hijgiZBCwNjjaGNaOwADYBf2qipP4k3N9byXNKHwoRgupJBERcDmEREAREQBERAF8V5stoxFbKiy36201woKtnRz01TEJI5G9uxaeR5gH8IX2ovqbi8rmfGlJYfInbNzRhlti/D9ScvbJQYbxD+5GnqBJMKZzWcix8YJaOIdrw0u3APPc7/PkLo1wxlvJFiTHzqPEWI4KiOpo3RdK2moHM32LASOlcSQ7ie3kWt2AIJNIorP+NX/4d2zqPhfr4Z547iq/gWn/AIhXXwlxL08ccs94REVWWwREQBERAEREAREQBERAEREAREQBERAEREAREQBERAEREAREQBERAEREAREQBERAEREAREQBERAEREAREQBERAEREAREQBERAEREAREQBERAEREAREQBERAEREAREQBERAEREAREQBERAEREAREQBERAEREAREQBERAEREAREQBERAEREBqDWD/BRzh/Ea9/3KVNH38FHJ78RrJ/cok1g/wUc4fxGvf9ylTR9/BRye/Eayf3KJAbfREQBERAEREAREQBERAEREAREQBERAEREAREQBERAEREAREQBERAEREAREQBERAEREAREQBERAEREAREQBERAEREAREQBERAEREAUey/JuYahxLifEeG9TGeOFv8q75WX+tosPYljoKX51UyF73cDIfpHsbxOJdwtaCTsrCRASF6O73z9S/jn4Keju98/Uv45+Cq9RASF6O73z9S/jn4Keju98/Uv45+Cq9RASF6O73z9S/jn4Keju98/Uv45+Cq9RASF6O73z9S/jn4Keju98/Uv45+Cq9RASF6O73z9S/jn4Keju98/Uv45+Cq9RASF6O73z9S/jn4Keju98/Uv45+Cq9RASF6O73z9S/jn4Keju98/Uv45+Cq9RASF6O73z9S/jn4Keju98/Uv45+Cq9RASF6O73z9S/jn4Keju98/Uv45+Cq9RASF6O73z9S/jn4Keju98/Uv45+Cq9RASF6O73z9S/jn4Keju98/Uv45+Cq9RASF6O73z9S/jn4Keju98/Uv45+Cq9RASF6O73z9S/jn4Keju98/Uv45+Cq9RASF6O73z9S/jn4Keju98/Uv45+Cq9RASF6O73z9S/jn4Keju98/Uv45+Cq9RASF6O73z9S/jn4Keju98/Uv45+Cq9RASF6O73z9S/jn4Keju98/Uv45+Cq9RASF6O73z9S/jn4Keju98/Uv45+Cq9RASF6O73z9S/jn4Keju98/Uv45+Cq9RASF6O73z9S/jn4Keju98/Uv45+Cq9RASF6O73z9S/jn4Keju98/Uv45+Cq9RASF6O73z9S/jn4Keju98/Uv45+Cq9RASF6O73z9S/jn4Keju98/Uv45+Cq9RASF6O73z9S/jn4Keju98/Uv45+Cq9RASF6O73z9S/jn4Keju98/Uv45+Cq9RASF6O73z9S/jn4Keju98/Uv45+Cq9RASF6O73z9S/jn4Keju98/Uv45+Cq9RASF6O73z9S/jn4Keju98/Uv45+Cq9RASF6O73z9S/jn4Keju98/Uv45+Cq9RASF6O73z9S/jn4Keju98/Uv45+Cq9RASF6O73z9S/jn4Keju98/Uv45+Cq9RASF6O73z9S/jn4Keju98/Uv45+Cq9RASF6O73z9S/jn4Keju98/Uv45+Cq9RASF6O73z9S/jn4Keju98/Uv45+Cq9RASF6O73z9S/jn4Keju98/Uv45+Cq9RASF6O73z9S/jn4Keju98/Uv45+Cq9RASF6O73z9S/jn4Keju98/Uv45+Cq9RASF6O73z9S/jn4Keju98/Uv45+Cq9RASF6O73z9S/jn4Keju98/Uv45+Cq9RASF6O73z9S/jn4Keju98/Uv45+Cq9RASF6O73z9S/jn4Keju98/Uv45+Cq9RASF6O73z9S/jn4Keju98/Uv45+Cq9RASF6O73z9S/jn4Keju98/Uv45+Cq9RASF6O73z9S/jn4Keju98/Uv45+Cq9RASF6O73z9S/jn4Keju98/Uv45+Cq9RASF6O73z9S/jn4Keju98/Uv45+Cq9RASF6O73z9S/jn4Keju98/Uv45+Cq9RASF6O73z9S/jn4Keju98/Uv45+Cq9RASF6O73z9S/jn4Keju98/Uv45+Cq9RASF6O73z9S/jn4Keju98/Uv45+Cq9RASF6O73z9S/jn4Keju98/Uv45+Cq9RASF6O73z9S/jn4Keju98/Uv45+Cq9RASF6O73z9S/jn4Keju98/Uv45+Cq9RASF6O73z9S/jn4Keju98/Uv45+Cq9RASF6O73z9S/jn4Keju98/Uv45+Cq9RASF6O73z9S/jn4Keju98/Uv45+Cq9RASF6O73z9S/jn4Keju98/Uv45+Cq9RASF6O73z9S/jn4Keju98/Uv45+Cq9RASF6O73z9S/jn4Keju98/Uv45+Cq9RASF6O73z9S/jn4Keju98/Uv45+Cq9RASF6O73z9S/jn4Keju98/Uv45+Cq9RASF6O73z9S/jn4Keju98/Uv45+Cq9RASF6O73z9S/jn4Keju98/Uv45+Cq9RASF6O73z9S/jn4Keju98/Uv45+Cq9RASF6O73z9S/jn4Keju98/Uv45+Cq9RASF6O73z9S/jn4Keju98/Uv45+Cq9RASF6O73z9S/jn4Keju98/Uv45+Cq9RASF6O73z9S/jn4Keju98/Uv45+Cq9RASF6O73z9S/jn4Keju98/Uv45+Cq9RASF6O73z9S/jn4Keju98/Uv45+Cq9RASF6O73z9S/jn4Keju98/Uv45+Cq9RASF6O73z9S/jn4Keju98/Uv45+Cq9RASF6O73z9S/jn4Keju98/Uv45+Cq9RASF6O73z9S/jn4Keju98/Uv45+Cq9RASF6O73z9S/jn4Keju98/Uv45+Cq9RASF6O73z9S/jn4Keju98/Uv45+Cq9RASF6O73z9S/jn4Keju98/Uv45+Cq9RASF6O73z9S/jn4Keju98/Uv45+Cq9RASF6O73z9S/jn4Keju98/Uv45+Cq9RASF6O73z9S/jn4Keju98/Uv45+Cq9RASF6O73z9S/jn4Keju98/Uv45+Cq9RASF6O73z9S/jn4Keju98/Uv45+Cq9RASF6O73z9S/jn4Keju98/Uv45+Cq9RASF6O73z9S/jn4Keju98/Uv45+Cq9RASF6O73z9S/jn4Keju98/Uv45+Cq9RASF6O73z9S/jn4Keju98/Uv45+Cq9RASF6O73z9S/jn4Keju98/Uv45+Cq9RASF6O73z9S/jn4Keju98/Uv45+Cq9RASF6O73z9S/jn4Keju98/Uv45+Cq9RASF6O73z9S/jn4Keju98/Uv45+Cq9RASF6O73z9S/jn4Keju98/Uv45+Cq9RASF6O73z9S/jn4Keju98/Uv45+Cq9RASF6O73z9S/jn4Keju98/Uv45+Cq9RASF6O73z9S/jn4Keju98/Uv45+Cq9RASF6O73z9S/jn4Keju98/Uv45+Cq9RASF6O73z9S/jn4Keju98/Uv45+Cq9RARtePk17bf7TWWO86vdRlwoK+B9NU0lZjJs8E8T2lrmSRuh4XsIJBaeRB2VQ5W5f23KnLfDOWdmrqusoMLWqmtNNUVZaZpIoIwxrnloDeLZo7AB9SyhEAREQBERAEREAREQBERAEREAREQBERAEREAREQBERAEREAREQBERAEREAREQBERAEREAREQBERAEREAREQBERAEREAREQBERAEREAREQBERAEREAREQBERAEREAREQBERAEREAREQBERAEREAREQBERAEREAREQBERAEREAREQBERAEREAREQBERAEREAREQBERAEREAREQBERAEREAREQBERAEREAREQBERAEREAREQBERAEREAREQBERAEREAREQBERAEREAREQBERAEREAREQBERAEREAREQBERAEREAREQBERAEREAREQBERAEREAREQBERAEREAREQBERAEREAREQBERAEREAREQBERAEREAREQBERAEREAREQBERAEREAREQBERAEREAREQBERAEREAREQBERAEREAREQBERAEREAREQBERAEREAREQBERAEREAREQBERAEREAREQBERAEREAREQBERAEREAREQBERAEREAREQBERAf/9k=" parent="1" vertex="1">
          <mxGeometry x="666" y="181" width="379" height="37" as="geometry" />
        </mxCell>
        <mxCell id="10" style="vsdxID=6;fillColor=#ffcccc;gradientColor=none;fillOpacity=40;strokeOpacity=40;shape=stencil(nZBRDoQgDERP03+WHsHFe5iISyOCQdT19kIaIxq//Jtp3zTpAFaTaUYNUkwx+F6v1EYD+AUpyRkdKCYFqACrzgf9C352LfuxyWRWg1/yhT/nRE5IsZWuZtCSK8CPeI0e/hF+jV7AJM4PO7KWCyr390bSiNtEtQM=);strokeColor=none;spacingTop=-3;spacingBottom=-3;spacingLeft=-3;spacingRight=-3;points=[];labelBackgroundColor=none;rounded=0;html=1;whiteSpace=wrap;" parent="1" vertex="1">
          <mxGeometry x="840" y="60" width="30" height="269" as="geometry" />
        </mxCell>
        <mxCell id="11" value="&lt;div style=&quot;font-size: 1px&quot;&gt;&lt;font style=&quot;font-size:17.46px;font-family:Helvetica;color:#000000;direction:ltr;letter-spacing:0px;line-height:120%;opacity:1&quot;&gt;Input&lt;/font&gt;&lt;/div&gt;" style="verticalAlign=middle;align=center;overflow=width;vsdxID=10;fillColor=none;gradientColor=none;shape=stencil(nZBRDoQgDERP03+WHsHFe5iISyOCQdT19kIaIxq//Jtp3zTpAFaTaUYNUkwx+F6v1EYD+AUpyRkdKCYFqACrzgf9C352LfuxyWRWg1/yhT/nRE5IsZWuZtCSK8CPeI0e/hF+jV7AJM4PO7KWCyr390bSiNtEtQM=);strokeColor=none;spacingTop=-3;spacingBottom=-3;spacingLeft=-3;spacingRight=-3;points=[];labelBackgroundColor=none;rounded=0;html=1;whiteSpace=wrap;" parent="1" vertex="1">
          <mxGeometry x="825" y="338" width="70" height="40" as="geometry" />
        </mxCell>
      </root>
    </mxGraphModel>
  </diagram>
</mxfile>
